<mxfile host="app.diagrams.net" modified="2021-01-12T14:19:01.096Z" agent="5.0 (Macintosh; Intel Mac OS X 10_15_6) AppleWebKit/537.36 (KHTML, like Gecko) Chrome/87.0.4280.88 Safari/537.36" etag="MJ-7PS4syoxrDcxjT9Hp" version="13.7.3" type="github">
  <diagram id="AUILRw1g-p7H_m38dy_H" name="Page-1">
    <mxGraphModel dx="1426" dy="802" grid="1" gridSize="10" guides="1" tooltips="1" connect="1" arrows="1" fold="1" page="1" pageScale="1" pageWidth="1654" pageHeight="1169" math="0" shadow="1">
      <root>
        <mxCell id="0" />
        <mxCell id="1" parent="0" />
        <mxCell id="DOYagENMo1T1TxlhpTYe-111" value="" style="rounded=1;whiteSpace=wrap;html=1;strokeWidth=1;" parent="1" vertex="1">
          <mxGeometry x="110" y="20" width="1057" height="590" as="geometry" />
        </mxCell>
        <mxCell id="_gx7Ysj8cRRFJQ8xo1C6-12" value="" style="rounded=1;whiteSpace=wrap;html=1;dashed=1;" parent="1" vertex="1">
          <mxGeometry x="150" y="88" width="480" height="342" as="geometry" />
        </mxCell>
        <mxCell id="DOYagENMo1T1TxlhpTYe-110" value="" style="rounded=1;whiteSpace=wrap;html=1;strokeWidth=1;" parent="1" vertex="1">
          <mxGeometry x="322" y="680" width="845" height="320" as="geometry" />
        </mxCell>
        <mxCell id="DOYagENMo1T1TxlhpTYe-117" value="" style="rounded=1;whiteSpace=wrap;html=1;strokeWidth=1;dashed=1;" parent="1" vertex="1">
          <mxGeometry x="667" y="720" width="420" height="230" as="geometry" />
        </mxCell>
        <mxCell id="DOYagENMo1T1TxlhpTYe-118" value="" style="rounded=1;whiteSpace=wrap;html=1;strokeWidth=1;" parent="1" vertex="1">
          <mxGeometry x="677" y="760" width="260" height="190" as="geometry" />
        </mxCell>
        <mxCell id="DOYagENMo1T1TxlhpTYe-129" value="" style="rounded=1;whiteSpace=wrap;html=1;strokeWidth=1;" parent="1" vertex="1">
          <mxGeometry x="707" y="790" width="80" height="160" as="geometry" />
        </mxCell>
        <mxCell id="DOYagENMo1T1TxlhpTYe-7" value="" style="rounded=1;whiteSpace=wrap;html=1;strokeWidth=1;dashed=1;" parent="1" vertex="1">
          <mxGeometry x="657" y="60" width="420" height="230" as="geometry" />
        </mxCell>
        <mxCell id="DOYagENMo1T1TxlhpTYe-8" value="" style="rounded=1;whiteSpace=wrap;html=1;strokeWidth=1;" parent="1" vertex="1">
          <mxGeometry x="667" y="100" width="260" height="190" as="geometry" />
        </mxCell>
        <mxCell id="DOYagENMo1T1TxlhpTYe-56" value="" style="rounded=1;whiteSpace=wrap;html=1;strokeWidth=1;" parent="1" vertex="1">
          <mxGeometry x="812" y="130" width="80" height="160" as="geometry" />
        </mxCell>
        <mxCell id="DOYagENMo1T1TxlhpTYe-9" value="" style="rounded=1;whiteSpace=wrap;html=1;strokeWidth=1;" parent="1" vertex="1">
          <mxGeometry x="697" y="130" width="80" height="160" as="geometry" />
        </mxCell>
        <mxCell id="DOYagENMo1T1TxlhpTYe-10" value="node exporter" style="rounded=1;whiteSpace=wrap;html=1;strokeWidth=1;" parent="1" vertex="1">
          <mxGeometry x="697" y="157" width="80" height="30" as="geometry" />
        </mxCell>
        <mxCell id="DOYagENMo1T1TxlhpTYe-12" value="cAdvisor" style="rounded=1;whiteSpace=wrap;html=1;strokeWidth=1;" parent="1" vertex="1">
          <mxGeometry x="697" y="187" width="80" height="30" as="geometry" />
        </mxCell>
        <mxCell id="DOYagENMo1T1TxlhpTYe-13" value="rancher-health-exporter" style="rounded=1;whiteSpace=wrap;html=1;strokeWidth=1;" parent="1" vertex="1">
          <mxGeometry x="697" y="217" width="80" height="43" as="geometry" />
        </mxCell>
        <mxCell id="DOYagENMo1T1TxlhpTYe-17" value="1.6容器云" style="text;html=1;strokeColor=none;fillColor=none;align=center;verticalAlign=middle;whiteSpace=wrap;rounded=0;" parent="1" vertex="1">
          <mxGeometry x="732" y="68" width="90" height="20" as="geometry" />
        </mxCell>
        <mxCell id="DOYagENMo1T1TxlhpTYe-18" value="环境1" style="text;html=1;strokeColor=none;fillColor=none;align=center;verticalAlign=middle;whiteSpace=wrap;rounded=0;" parent="1" vertex="1">
          <mxGeometry x="752" y="100" width="90" height="20" as="geometry" />
        </mxCell>
        <mxCell id="DOYagENMo1T1TxlhpTYe-19" value="主机1" style="text;html=1;strokeColor=none;fillColor=none;align=center;verticalAlign=middle;whiteSpace=wrap;rounded=0;" parent="1" vertex="1">
          <mxGeometry x="717" y="127" width="40" height="20" as="geometry" />
        </mxCell>
        <mxCell id="DOYagENMo1T1TxlhpTYe-20" value="主机2" style="text;html=1;strokeColor=none;fillColor=none;align=center;verticalAlign=middle;whiteSpace=wrap;rounded=0;" parent="1" vertex="1">
          <mxGeometry x="832" y="127" width="40" height="20" as="geometry" />
        </mxCell>
        <mxCell id="DOYagENMo1T1TxlhpTYe-34" value="Blackbox" style="rounded=1;whiteSpace=wrap;html=1;strokeWidth=1;" parent="1" vertex="1">
          <mxGeometry x="697" y="260" width="80" height="30" as="geometry" />
        </mxCell>
        <mxCell id="DOYagENMo1T1TxlhpTYe-44" value="" style="group" parent="1" vertex="1" connectable="0">
          <mxGeometry x="337" y="269" width="90" height="100" as="geometry" />
        </mxCell>
        <mxCell id="DOYagENMo1T1TxlhpTYe-41" value="" style="rounded=1;whiteSpace=wrap;html=1;strokeWidth=1;" parent="DOYagENMo1T1TxlhpTYe-44" vertex="1">
          <mxGeometry width="90" height="100" as="geometry" />
        </mxCell>
        <mxCell id="DOYagENMo1T1TxlhpTYe-40" value="" style="shape=image;verticalLabelPosition=bottom;labelBackgroundColor=#ffffff;verticalAlign=top;aspect=fixed;imageAspect=0;image=data:image/png,iVBORw0KGgoAAAANSUhEUgAAAOEAAADhCAMAAAAJbSJIAAAAkFBMVEX///8AAADz8/P09PT+/v4EBAT9/f319fX8/Pz29vb39/f6+vr4+Pj7+/v5+fkDAwGVlZVRUVHX19dycnLq6uqPj4/Hx8ebm5s3Nzfk5OTc3Ny8vLzNzc3T09NaWlqsrKxubm4WFhZ+fn4uLi5mZmampqYpKSlGRkY/Pz8hISGHh4cSEhKampq4uLhTU1OCgoLqIMdbAAAWXElEQVR4nN1daWOqsNJOENmxatHW3S5W2562///fvUASIPsCeO99/XAO2oHMw0wyk2RmAgD6+D53AWQX49MO+7j6E+Xoqx9FzQX6S5A3F4GMliMR0QIJLSGxobVhE33SDP3sz2bo52CWYrosRxd5FjnQzrS05HGAkDS0EaF1a5o8t/5kMfrZT2L0cxAn6BF5PMPtxylHi1uJM8DS5oQWc0QeFxHatH0cpuWaFtFyTfNs5gxt/dRsgn72wwlqJZqE6M7US/ANHn5EPMF3TiaYES/GDye0iYc5CjFtQGjzljajaZumA9J0Lmjagc1aZ1OMu2Raf6fH0nohoGlbgJ4NQBltRmj5pids0zybtfJGWHPb1+gNCtBvmQ6lAKUvgwcYtk3L2cRNx5lP5Fgx4nEAY+bOsAVIVLRh2kGCcQuQaTrnmm7fbUsLJADbd1s/DluNrlTsJegEUKCiPECpiurZbJpm7jRQ7v+RPkhocSt6FR24DwpU1KAP8mxK+yANUM70f1cfNGGTebe4lT5molcfVNhMpYoasxlU//nJOHbQN+mDFmbCCCCjokEaVE5ePEof7KuiHECHPhgltcWfacffgfugylUzebc6Npumo7D6i4/nIf8PzUSESLDFv6Or1jjQDq6alYqSpsmdslcztJmYFCkGOJKrxrJJvt3NTARb+LpPS1GO4qp1aOMuwPv2wRWEb19LYA/QhU2fauVOrloAq89xD8Zz1Ro2a4sfxPcyE8QOPsFphfF57WfjuGqNiuZpNUGcJXee0YMC4s9tB1iAg6pomlRMRam97Hu6aukjAlhK8rhRA7SZ0fNjYVi16JPVN5WeMCra11UDBwSw1tUvAIzMhLwnycxE07T01YzlqkUge2sAQvi5DkjTDmaCd9W4xT89wBFctccW4AOEKx3AXtYMfxvZTHRo68f9tACri5s3uJlgAdoo9xDTpS0ZTR8w0jWQ9kEnM9Gw6SOO7r+q9k0DhHAO5E3bu2oNm1H1hyi+Wx9saMEzDbD871XStKoPalU0rUxhkM3GBSia0YN3GmB18Q7szITCDja0tcXPc+bOu8zovziApfXPMwdXTWEmkrB6HLH4d57Rz3mAJUROKi5mgpdDf4AOmy9fAoDTWlH7umo8m/Sd91r4PUIe4PQBPoK+M3oLCQ7uqiFaLJUPKAII4ZPb5otin1YKcNxVtQ2x+AxACPfpsHtEPuLoPq5aO6Mv58ASgBB6Bot/5n2w3h1ttvnvtvkSeW8ygFN4ljBt46o1bNaxGkGWEo7utfkyO0kBlj9U6zd2WyhSgEkdckJCbcZ31QhtWHwrAMKr3eaLis2w3nkKRgGo2nxBLpsMIIQ/oJerxrFJvt1t8wVc1ADhcxwz79ZmRi8BeMfNF3+tAfhQThYlAF2GCneAjnEywUEDsBxOj1KA9ot/HMCx9+j9pRZgeeEJAYa4RRs2mbi28eNk/L1OReuLkwhgadU2ATCzgw3AapcbpLG97B37INiZSBDCXwFAsHy6LizZZOLaRo+TmYAfM4DwpQhZgD+L8vetpRxCOq5t7D44CZ4MAVb+NwUwQwbm3c5MBJM6DlUQ16Z9NU6u2iT/MuqD1UU5ieoAjC4v9cJx6c85DRXWAN3iZMLo0VSCD9N6JkwArks3vaZ9BsBFDtYA3VQ0TI/mALFFrAF67w3tE3DpSbRURjMToacD+EBdPKcY4K5Du01s+uAIElSYiTC0kmA5mHoI4F+H9sV3YJOJaxtpRl+aCUuApVdTLTzE1y7tY2TPJolrG9tVA2dbgLAIZ8CbdmkrRwexaa6iJK5t5D7o+XOrPlh/Njnw3ihauLQGmNNxbaO5aoFuusQjhdMC+FeGNrdnsxvXNpiZYFbKci8rrAFO4UdSbRPTtBSbNooGnO8USRCcfECpaAKu1gCncEGZiZrkDViqqBhgXxUNwOeMoT3Z9sGK9hxxtNdBJNh/Rn+CBd1K+G0twfJi/sfRLtw8yvprMKCZeCtnOFQ45coFIJzztAvgwmaE4toclFsyih7KCQAVq1ZYq2hF8v3M095c2MRxbSTPbwAz8Qrhv7xL+2QEEE2O2pcxFUj7k2zNW7CJ4tryVHenuavmvUB4Bt1W3owmvPCPAihcYoQObFJxbYO4auvy7T/POrSFCcDrD/inA1heePZskiUeZ4DcjP6x2vfsRhueoFZFb7s8AgYA63ViJzbrzzCbL1HN0KVDe4Y6CV7SLAFrA4DVyoYTm+4AudkEQIuh1461fYESpvHFWwEmic6kYGnf/nMSbHKMUG+Cm5DQFlDN9Bn4ddNHoxG3WWK0YdNHPw8zm/AXiJMvvH6QxXs10yuS1nI1MimnwJ5NOq6t5+ZLiMaLBzhFN2XtvEmsoqvm3V71A1L53KM9m3RcW+9YtS3h6IQAztAatwzga6s8R+mA1J1w1KO0FZtZUu9yk6IGvWf0O8LRR4oDYi8Kpo8tQPAHdQDri4stm2FF4jsot2RG/6/h6IIjfgUONCGZFkGz+aLrr+TiassmFp4YoMPmy3t32KtpV3I7eALd3aWFCUAIt6kDm/YSlK6qteMFGRTmUAbwkwJYL6up+iC++Evt2bQHKN98eW7HC4iSYZ6gjOnLjN4+K0cpgxU46NuzKQbotPlSvDRiKjkqqrtPtOA6FwUZ7Yh3fIAMiWjuWEcT2QH00c9DLPwGW0qnbgGIkx3F9OONoIDvEQMwzopPLcAHeLZlE8e1DRInEy7pTnNOJ01YAvrLIzigHTZmfxCgOJl4IQJIOzvTmR2bdURbQAoQ9Vz4nW1pjqrg+5jSzEpzt7/1/uCBkWA9rufv2uWNcgplw2ZdvaWJa7Ob0QtaWTKvvEr2+e72QTT8XDBWQZwM+IVygFjTfRuPkopr67n5EqM8GFqnXqv5YWeQQflN+2+EkA+njGdXlYpWnzfStM2szhSgavOlot3yHJ0vsCuMykqmXrCpEYpCudB4rABYh2NYsukAUEK7bTWy4eiFMFb/5QNPRdclQkko147anxH446d+ABV2UF/LYgP5GQIFEH6TufbjJpXFqv02uDpv56G9eFUDHERFZYUCOhZf56oV65jtg6TpffNafl4FAKuADCOAmE0S19bLTDS0HxKAjdpdI7Kqu0kJR2xIXfBN3koRCQBCmBs5XIRNNq7NYkbPtpJ5OB9NsfD7SpY3vAYgF3EWoLiiOrnkBAWjzSa2GCqybvWWvvVkZigcQbH5Qnbi1ZkvaF0ATeg/OAlCuMvM2aTi2nqYCYBn9F9KFS09mYIFKApp3qCb66ioC+QAktdk5FF249qGqCfzo5TgtJqiA7Ed7IaRzNA9dUcpmk7Zjs4XazZJK4abL0Bey2JfwlDtDz4xAMVRn7NaR2sHL4neWYAYoU3Up0QqLmXHfMhOeGldFbtqbDjlrNLMFXq3TcRt57kXSzZ1ABXhlIwEQTUwSPvgFNY9yyDzZUsyg6qmC37wutgNFT71Gh1ctW4effpKA2SQLs1KHp1QRjBu+oPr2yczNsm8vJ5dyA2MXdmxRqeEAH/N0gr8Y1Upo2H6nRu81sCCzYiq3mKX+cL0wVrtMrmKViI0yXwJN3iQwU0/cQtU7b6P1FVr5UDFtfUwE4D0q185wKtZ5ku+LrpNlzrLDl5kFdIo6rMb1zZIhdgnmYqWyhW5ZL6kP8zj4E3RBzlFQ3FtgGbaxUw0UmmKB3EAn+OJS8mNbMc8DpdesGJTAtDUVesC9NNfsYpC+C91SFIO2cGrdIx+pGyKJWgDUKeipVTSkwQg3OYsrVlg8g8DEPm2NnLA3ywyX+QAQ8/PhCpa7cETWvM+WKvziXncVccmC9BHrQzRBxHTX8KlQPjXYRoIXDVpEMIf877+WbLJxrU5uGqM2hXCZWu8UWOTpIxfxo153MZQRfHj6Li2PmaiZfoMeYA4K9QhQTKY0o+7Grlq7bBCxbU5umpsaWm8e8Eseu6VAOVxMs2OFH7czo5NqnqLnasmAxhNcHoTs6q7dkxSXtEAP908SilAexWtallsBABLK+aSpOx7z7RC/PhWbGoAWvRB2uMl7737WQUOScp+tqaf8pxN5K6aIcBBivl/8wivkYWr1rzb7Eg/ZZc5sEkDdHLVuHoym/1hWX8O5GJ/CFhak5DmgH7KgZeg1Ew0AOvf00HMRFtPJsS85jEZxXBmlVOSnJ9gXptjWYzkgG/Kg+6dTmZimNJ/g0S7CADOUFxban+nS4VYuyRl880XBZuJMK7tDoXEB06Sm8j6YCyMaxvtzJfRcqm1ika+9TMTMoBWM/ph+yANcBgzMUw9GceyN9YAR+6DQ+VxWgLUb76MbybcSm7I2US73H364EBlx0bqg+RUMucZvVHpP0tXzUVFm6ZZNnH1FofzJuwqxPosLbtaEtsANDcTJK4tIHeO4qoBEtYLZqTr48ABEBHvP8cXjrnU8p5EnUrmeOYLkACs3rT/tBB/frmLxXVvCDAD3vJnt/VSNmBBziYBOLiKLm/8PFH+mRbAQEXjfI/L2Z23lgCHdtVQZIY+XrS9uOXcShkfEJu0Zw7U9bEtALrP6EUqGoL9pyVAUu5aoaIg3zQ1M6t/zy4qOsyZL2nxCm0BTiHadFGEEkQ7CKnnziOthUIWPxm2D2bRj0lQOnsB69hRFUCyxNWGVW91AFFcW3sq2SCuWrA50owoAVJMf+aB1FUD3hGyz23KScnkEFCnkg00o08uHCPSiF8O6WMq7YPLF8FzP2M1m2iXG6fPW6qoTILLqwygTkXLz7mQ7dEDkpvCPHerHipqJNK4NieAKzEjZgCbTCEe4J/kuQeVBMlQgQAOcjzf8k0K0KCS4Faqot5V9txDJB9kPArgEK5a3LxoFwm+h4lsFN1Ppc89xFo2McABzMTuwyD7TArwArhAIALwwgUENo/7LKTR1IRN3xSg7ni+8AyNAEp09QAmrJkgAM9yzYBnIJcgHl9QXFt/V60KmdAnSErLlSbSWLXNBxGgACCx+HIVlcS1Wbtqm19V+LPWDs6BL/NkdhDSL4OKf1jp2MzRqWRsXJt1H3wSice8D64FwSAY4EoBsNFR3R5RG9fm5KqlYHszBTilSdDFrZDOJqoIKwXAPwnATk8iob0MQBszkcYrgVQs+uCXfLq0/JbHAcImZt/00C5nFRVXTTBW0R/5bOIkjcWtPt97YzZ1ANsTrWOw37AA8QlqjmbieSMH+KoE+LxxlqDcTKT+XxWexrlqz3ZmokP7CKQqWtyUAN+1rlrDJh3XplLR4FA5nY+Ac7Y7B6rYATwJAdYSXEMlQGwlTCTInkomBZgkeNaA+3dH2jM2yNUM4NtWDvBJDfBHCpDrgykV16YwExFeGXwgbgS1bLgSMqJek3mvk7eFkdfBuxLgdGkuQTquTd4HQTxvW6Gn1WgVUhTArpIgJKk9fB/MweZTCXBRBCyb8o0t5lQyaTDe9tpt5Z1/GclUEJCoAPhxEAOsyq3surh4gK+hebBxk+aoA0hOLiKtPIGuitafNUOiVtF37EX5uG2yn+HnzDoyD/Ay006XBGcOSABiFS0WLPfkCJHO7lJ0sZDgy2P9OZ8f+YurGuA6V5gJ2coK/Y27s8kv6Lj0U5QpSe0EPJoCbLwu6UcK8LaZOSz+ySRI7sTl/mnuf3na6M0KoMX6TUP7HibaRSceIB3XJth8iVEZYIajL36Pvs3GN+DeBeAcrX6aSTCh4tpyfjWnO6MvpgKOdgG7wwva/J1RJLgDE3NXTRrXJp4qr9vm2tIszfH2TRBCID++oj/Al63gNF2DBXgU1xbJ7iTK/cWfVQhvOd/KAqrNhKXf2qFdeIF+4VewCSY+lYzfS0xvHEcQnzZJvUavP0CxBB9L70C6+SKXYGOutbKfeSKOLnyczAHytT8GAHgBdic0MuE88js7FnQt4mg5Y+NkwBxyTPcHuFYv/sklSEcmajZfVgKOPpHh77Qyyd9Zpnv3wbeNyeaLuYpKV9UWgtozRxpgFemUfA4swWOk2uE1CKlDcW3SU8namaSwmuwccKFcm2EBfvWMvCZxbQayB8Jiq2s+IPbEF+twV9EfJUCDqE/6VDLN5stKxEgRs60EjyJpu0lwqZGgVkVj+lQyXZzMr4CjGxfSPMluKqYtAF69vioqPZVM8mq8Kb+Ph8N8qHBKQS0LF4C6MhoKgEzkNXOnXLm5gJ2akR9AWdvKx10P0QcvaoBGUZ/KsC9hrNpcxPSGD2leKbbEDCW4VgI0cNUYgKbKfRQw/TnhConPfkVMWwB826glaJGggyWoDyNBrRQvPNNNLdI2pDmW1SI1OzgPHmdgqOQA5lQy/UnKuGgztaqGKzdRMdvLPgC/1EzzABOpipJTycx9IH/FAZzCuhopE5R+cQd4Ypo274N8cgB7Kpk+8yVERdlYpid81L0oa90EIFq0HyhJjj6VzFC5q+qI3MLvIp2wWdgFk6RsCPDK1m7t0QfxsQQkrs0482Ut0D/UdUBXT7KtPUAIzzlq2im9Q1p6ivpmoNxzftnmAZeFoPRkZw9wrpWKdkbPJ+joXw23SLwQMb1hAXYCCk0/Oz1AHZt8khz6ZuEDRV5WnXnELTq98T09mq9W8/pD/ldcrFYrbmuyh6vWSBvHtVkq916kdk2V5vY1zshCQor9i4Bsd0XkIiWLKWmzy9dnRs8BrC1+wM3xtEnK/wTLhqQK+UBJyv3MBHlcTsW12SRI/opKBi81AK2SlPuZCdw0OpUsSu1lHxXNgNhB+p12hrKBss8MRlFFVRjqVDK7JOVgz0iwvjiqAPZK97dy1bj4B+mdsvG3ntH/4wGW9iwfNEnZaUbP53FK7tS2chTM0rFFGyhJ2bEPGkpQn6ScdMKv29GmQEwPkqRskENmUJlJcqdBknJE5op0MB4YvA8auGoKFfVRK+bjb2dVDYehMI7mqzzi1y5J2WLzRQQQP46NazNWUcT0kQdYdkVp3oSbmXBx1Ro50KeS2dyJmJ4Izgt9mgxtJgzMNWcmCC1VvcVm/CVSObDJHosNSXpUuGrD5VLr2ETVW7Qer6Iaid9uidb/XQKFiurLjg1sJhImrs2yD1afcIKWbTDA20ae+SKqEGsiQXuPkpcDfadtPZmwjZW8CBJDxq7MZMKmuBXzejIHDHCxUZsJToLWTpTbUGHfCrds+FRPpCwrpY9nJtg+6KOfXfogoa02KW4bQ1fNPBveaUbPS5COa3OrJ5N4b0/gDq6alZkgbNKnkhm5aqJ6MqkQ4NiumohNVkWTjI5rG7Qy3sCumsmMnmeTiWuzuHOkkkc9Z/Q8m5090v+GsmND90F9XNswAP9jrhoLcNCyY7yrZjKjNxlk7HsSd6eRq1YzPVIfdNp8UZQilsW1jV52bNDNFwGbuGmfPZVsWDPxn3PVmFPJskEB3mFGbz4Wik8lu1+F2LHNRCCNa+sB8I5mQuqqSYKGhgZ4t80XPZvoTlIaIyIRXGlIMktJ7Wq0rFNxH3O0ZLUOJwf6KNGh6giYNie0M0KbCGgBps0ILdt0zDfNs8k0je7McIm+gORO5Qm+IU3wzGOWBXraiJDgVght1NKSx7W0zOMivunEuGmQsWyibzmpFUX2nAOy5xyRizzFd6YsbdTSYpIc70gqaJvHkaZ9g6ad2AzafzsXfuBzFwyJDa2IxKdJBqPl2PT/D2d+TAUdJsuZAAAAAElFTkSuQmCC;" parent="DOYagENMo1T1TxlhpTYe-44" vertex="1">
          <mxGeometry x="20" y="10" width="50" height="50" as="geometry" />
        </mxCell>
        <mxCell id="DOYagENMo1T1TxlhpTYe-43" value="&lt;b&gt;Prometheus&amp;nbsp;&lt;br&gt;Operator&lt;/b&gt;" style="text;html=1;strokeColor=none;fillColor=none;align=center;verticalAlign=middle;whiteSpace=wrap;rounded=0;" parent="DOYagENMo1T1TxlhpTYe-44" vertex="1">
          <mxGeometry x="25" y="70" width="40" height="20" as="geometry" />
        </mxCell>
        <mxCell id="DOYagENMo1T1TxlhpTYe-46" value="" style="group" parent="1" vertex="1" connectable="0">
          <mxGeometry x="487" y="265.5" width="120" height="106.5" as="geometry" />
        </mxCell>
        <mxCell id="DOYagENMo1T1TxlhpTYe-45" value="" style="rounded=1;whiteSpace=wrap;html=1;strokeWidth=1;" parent="DOYagENMo1T1TxlhpTYe-46" vertex="1">
          <mxGeometry width="112.21245558256967" height="106.5" as="geometry" />
        </mxCell>
        <mxCell id="DOYagENMo1T1TxlhpTYe-5" value="" style="shape=image;verticalLabelPosition=bottom;labelBackgroundColor=#ffffff;verticalAlign=top;aspect=fixed;imageAspect=0;image=data:image/png,iVBORw0KGgoAAAANSUhEUgAAALMAAACTCAYAAADFuCjFAAAEGWlDQ1BrQ0dDb2xvclNwYWNlR2VuZXJpY1JHQgAAOI2NVV1oHFUUPrtzZyMkzlNsNIV0qD8NJQ2TVjShtLp/3d02bpZJNtoi6GT27s6Yyc44M7v9oU9FUHwx6psUxL+3gCAo9Q/bPrQvlQol2tQgKD60+INQ6Ium65k7M5lpurHeZe58853vnnvuuWfvBei5qliWkRQBFpquLRcy4nOHj4g9K5CEh6AXBqFXUR0rXalMAjZPC3e1W99Dwntf2dXd/p+tt0YdFSBxH2Kz5qgLiI8B8KdVy3YBevqRHz/qWh72Yui3MUDEL3q44WPXw3M+fo1pZuQs4tOIBVVTaoiXEI/MxfhGDPsxsNZfoE1q66ro5aJim3XdoLFw72H+n23BaIXzbcOnz5mfPoTvYVz7KzUl5+FRxEuqkp9G/Ajia219thzg25abkRE/BpDc3pqvphHvRFys2weqvp+krbWKIX7nhDbzLOItiM8358pTwdirqpPFnMF2xLc1WvLyOwTAibpbmvHHcvttU57y5+XqNZrLe3lE/Pq8eUj2fXKfOe3pfOjzhJYtB/yll5SDFcSDiH+hRkH25+L+sdxKEAMZahrlSX8ukqMOWy/jXW2m6M9LDBc31B9LFuv6gVKg/0Szi3KAr1kGq1GMjU/aLbnq6/lRxc4XfJ98hTargX++DbMJBSiYMIe9Ck1YAxFkKEAG3xbYaKmDDgYyFK0UGYpfoWYXG+fAPPI6tJnNwb7ClP7IyF+D+bjOtCpkhz6CFrIa/I6sFtNl8auFXGMTP34sNwI/JhkgEtmDz14ySfaRcTIBInmKPE32kxyyE2Tv+thKbEVePDfW/byMM1Kmm0XdObS7oGD/MypMXFPXrCwOtoYjyyn7BV29/MZfsVzpLDdRtuIZnbpXzvlf+ev8MvYr/Gqk4H/kV/G3csdazLuyTMPsbFhzd1UabQbjFvDRmcWJxR3zcfHkVw9GfpbJmeev9F08WW8uDkaslwX6avlWGU6NRKz0g/SHtCy9J30o/ca9zX3Kfc19zn3BXQKRO8ud477hLnAfc1/G9mrzGlrfexZ5GLdn6ZZrrEohI2wVHhZywjbhUWEy8icMCGNCUdiBlq3r+xafL549HQ5jH+an+1y+LlYBifuxAvRN/lVVVOlwlCkdVm9NOL5BE4wkQ2SMlDZU97hX86EilU/lUmkQUztTE6mx1EEPh7OmdqBtAvv8HdWpbrJS6tJj3n0CWdM6busNzRV3S9KTYhqvNiqWmuroiKgYhshMjmhTh9ptWhsF7970j/SbMrsPE1suR5z7DMC+P/Hs+y7ijrQAlhyAgccjbhjPygfeBTjzhNqy28EdkUh8C+DU9+z2v/oyeH791OncxHOs5y2AtTc7nb/f73TWPkD/qwBnjX8BoJ98VQNcC+8AAAFZaVRYdFhNTDpjb20uYWRvYmUueG1wAAAAAAA8eDp4bXBtZXRhIHhtbG5zOng9ImFkb2JlOm5zOm1ldGEvIiB4OnhtcHRrPSJYTVAgQ29yZSA1LjQuMCI+CiAgIDxyZGY6UkRGIHhtbG5zOnJkZj0iaHR0cDovL3d3dy53My5vcmcvMTk5OS8wMi8yMi1yZGYtc3ludGF4LW5zIyI+CiAgICAgIDxyZGY6RGVzY3JpcHRpb24gcmRmOmFib3V0PSIiCiAgICAgICAgICAgIHhtbG5zOnRpZmY9Imh0dHA6Ly9ucy5hZG9iZS5jb20vdGlmZi8xLjAvIj4KICAgICAgICAgPHRpZmY6T3JpZW50YXRpb24+MTwvdGlmZjpPcmllbnRhdGlvbj4KICAgICAgPC9yZGY6RGVzY3JpcHRpb24+CiAgIDwvcmRmOlJERj4KPC94OnhtcG1ldGE+CkzCJ1kAABwBSURBVHgB7V0JeFVFlj7Z94UkJCyiIBjaJgr4oRLZhQGBb4DBhW5kFIbBFlFbG1BcUEQbaUBwA23cGYURxAZmEEG0lVFBZFiDI0EILYQQIAnZ15dM/fVSl/uWJO/dd9+7791X5/uSe9+9VaeqTv116tSp5YY0MSJJUgImkECoCcogiyAlwCUgwSyBYBoJSDCbpiplQSSYJQZMIwEJZtNUpSyIBLPEgGkkIMFsmqqUBZFglhgwjQQkmE1TlbIgEswSA6aRgASzaapSFkSCWWLANBKQYDZNVcqCSDBLDJhGAhLMpqlKWRAJZokB00gg3DQl8XFBLEXnyFJ0kSxlxdRYmE/1FwqpsaSI58JSUabkJiw+kULbpVJIRARFd8+kkJSOFJbUjhpT0imCPZOknwQkmN2QpYWBtmbfLqrN/Ylqjh6i+vzT1FjOgGtpoKa6egdOTXU1FBIZzZ+HRIYRhUVSWHQEhXfNpIirulHk1ZkU2fM6iuk32CGufOC+BELktqnWhQYAV+zcROVbN1J93nFqrKjkEQDSkEimWcM06ANLHQO/hf1ZwR6WnkGxtwympEkzKKzjFRSWkNx6puRbpxKQYHYqFqK63Byq2PoxVX77JTWcPd0cig0xXAEv09QuhRNpN2v28HaJFNm3P7W7/W6K6v9P4q28uigBCWY7QVUzM6L043ep6qsd/I3b2pdp3Yhu15ClpIQaLxVrAjUShrZOeeQpprFHSE1tV0ct/ZRgbpaMpfwSlb79EtPGG6ihpIxCYmJaklmLz5uqqyn21pHUfs6fqeDRf2VmyQn3wKzmDO1OjRQzcDilzJhDkZlZ6rfy3okEJJiZUCq3rqOLry+hhjP/oND4BG0AZBo5vHM36rDuS2rKO0b5947VxseuktBAMHhMumsqJd0zi8JSO9iFkD+FBDSMXkTUwL8KbVy6/n0+IAtlLjPtFErJMx7m7rba4gLtbOxi8h6CaemSd1dyD0raY4uklraTkfgZtJMmGOAV/GEiBwlcZlrMCiFEaM+YgcO4fYtn8CXrSmzQiYZWc2AfnXvgDt6T6MrfJMyCEswY5J1f8DDVHfuZg8TTuoSLLabPjcpALaRbTzYI7M78z3WesraJjwZnqaykwmdm06X3X7Z5J38QBR2YAeQL8+7jQPZEG9uDJ+bGIcojzOzFjxyn+KSVF+KGmQ2YPAlNSBRPXL+iF2H+7eLXllDxivmuxwuCkEEF5vLtn3AgQ7vpBmQGTJgAmKJWE1xq3AbnXgn1G9w3UuKU+ykx61pt2puZHcj/pQ/fkYBWiTZowAwb+eKC2aybrmZehkiVCNy4hdngBJzQsvaEmbyY7EEO09xW+3o4JYy+k8pzjrJo2qtAAtpW6tolacvHr38ByIVP3GcFliszePalYQCOuPIq7h6DVnUGaApnay9UhCnphKGjVE+stzARMMNnKS0hCyZVPCTwg4aGezHYyfRghvsNg736U6c8Mi0wo5c0+X5KeXAewwwDtEKNFJKUQtS8oEh5zG6i2QKiiK5dL5sSaBRsYKhMVWvtIdSJwORggC5a8RxhPBDMZHowY1av9shBj4AMgGB1XN3pExR7132UPHCQAlAsGAprl6Z4MtRgCsvoTHFsBk8sTsLKOgwMQTBDNA0A1QmIewZozFpemP8QW5Z6TjwNuqupwYwBX+nGtbq434RdDE9F+IiJCkCBGCznbInisgezWcU4bppAg2JgCIIZEtG5i4NN3RKftp7Dfq4/c5qKV71I9fWOy1Hbim+G96YFMzRUydKnFQ3qaWU1RcRQZBfmO2YUfet4G09FRJeWwRze60a+8AhaOapXb66RRV5iB94qbnW5wntSvmkD1e34RBd+gcbEtGAuXbOS6gvPa/dcqGoSQORutFimYRlBO0f9phfXqtCIUVk3qELb3jZGx1HUtdexsDUU3qET4bcgaGks+3Q6oBSB3LxC+2OdCcYKwUamBDMGQlj9xhcN6VSjTZ2629jFccNGcYDCyyE0trOkAPzYG/rzVwA1fgvCTGF0/6G6mRqcL+xntmCqfOP7IpmguZoSzOWb1vIBkVsL5Fupcmi7mEG2i+Wxn48aKin2xgGEgV5rFJ6axhtWaFqGTTAAO2HCZN4obF54+AONuPTjD/gGAw9ZBVR004EZWrl883rrliYdqgKTHHCnhffOtuHWGB5FocnpDiC3CdT8A2HD4mIoPDXd4TX2/8XdNo6Qjm7EtLPlfCHfKaMbzwBgZDowV2zbaBU7q1C9CNpXbR4IvuGduri0GTUsMYX7onF1RkmT/s1qOzt7qfEZehN4coKJTAVmzPRVf7NdP1uZTXJggBc/dpIDJmAnZ7y42uF5Sw+4L5r5lp0RtHP82Dt1186NbJax9KOVzpI05TNTgbn6x290tZUx0wevBSY47Al2sqtbmbAIKbRdio0nw54fGkxTlfXcDft3Wn9jB3njwe+CxrNhGjDDFVX59+18i5HWyncWD14Lj7f+M5deJDNJWiM0jOQhw3XziyMtvhBp9w9suevh1pI2zTvTgJmqKvlODM0r4pxUaVgcAyE7pMVTQmOIyvxtm2zCB41lng1Lm+HcCYCBZW3OfneiBGxY04C5fNsGfV1czF4OTe/k0gDPldqP7j/M6SBSHRcL/Pkkivqhh/fYDFuxY4uHXAIjumnAXHP0oHUNhE5y59PPbJJDL3JlVzVs6xDm7tNzRhDrpet//QfhZCazkynAjHUY9SdzWV3pW5zom9jqOF8Ss63DknE0l3qJqYcZYC5KeDUa8n7ykJH/R9e39g0qb11eLvMEsDPgdPQtoyjOJjm8XUSs39Dbbkaeq3/GrhZzkynAHNpQy9xPFbrWFDwBLU1y6JqQihkWIYVERame6HdbfzrP9EtDTQHmmhPMxNB5W79Yv6wfnIzjBH9zeNkFCq1hvZeJyRRgtpw/p3vXzDe+GlDxTbW1uqeKqe3KfLYDBaaYiSngwYxdFeqT6vWqK3gzcCq+LwmaM6KWHdqIg8l1JuxhxCZaM1PAg9mblePzyQamOSvyzrAiyWrRUq+mkZre2gz8qr79SotMNcfBhtmGc8wfrLNXRnOGAiyiKcDsDTsT2rHhVK5PF7hX/88X+q6cCzAweppdU4AZ7ixNvlk2Zc29IPzK7tXEtCO271d9v1P91Gv3/HhddrQuBmsOJPLHT1Sqc3gtH1glYAowa6pMBgwcQ4tDvMM7deY7QQBsLMzhuz4YgACsso/f88lUcMWWjy4fX2CTjzrrLhWWx7jhY3l+zeQ21FR3LUTSbztGCwn4++OUR58n/GHtQtXB3WQpOMMO9T5IDfm/8jUNOIui8KmZlLFijedLQVsQRu2eL6j4jeV8bQmms8M7X8V3cmMDLPYNxvbJVvYZ4iwQy/o10q52IsuABzO2M+HDkW4TOxqr7sAebhNjLTEW2yeMuoOz4dv0mWcBAzJ8sLJyN1v0f/RHCvPSF6DKvvhvSrp9MuHAGP7RS7YBFsd92a+jRr4adn7KTKp6tlbZnaprZKcuOZ5U6rbM/DyCOxLx26KEpWv7zgds4ktrXqf0F960KRsHEVuDHNO86zpu7O9t3uv9o/38V1xiiQZV8tXXbh81hvFEXGcmo+ZzP1xKLAADmcJmRleMtRTuEuJUfrnVpx4Ld/OoDl+y8SP1T5fvcQBNQ2L7VrdtuczMjwOaAsxY3RaWEK9JzNBaF5c86ff75HBkLb5NqKXRQjD4tLGzHeaahOankUwBZuyUDkEXCheWmwRw1LLvYMOb4K+EwWnxu695NM3ND63x1wLqlC9TgBmDtwimeTxZ1F60/M9+e75x2bK5/HxpTfsbWQPHgYrh3dreg6gTpgxjYwowQ3rRvfpc9tO6K87m6eOi5Qv87nxjfFVKy6Dvsgga+an/bR0hdjl84N6Z5gut6Ip/ndDfo1M/MVkS3bcfJdx5j1/UaP1Ph/gnHrTaySgEypTy0GOUPPURvyiTNzNhCtccBNSYks7OP+7LjxvQWvlW+/kAs6EPeFPmLvIObfYnu++lUSeAMrV25K46bKDfm8bMwEgdB7Z4TPw7IxCL0X/WQ1w8KQ+0cnL2zezsj+s9YRMwcU2jmSFxfu5E+mr2FSd20LYHyyhxYqc/kKXGs885wL8c2ocducsmgIKBTAVmTEvH3DKUytb/h6bvmAibOeMv7EBEJ1+P8iUgsLm1/PWFhI/Ue+LFiB93ty+zbWhapgIzJBk/+nYOZu5z1qidGxNTDZ9gwMap0HapfGlriIaOAus3kqfcEzRaGXVvGpsZhQEph3ezytRKAb+LmfmWw9IznB7Fq1UmgRDPdGCG0JXDuzXMCAZCpbWVx8aKciaDe10+crctfoHy3pRgFod3o1K1kPqLUFriGxqHNeCIjHRKuH2qodkwInFTghmCTLpnFkVcwc5E1qCdA3lBDmzl1EefDSpbWTQc08wAigKpr1hpdv6Fea676WBrsp0ekVl91WwMuQ+NiqY6dhhkfd4Jl/MPb0z86HGU+vhiCWZDas3LiRavmE8l7650y1UHUPgD8c2tLnpkkGd8dL7T6k/JleNz/aF8eufB1JoZwsJWo7PTxjEN94vmtcB6C113fjClGOg7LXuTory0tUv3PHuBoenBDJnhK1SFT9zHl1FqXbcBzdfu1qEUPel+XasBpyYVv7ZEe0NjQIadnLHwJfL29i5dC+4FZqabNHEmI8wMpj2xmGnoCdZzKVzsuu15VZdUUDv2mTM9CRtmMe2suZHxyZHpQQ9k1IlpvRn2gIO7Ln3Z6ubzMTTsSGFnaGBHip6fU8Chj9j5jSNntRB6i+Qp0/lRCVrimy1O0IAZFYejBDJeeI0t4mf+Z5wO5A4xbY54FTs3uROr1bBNeceo5n93W3uLVkM6vsSnHRIm3EkJDz7j+DJInwQVmFHHGCB1em8TO8UIPmj3AM0/sP7hal22V3Gt/NYiajh/wWXXG8coBnvsL23e84QjCgLZJ653mws6MEOAMDnwqWAAGhrOZWLa2XKpmPj2KuYl8YQq2WeAiz//3C1bGWYFBnvpTy+mpLtneZK8KeMGhTejpZqDdrQus1zDgjQyDRnZUlCb58Kni0ElGoY7xHdar17i3jLVZo8FtnSlPbYo6NZcuCrfoAazEBJmCoteX0w4Vw6mhEsL+5mJgi+4Jk17iOJHTFDOghM87a/wd+NE0fINa9za2oWGg7OiccAjpuiDdULEXp7OfkswN0sF3xIsXbOSKrZu4EfZuuQqYxoTg0Js5Y/JHsR3iMewD8fjvDhQU3EBNRRdpKr9e6jm4I/M3/2z9cObLvQAAsTJAwdR3IwnpTZurqfWLhLMdtKp3reLyjetpYptW7j/1yVN3WwGgBUagThyFtueAEr+HN8pcRHE8DtH9syilGkzKXrw6KBcZ8GF5uY/CeYWBIZZw9KP32KmwS5qvHTRGsoFMPKADNycXJ2caW4M+G52Qt8bKPb2aRTe60YJYqsUXf4vwdyGqADq+uNHqPRv6/gRBOKEfuWEe1cBK9IRQGcDTsELC4TiBg7nO0PCOl4hQSxk5eZVgtkNgcETUcPMENjAtf93hJpqa6iptJgslZUKMFtjBxMkNCGRn5Uc3vlKbmPH3jKCQrr1lP7i1gTn4jsJZhcFZR8M3gmcso9BXl1pKTVeLKQm5upzRiHsTI/w5BT2Le405TBx6ZVwJinPnkkweyY/GduPJBCUM4B+JH+ZFR0lIMGsozAlK2MlIMFsrPxl6jpKQIJZR2FKVsZKQILZWPnL1HWUgASzjsKUrIyVgASzsfKXqesoAQlmHYUpWRkrgaDYnW2siN1PvaysTIkUw6bA5dYoRRyt3kgwtyoe37/E7pdVq96gc+fO8cQnTvwXGjzYvd0svs+1f6ToczAfP36cNm78tMXSx7HdG717X0/Z2dlBqZGghY8dO8b+crmMRo0a2aKs5AtbCfgczKVsUc7OnV+SpXkpZG2t7Q7pqKhI2rx5C40YMZweeGAmJSYm2ubYBL+gfTdv3kwFBeeokq24mzHj3yk1NVUpWUREJEEOYe4uL1U4BOeNz8EMMcdER1N1TQ2/9u7dnaKjoxTpH835ib/bsuW/6OTJPFq9+k3lnVluqtnuk61bP+Pat6qqgsaMGWsDZrOU09flMATMKCQ0c2JSEs2a9QBlZGQo5T548CAtXbKM/87JyaHDh3Po+uuzlPdmuMGgLomVHdqXfYWFYmIuN2YzlM+oMhgGZlHglJQUG1MCg51Dhw7Tp59a7eofftjDwQxb+5133qGamloaOHAADRs2jN56620+UEKDuOaaazjLffv2cTPm0qUSHrZDhw7cZOndu7eNDW7Pb/z48bzr//bb7zifXr16EQZf6P6FnY9BGXqRMWPGOB2UCfPhl19O8HwhbL9+/XhehRnxySefENI4dSqPmxGxseG0cuUqnub8+U87aGiMIdTpi/KArz0VFRUxuf2NTpz4RSk7xh8DBgxQZAxPiXqAOWXK3TyP4GX/Ti1XvEc+vv76Gzp69Ch+clkgHyNHjlT48xcG/TMczM7K3bFjBxK2dH291aaGrf3DD3v5c4AEoN2161uKjY1VWAAoH7y/hoqKi5VnuIGNDht83rzHledqfngIAMK0AUFj7t37IwcFgPvXv77FKvAISyuev0M+nntugQ2gAaSlS5cqeeSM2D+E3bFjJ82dO5s3OKTz9dd/p7S0dBGEpwVzA+ARoMdLmGPff7+b9uzZzcB/iqeP59+xxvDsgmcUEOIZerAVK5YrA0c8A23fvp1GjTpMs2f/iTdmNDj1ABMNVhDeHTmSQ3l5efzRxIkFNkriuQULqaKyQqkbBEL50DidNUTB11dXv5s0gUABVGsXTJSebq30SHa4YHxcPAfvvn37uRBTmVbv0uUK6sr20G3bto2WL3+Z29t4PnjwQBo37p9Z/DQuSwAVmlwQ+GGAhcaQk3OUAwbhb7qJbSRtfo50Fi58gSLZoYm/+93vqWfPTGVQ9t577xMALOj551/gjQtxu3XrxtPOysri4WEuCe0LTXnbbbdRfPzlRoi84hl6KTVhXIGG2LVrN54++CK/ANTq1W9zTYrwyMdTTz7ZDPhYQrooC8IjPyg7BpwgeEswwAQftSLgL9k/9ATinXgPjbxixSs8XfCDjNT80fDRkNX+ccHPl1fDNXOxnRZdu3YdA/N+XglRzJSEeWBPsLcnTpxIQ4YM5fYmBlTr129QGsC9U++hO+64g0fbtWsXPfvsAl5B6CKHDh2iaBvBFzb7448/zs0ZVMicOY+xLjWX5+Hqq69WtCoqdeZMdhALq9CLFy5Sfn4B16RofIcOHeJpgNcCpjVh9gBkc+bM5SBDg4H2HD16NO/2n3nmWR4HPdD06dMd8iTyNnHiBObtmMFBiPgALUB+8uRJKiws5N07TAv0RlAA/frdwPI7l+cL4f/4x4f5c/QOMM1cmYCBfFFGQQUFBXT2bL4ij6VLl3A+KDe0NcKjznJzc216CxHfV9fLOfZVis3pQFiojD89OtsmZWgdEN5PnjzZaSV36tSZ7r//D0rFQKgAFwiaGvavINjg0NynT5/hFQLQCfsaYVAR0EZdu17Jo8AVeN11WRzMeNenz/VKeMQD/1Osyweg8vNP8wZw4MBB3vWi8SEuNCyAj2vPnj151w/bWIQXeRPX6upacetwhZYVALz22p7UvUd3pRHAVEJPBhtW9GRDhgwhKAj8YWCZlJRIFRVVVHD2LH+mHmw7JNbCA2hoAW6YfWjwkBPs5eUrXlJiaeGtRNbhxjAwi7zb22AQHIQyZcpkrsVEOHEFwNDtq+nChQscXHgGL4GofBEGgAIAQefPn+dX+38AhaBoZqsKsljYGXRtEDQwwIQKhz2LP+F6xBXvqqqquE+5DVYOr+GHbo0ArAusIQuwrVr5hk1woRyQj9YajU0kux/oHcePH0fr1v0nb5hT751GvbJ+S92796Cbb+7vN94mQ8EMu3HKlCk2osvM/A3Xkmj5WgiDQ3uC5hXkCjhFWHeuMBegfeFuVKcHHrGxMQzM1Q7P3eHvati09mmsMV8+AFKkjatWFyCUw0MPPUg9eK9wmA8SMfDDAHzt2rXcFLT3fLiaXz3DGQZmaNh27VJ0d+vAdWdP+flnuOZCmmqtax9O628BXvAfMCCb27iw4+0J/mW9CUATPRW0P0CVmZnpNBkoCGhyABt5FdpcBLbv0cRzxEHPBRffiBEjOA+MFz77bCsfoGIAWFr6Ii1bttTGGyPi++pqGJhRwLq6ei4kTwvbo0cPZVYR/lvYq8IuRkVgVhGEyuvbt4+nyTnEhysRBP65ucdZd17t4HcFGNRggaYWpFVjArwAaAb7IivMKJgzu3fvcRiEqU0opCl6LwDamRljD/IPPlhD+/fv59lFY4GtDBcixhmYpcVgFOnv3bvXqWkoyuntq6Fg1qtwAC5sOHR9paVl3A0G/ynsb/iehd148803tai1PMkLvATwbyMdeC0WLVrEJ1aQPgAHXzEmcRYvXqwkA+0IAgA//3w7y3cp767VgFcCt3EzhvnChc8d61pA2dn9+RUggydj5MgR3MMD8MPWhawAWniB0LMgr3ADApj2hMaKhU/I68qVq2jatKk8PAa+GFiCwEv0UPbxffU7YMBcx07GxCCmJYI76uGHH1E8FgAVJh0EkOGjns5cYFpt8ZbSxXNoqQdmzaSXXlrBu28ABa4qsQYFgAZYRI+BPGCGEd0zngOAmPF85ZVXNQ2m4LGB3xcTJCDw2rF9B79H+a32fIxi0sE9uYWliXfw8sCXDkJ+MfiGl0lNmOGDxwgNBo0D4UXZoN1Bo0aN4isd1fF8fR8wYFYLBuaJPQFQr776Mp8YwYwZ3FEAP0A8YOAAvphHmB6Ii8bREsH9BABAE4HUJoJIW1Si4AH/cfv27enDDz+iE2yWD2kDLEi/X78bmE98iM0alEmT7uJ+aOH5AB+Rp8vpC+7WK8wXtXmifosZPgzQsIAJbkrR8OHGhLsQM6DCZocc5j42hzDxAzCjLF2Z+xImBMCKySeUHY0QhMb3JPNvX3nlh/Tdd7u5whD8EW/s2DHcHaqlV1GXwdN7nx/PBRv21Klfeb5hK0IYrgjBPp4amGohAHgIiwEKqHPnjrwy7NOw56fOB1xt6vjqKWZoV+HiAm/1O6QHvtBs6jBI21mPgLwCPAirlkVraYh3AH5mZqYDX2fpI2378ou8iroQZVGXHTaxfb7V75FnaHL7MOBtBPkczEYUUqYZHBLwu7UZwSF2WUpvSECC2RtSlTwNkYAEsyFil4l6QwISzN6QquRpiAQkmA0Ru0zUGxKQYPaGVCVPQyQgwWyI2GWi3pCABLM3pCp5GiIBCWZDxC4T9YYEJJi9IVXJ0xAJSDAbInaZqDckIMHsDalKnoZIQILZELHLRL0hAQlmb0hV8jREAhLMhohdJuoNCUgwe0OqkqchEpBgNkTsMlFvSECC2RtSlTwNkYAEsyFil4l6QwISzN6QquRpiAQkmA0Ru0zUGxKQYPaGVCVPQyQgwWyI2GWi3pCABLM3pCp5GiIBCWZDxC4T9YYEJJi9IVXJ0xAJ/D9Si+kL1KSaXQAAAABJRU5ErkJggg==;" parent="DOYagENMo1T1TxlhpTYe-46" vertex="1">
          <mxGeometry x="5.89" y="12.020000000000001" width="100.44" height="82.47" as="geometry" />
        </mxCell>
        <mxCell id="DOYagENMo1T1TxlhpTYe-48" value="" style="group" parent="1" vertex="1" connectable="0">
          <mxGeometry x="488" y="122" width="110" height="80" as="geometry" />
        </mxCell>
        <mxCell id="DOYagENMo1T1TxlhpTYe-47" value="" style="rounded=1;whiteSpace=wrap;html=1;strokeWidth=1;" parent="DOYagENMo1T1TxlhpTYe-48" vertex="1">
          <mxGeometry width="109.99999999999999" height="80" as="geometry" />
        </mxCell>
        <mxCell id="DOYagENMo1T1TxlhpTYe-6" value="" style="shape=image;verticalLabelPosition=bottom;labelBackgroundColor=#ffffff;verticalAlign=top;aspect=fixed;imageAspect=0;image=data:image/png,iVBORw0KGgoAAAANSUhEUgAAAKwAAACVCAYAAADFRBG9AAAEGWlDQ1BrQ0dDb2xvclNwYWNlR2VuZXJpY1JHQgAAOI2NVV1oHFUUPrtzZyMkzlNsNIV0qD8NJQ2TVjShtLp/3d02bpZJNtoi6GT27s6Yyc44M7v9oU9FUHwx6psUxL+3gCAo9Q/bPrQvlQol2tQgKD60+INQ6Ium65k7M5lpurHeZe58853vnnvuuWfvBei5qliWkRQBFpquLRcy4nOHj4g9K5CEh6AXBqFXUR0rXalMAjZPC3e1W99Dwntf2dXd/p+tt0YdFSBxH2Kz5qgLiI8B8KdVy3YBevqRHz/qWh72Yui3MUDEL3q44WPXw3M+fo1pZuQs4tOIBVVTaoiXEI/MxfhGDPsxsNZfoE1q66ro5aJim3XdoLFw72H+n23BaIXzbcOnz5mfPoTvYVz7KzUl5+FRxEuqkp9G/Ajia219thzg25abkRE/BpDc3pqvphHvRFys2weqvp+krbWKIX7nhDbzLOItiM8358pTwdirqpPFnMF2xLc1WvLyOwTAibpbmvHHcvttU57y5+XqNZrLe3lE/Pq8eUj2fXKfOe3pfOjzhJYtB/yll5SDFcSDiH+hRkH25+L+sdxKEAMZahrlSX8ukqMOWy/jXW2m6M9LDBc31B9LFuv6gVKg/0Szi3KAr1kGq1GMjU/aLbnq6/lRxc4XfJ98hTargX++DbMJBSiYMIe9Ck1YAxFkKEAG3xbYaKmDDgYyFK0UGYpfoWYXG+fAPPI6tJnNwb7ClP7IyF+D+bjOtCpkhz6CFrIa/I6sFtNl8auFXGMTP34sNwI/JhkgEtmDz14ySfaRcTIBInmKPE32kxyyE2Tv+thKbEVePDfW/byMM1Kmm0XdObS7oGD/MypMXFPXrCwOtoYjyyn7BV29/MZfsVzpLDdRtuIZnbpXzvlf+ev8MvYr/Gqk4H/kV/G3csdazLuyTMPsbFhzd1UabQbjFvDRmcWJxR3zcfHkVw9GfpbJmeev9F08WW8uDkaslwX6avlWGU6NRKz0g/SHtCy9J30o/ca9zX3Kfc19zn3BXQKRO8ud477hLnAfc1/G9mrzGlrfexZ5GLdn6ZZrrEohI2wVHhZywjbhUWEy8icMCGNCUdiBlq3r+xafL549HQ5jH+an+1y+LlYBifuxAvRN/lVVVOlwlCkdVm9NOL5BE4wkQ2SMlDZU97hX86EilU/lUmkQUztTE6mx1EEPh7OmdqBtAvv8HdWpbrJS6tJj3n0CWdM6busNzRV3S9KTYhqvNiqWmuroiKgYhshMjmhTh9ptWhsF7970j/SbMrsPE1suR5z7DMC+P/Hs+y7ijrQAlhyAgccjbhjPygfeBTjzhNqy28EdkUh8C+DU9+z2v/oyeH791OncxHOs5y2AtTc7nb/f73TWPkD/qwBnjX8BoJ98VQNcC+8AAAFZaVRYdFhNTDpjb20uYWRvYmUueG1wAAAAAAA8eDp4bXBtZXRhIHhtbG5zOng9ImFkb2JlOm5zOm1ldGEvIiB4OnhtcHRrPSJYTVAgQ29yZSA1LjQuMCI+CiAgIDxyZGY6UkRGIHhtbG5zOnJkZj0iaHR0cDovL3d3dy53My5vcmcvMTk5OS8wMi8yMi1yZGYtc3ludGF4LW5zIyI+CiAgICAgIDxyZGY6RGVzY3JpcHRpb24gcmRmOmFib3V0PSIiCiAgICAgICAgICAgIHhtbG5zOnRpZmY9Imh0dHA6Ly9ucy5hZG9iZS5jb20vdGlmZi8xLjAvIj4KICAgICAgICAgPHRpZmY6T3JpZW50YXRpb24+MTwvdGlmZjpPcmllbnRhdGlvbj4KICAgICAgPC9yZGY6RGVzY3JpcHRpb24+CiAgIDwvcmRmOlJERj4KPC94OnhtcG1ldGE+CkzCJ1kAABuASURBVHgB7V0JmBTF9X8zszt7stwbERUwERAJkERXEENElHiCIMgfP+IFmMQr6uctiWIiYvCIxns1QUWFSAxHUI4QBSHAQqIIalxBQMRww7K77O7szs7//Xq2e6t7ume6Z6d3mJmq71umuurVq9evfv3qVdXrxhPiRDJJDaSIBrwpIqcUU2pA0YAErARCSmlAAjalhksKKwErMZBSGpCATanhksJKwEoMpJQGJGBTariksBKwEgMppQEJ2JQaLimsBKzEQEppQAI2pYZLCisBKzGQUhqQgE2p4ZLCSsBKDKSUBiRgU2q4pLASsBIDKaUBCdiUGi4prASsxEBKaUACNqWGSworASsxkFIakIB1ebiClYepYtpNtPe87lS5ZK7LvaU/e498a9a9QQZYjzx0A9WXvR/uJDuHsi7+GXW47bfudZrmnCVgXRrg4IHddPj+6yj4+UdEDFQt1ddR1mWTJGg1hTjLSJfAmb5sU1e9+LtIsKI1g7dh3stUvegt27wkYbMGpIVt1kXCcgBj9e9v11tWE+4d56wlX8fjTGpkkZUGpIW10kyc5fBbaxe+Hrs1uwaVC2fHppMUOg1k6a7kRYs1cPRf/zB3BYyc2TUIrphLdb1Po6wefYjyC8jXpp2RSrnGQ0CBWqKGIFGWL6OtsnQJTCHivBCgavh0PVXNfNIeYIUuvEVtyde9B3n6nUN5DOCcgecrtYHyzaQ8AGuXUmjvLq1F0fQ3yN+zr3adSRkJ2BaONkBVtWgONX64gBqPVMTPjV0EJbHl9X2vD2WddDLV/fPvREK5Up/huwwSsAaIBffsosDOreRtCAMoUFFBWR2LyVfUgXxdTtCmbWxbwQc9MusFyq1noIpbVwaeji+NIDUw8J14AhW99D5lZ2cbatL/MuN92Pr6egpt+0KZekOffEDB7dtMLSWmbU/bNjxtD6XcnifR0VeeocYDeykXQE0kWIG5GPxCFZWKzJSBbkHGAzawdG54C0o1ThZgUaZ7Bih9tZWqVFBZ0Kqs5G/iNZDxgK3ftyesVTvgs0MTbYzUqd6MpqW8zXimYVnGA9bjph8oANRb5CfPid+l+k7foxwKKFCqIz9lV+6lmiO15N/7VfMCC7USwKaPW8YD1lQrLSlUQcqA8538Xco6ZQDlnjsyvNfKe6jkz43g3q5pj7Vh22dUvWYlhT55n4I7vwkD2AS48J2rS6eR7zfPaYvACKZpWpDxuwR2j1FtjT+Dta5TDyo4exgVXjyuRXulgf+uoZp33qD6DR8qi7sIi8t9ZZcMpcJpr2bUbkHGA7Zmw0qqvOcqW3i0JIJVZUuI0MG2V92Y0JMo7PPWzH2B6pb8Ndy9aHG5X/+1d1O7a261FC3dKjIesNhP3TXuHMolPvqMJzFovLxPW3DfHynv9CHxcLDVBsCtfOKuyFM07r/N43Nc7duWgK1ElPHBL4iWatOvt37BY1f5DBb4qTgqdROsEAdHse2mlipugHb61STn0Zen25U45ekyHrAYwZxhFzsfyCbL2u6xuS3yVZ107PtOV8Vnzfnp5c0PGLsICBLPlPhaCVgA9vSLlGndmxci23+8TdXmrscS6q/aAS+OYwt/PkWxtN6sGkVetAssn0NKVJcdJilMIwHLgwfLlTXiWrZaNv1Ypsv7xXQtqqq1xx9uDHYHss7kqC6WBXu8wc/WKMfLrS1La/eX8YsuVeEIejk06Sz1Muqvt0MDdXi1OdwvKrFJJRZ6wX3bqG5HmIev4RBlfZfDBb1tdAE2Jk11RYrMv7yI6OhupRwAbjd1lo4m3S4kYIURxWvYdU/eyFtUkZv7AhkVPPC640UWQFq3diEFylZQ8KN5FAoUKCw9/mrlF9fI4zfrRz8kT59LqPC8yxTrL/ZtzNetXUaVD0/Situ//K+YbTTiFMzIky5h0GDpFADl+oVSfdZ36k/I36ufvjDGFUBV/cY0Cu1YrwDSU9SePNozEe4rfM3Ht1ze8O//kGfTh1Sxdi7lnDmE/OPYZ7U4Qkawd+2gS6lh7UyFN07L4OKka5I+rDCy9f9eQJTbXigxZGsP8WLnYtvHoQhdrJ71AFVNG0WhPVsU3h72N2MlhYblQJvavzxOlTeVsHVeZtmscOK9Yd5soRu2rLKkS4cKCdimUcQKO7jrm+hjyiDKHTg0Oo1QWz93hgI4y4eAHwDCX7QE4B7aT1VPXEdHF5WaUsKi5o64Tqlr/N/2tN4tkC5BEwSC5e8xePaSJ88UE7waP0DZPxhnexvr6FvT+O3Zh9jydWaejXqmRT3J17mQF1g9KHS4goKH91Ljfl44VX7O/nNHPa1wVfvGzURH9lH++PuE0nA2+/QLqI5f0wEv5YXFCIr0KJCAbRrHht1KWHbUUfX1OTtqvVqJY9TAymcU8Hmym8DKgPedMpjyRkziFw6H6oAftu6fU8PWzVS74Dlr4DKYaxc/S1k9e5D/R+PV7pRff+9BlP29flS/5ZPw27W62vS5kC5B01iGDrE7wKCyTAwWZevJkiBcAb+1bv4Maqw4qKPMG3sX5U9ZrADN+PEMvN4NwOVfPJnaPFNG/qHX69oaL6qevoMQzWVMOedeoIA9eOhrY1XaXEvA8lAqr2h/uUqxiN58Pu0y/GG0fSd0JV/7k2IOfGjrBgp+tYy8bTtofPIum0h5ox6yXOmLTJWTrMlPU+EtjyntURchDz9YgeWPRviq/r7uBd+IMiYzn/GAhaWqmj6c3/v/XAOIcUAAGMpqo3zswlhnvG74aJauyFN8KmVd8mtdmZ0LTPn+S6aayoSHIbB6sfIdBB2vnK6Uc9HduqJ0u8howGLL6egzl1PoILsDMZKvmAFrI9VvXq9RwS2Az2q1h6oRWmTgIuQMn2RaC9DWLrw/oq5gwlTFvYioSJOCjAQsXICjb91I9aubton4zRWK9ec/iRpzw6dTVmMPvtTAf028fCezG9HzQityW+X+ITeE6UzkC1V8Y+rL2mKcokQZCdia2b+hwLp3OEwLU729P29hMKal9DUds6o8s0+7wPYhgxV+sEDzDxllKWfwc96Oy6CUcYAN/Pst9v3edjzEjQd3RSxyYjIpGhCTxA5BzuCRlmTBXaudy2XJ7divyCjAIrqp5m9T4huVUCVpFtSCQxABLdn8hUFOHo6t9QR2WlA6LC7oR57CfIWnsWVw9/a0Pigw3m+WsSCdr+v+OY33sKqtT7Oi3LwCjCj1qMJ+qu+47nzE+6lC2VjBm/iJSiGcgEF2dmGMCZ/hzJCUORa2jj/yBr81zuTxfUuBzStjtvb3P1ejCW5bQrDqiUi+Lua7FN48tvztEtFDavDIGMDWLH7Q3DrZHKdQoC01lK+KSe0vuUajQZvA2ge163gzPl7wUd32eJunVbuMAayvSwnHulaQt7Ax7r/gV2/HXuDw5n3eqNu1vgII2v7w4RaBJrDta/6i4remcnty21CwCntemZEyBrD+ksmU/cMJHORcGffIom3w89g7DP6SuzhApUTpCw9I3cqnFNAq+7Tx9H5ks2WrUC3LtP19y/p0q8i4V2QCZaVUtyzyhMjuwMKiFd60kvdwu0ZtgiCY4IfXU2DFbI3OW1hI3hOu4CAa3u7yFfICcCe/MrOEPLSRcse/xxFcZ2i0YqbqmWEUqtgkFunyeJAKJs4n30nDdeXpeJFxgMUgBr9eSjVv/7Jpmi1kS+jhKTxk+xegyx//bEw8wKLCIteX3csvHVZb0sPy+8+dYXrIEDywnmr+xC8acoomp6/7qZQ/5s2YD5KlEClSkZGAVccmsO7XFFjFg9x4RC2y/ev/yTSCm2E3BXfMpcDHS3Tkvg7dydftjKiWsWb+ZAqWz9O1M7torKqi3POmkP/H8c8eZnyPtbKMBiwGAxYsuGUB1W+ew0EwMV5XEUbP04Ffl7nsDctpXCCNO4uZoHbBlRSq8djj4S2y5a7YY3ZsUmU8YMVhAUAodIQC/3mVGndFBkiLtGq+YPJGd6Zh3jeuLu2vdmP7N3fEm1Ettm1GxyhhxuwS2NE/Fi2+bmM42OQ3dsgVmupZQwnTfSITfN+ad38RF8vg7o/japcqjSRgTUYKq/Vs3pqylWoOclzqL3i1//vYe7Q2GMJFqf/gUtsWXmOZ10GRGVtq6ZykS2AxurBygX/8LAycAj6/rxb8SPFazfOvr1Mfyu73K8VKW7CNWgzQ1296mYgfAl1S+1ALhWtft1PJW3wO+QewRY6x1aY2T+VfCdhoowc/kqd88kZ5OdGkvbegM4N2LP+PhiN4u/V4ayAxf6TAxy9Q494PKLj/MxNukUW+biModzD/9/YcHWb1/9NGtkqPEgnYGOOIhVhg7S3UWL0vBmVktVcJEC8mT6dB5C04gWMOmwJYOFSxsZpfy6neQqHKT6mxTrDekWx0JXgY8kYut34IdNTpd5FR4YXxDJ/vO6dx0Exn/q88+QMVDhOA6KW9FNo9n8wCAJV6/o8UFWDb4Z1VTP6BT2csWKEiueiKAZTg7jWKFYxBZlodC4ix6o1M/Wf+Lq23rIz3a3YtAWumFbEs2+ZHjsU2Ccp7sLhCgmUd/FLci7kwk/T4V7oEMcYx+M23CoUGnhj0Ca8GWIe97uqJWsJldpGhtLCxlMsLpKSBlWVT3ACLKK5YoqdjvQRsjFH1tc+OQeFiNd7f8hS52EHqsZYuQawxKzw5TGH28p+hrTcv/O2txpqvDTVxXHLAC/hhl0KmZg1IwDbrwjzXUExkA6zZ3W/nRdFEZcspHETzX34P6zA1Vm7mOFb2gxuaQxhtAZr79OT3zugtLLMBkQcHZloRy/C2bdmFZAUyAJU6Xmi5KMIRr/F7BsHdf6X6L2IH2GT3/kvGb2OJQ4G8BKxRIybXwR1P8+va/yCPL5f/Z6K+YQoGaSN/2SXeD70Fyx+i+u1PmPQWLkI//kGrLOsztUIC1ubIK5aSP5SRyBT8dhYHjt9kyjK718ty39VEMxKwJkpp1SJ2OYI7XuE3H5Yq/i76zu77DPmOn9CqYqRKZxKwx8pIAbhVvDirPkSNXYbG7WocK7fjlhwSsG5pVvJ1RQPy4MAVtUqmbmlAAtYtzUq+rmhAAtYVtUqmbmlAAtYtzUq+rmhAAtYVtUqmbmlAAtYtzUq+rmggqcEv+MLfmjVr6Isvyqm2tjmy3+fzUo8ePaikpIQ6dsSn0mWSGghrICmA/fLLL+mVV16hxYsX09atW6mKP2RmTIX8aUqA9bLLRtF1102kfv2azvCNhCl0feTIEcJDakzyoTRqxPq6VQ8OMFiPP/4EPfbYY3TgwH5rqUxq7r77brrzzjtT0uLOnTuXVq1aTRs3bqS9e/dQdXU1FRQUKL+41e3bt5vcsSwy1UColVJ5eXnokosvxVt1cf/1798/tH79+laSuOXdVFRUhK68ckLU++UHseUdZRCHVrGwn3yymcaPH0effRb5ZRMGIZ1zzlA67bTTqH37dnTo0GG2vgdowYKF7N+uNn3I3n33Xbrwwpb9l5imjBNYiOl/9OgxtHz5MkuuHTt24nv8F51yyimWNLLCoAG3H05YmT59+kRYGVjLt99+O7R//35TEdBuxYoVIQazri3awVof6+nZZ5/Vyc1qD3Xr1i00aNBg5Z5wH9K6Oh9Fct7EfotAIBC65pprIwYOAwVA2k1sUUO8CFP4bNy4yW6zpNIZH9LJk39u+XAmVdAU69xVwAJosCziX7xWBb4rLHIqJMwAPN1r9w1rajWTpML9HEsyugpYMytzLN28W7Lg4VJnBDys8T6kbsmXynxd24d97733dIss7Ks+8sjDPH7uJSx0li7lz75zwuJt8uRJSh6LvvJyfotVSKg/88yBpvu7GzZsIGxF7dzJn9us5v9SqKANde7cic4+ezCNGTNG4WLsa/ToUZZbbp9u/kzhJ3SvyGfVP+hWrlxJWFzu2bOXaQ9qMvz0p8O1BSe2CefPn6/wQhtRBqN848ZdQUVFRTq+2dl+ys/PU+5r5MiRjoPG0cecOX+h9es3KFt00FX79h2oV69edPnlo7XFJPT50UfhL4P/4AcD6PTTT4e48SW3nrZf/epWbUpkyUJYhLidjJYNLkS0rTQs6sQEFwbTN+S1+jvuuONCL71UGoIvLVpR0V0xymHFy8zyQiYszqzaoBz16oJVpBPvB/JBVrUeMjMotWu1XP2FCyPeg6gXYx7uzSOPTLfkpfJEf1iriOsY4KIlyRWXADc0bNj52g1BcRhEtxMGSRxsEVCqEtVfAFNMTz/9Rx0AVTqrXwyC2BfAria7gMWgiwkAjiazKAvosJATfWVRx/CjRZfMLl+jTKJ8yIMvdjpEWaLlQSsaDbOH1NhHtGtXXIKDBw/Sli3lfB/h1Lv3qcQAUS9NfzG9xJsw1ZmlKpMjX5VuypQpapamT3+U7r33Hu1azPBAmx4dz5z5Z5Esah488Ccmo2y33nobPfXUH0QSLW8mA9qXlr6o0cTKGPvryHvAdXW1EfcGPeAU7uabI9/mhWs1YsQltGPHDtPuzOS02ks3ZWCj0BXA1tTUsSKa/+e/7t27R/WP4K898MCD1LatOfBi3ceMGTM0f8mKlq0RjRo1UqsePHiwkoevbQZWtgp09TVXEWTft28f8XRLjz76qNbeSWbMmLF02238wQ0hBQK1SoAPiuAvm4GVT8kUmVUZ/va3+Y5AKnSnZQGq+++fQuedN4z8/lz2kxdF3P+0aQ/TlVeOj/DJr7pqgilY2SrTWWcNYn84X/FV//znmZaHPpog8Waimd946zA1szzaH6auaAm+k0jvJM+WQvEnwd/oEoAPpm2rgwa4LsbpDfSiLyjKjX1lq6PWaC5BtPsHT+P9wl3BvZglyGzli0ZzCVRdoL0xGd0H0BpdA7ODkGjTO/Qh+tDqPUZrY5TL7Nq1eFg8ya2RCgsLonbz/PPPW1rfsrIynSXANPnaa6/RkCFDTHniKy8zZ/6J2D83rY9WaBalBfqZM1+NaMYPsOnuBQgR2YVINxxnO00IOjKLDMPR8NSpU3XsZs9+S7uGu/bOO/O0a2TYh2dXarquTLzA0fmcOXPEooTkXXEJ8vJyFMWoftP/vg1/FNhK4uLiYsIU7MvyKts3VnQox9YJtnLUBH+ra9cu6qXul62nElOrKxQuXnxR7wNOmjTREqxqM4D2+eefpZ49e6pFLfpdtOjvuva8mrd8wFRCgG7q1Ad5G2uT7ag3rCGirSOGDx/OY9ZJ43f48GG1O94SLKd165r/Z0jwue++e7V6qwwefLhiTnxtK15quSuA7dChAx1//Amav/PVtq2EGFirIA/cmJVVUwVVf7GnJwK2uPg7plYD9MXFnaL6zh9/HN4bVHlPnMhfH7SRcB94GFq6oECQjxhayFOosjdsQwTufxA/NL1YBnthmvn5hYRxiZYwWx04EMkPPrxqfNC+pGSg5Vga+WPdkEjAuuISwAL07dtXkx1RWogFTUR68smndGyiWQ1s+Ofl5enoxQtxtQuwYHFjN5WUnGGX1JIOuymiq4DdFKvZwsgElr5Xr8RYeSNvXNfV1WnFW7Zs1fLIfP/7zWOrqzC56Nr1ROJ1gUlNfEWuABainHGG/jRj1qxZ8UkotAqHHep9KZzuxJswBaZyCgQi315w437wytKxklyTBEeBIiAwjWP7piXpt7/9nW5qwrSMqTHeJC7Ydu/erZueY/EsK1sfiyRmPabotm3ba3Tbtn1FsLp2Eizztm3b7JDGRZOTw/+BWFPC+3Vi2rRps3gZNb9r107NNYxKaLPSNcBiM/+OO+7QiXHzzTcrvqyu0ObFc889F7FXefvtt0b1UWOxHjz4xzoSrL7tJPjjLfVf0Q9cJxEMcFGWLbMO+BZlw8ubmzYlxs0S+ap50SXo3LmzzviUla21PY7YO05kcg2wEBLBJ7CCaoIVO//88wkLJyeptPRluvHGG3VNEKyhBqLoKhxcTJhwpY569uzZMWWDZcO7ZYlK4mEGeOI+4fpES6jHQYu4EIpG39I67IgMGtg8k2E9MmPG4zHZ4lAmkQsudOgqYGFBXnjhBd2NwYoMHTpUOQ6NNTCwZNdeex1df/1kHQ+4GjjdamnCaRe209QE2a6++molokktE3+xH3n99T/X7VKI9fHk8dCJrhN4XHrpSMsHBzq55ZZb6YMP3o+nu7jaYLbEqZ+YAMR77rlHt2gU6+H+XXHFFWJRQvKubGuJkuH1bGyEjx07ViuGZcBx6Ouvv8YWd7gS3qau9nGsu27dWh6QFbR69YcR/g9WnNjct9oi0zqxkcFA3HnXHfT3RQs1auxojB59OYPmUlb4WF61n0iHDx9UQv3wWnqidju0DjkDPVx00UVaEdyNCy64kCZMmEAIJxRlwCyAB8vtJPqw6AsPFg5Mli9vdllwVL1y5Sp+X+//eCYdqIiEbTq4AW++2fJFtuk9mh1/uVFmdVTHQkUcTVqVIfpIPH40ymk8msUxKo4+YyVEaln1abc81tFsLDkSIYOoG+NxK7tmUd96QBggjqXV+8WxqjGZHWWr9HZ/j9mjWb4BXcJRHYJcxClYRxDjAkeB8+bNa1nwr0UfiEzCCZOT42TIww+QBUfnxZCBB9ORDBxbStg/bq0EF2/hwvm6dUmsvnGEDMucsGR8ilrjGtYIARzsu2lPNN9QRB71CPgVrVc0+WBhRJ5qAHG0NmId2lsFt6jysfKVQGdYMLEvMfgZwTMqPX7tWnrIAhn4oda1F3khDxlAB4sn1qFMTZhtYCXVena5YlpYfmA1erSzSpgtMCOI8bZqP+oveGHsYLkR/KOWtzSAu1W+S8DCRiQsYPbs2cNxs1uU0L2DBw+zAx/gbSo/nXxyDyVcrUuXLsrpE0517CQs4t58Mxy0ga+r9O/fj8PoznO09YVdAPhhixcvobVr1ykyFhbmU+/evRU/c8CAAcqrJsa+xFdCjHWQw8l3FKCb7du/VkL/sOcJPZnJALpXX31NUQ3uF7sysIJIqMPrK+o3y7p0OY6ws2KlS9x3aWkpBYONSnscFtxwww1K3uof3CcCiJYsWUpbm07DOnXuxGN3Fgfn/ERbZ2C3YOPGTxQ2CEO0ewxv1m/SAGsmjCyTGoilAVe3tWJ1LuulBpxqQALWqcYkfVI1IAGbVPXLzp1qQALWqcYkfVI1IAGbVPXLzp1qQALWqcYkfVI1IAGbVPXLzp1qQALWqcYkfVI1IAGbVPXLzp1qQALWqcYkfVI1IAGbVPXLzp1qQALWqcYkfVI1IAGbVPXLzp1qQALWqcYkfVI1IAGbVPXLzp1qQALWqcYkfVI1IAGbVPXLzp1qQALWqcYkfVI1IAGbVPXLzp1qQALWqcYkfVI1IAGbVPXLzp1qQALWqcYkfVI1IAGbVPXLzp1qQALWqcYkfVI1IAGbVPXLzp1qQALWqcYkfVI18P8qAWhsc/A8PAAAAABJRU5ErkJggg==;" parent="DOYagENMo1T1TxlhpTYe-48" vertex="1">
          <mxGeometry x="13.465572014394503" y="3.1568421052631574" width="85.06105263157895" height="73.68421052631578" as="geometry" />
        </mxCell>
        <mxCell id="DOYagENMo1T1TxlhpTYe-52" value="node exporter" style="rounded=1;whiteSpace=wrap;html=1;strokeWidth=1;" parent="1" vertex="1">
          <mxGeometry x="812" y="200" width="80" height="30" as="geometry" />
        </mxCell>
        <mxCell id="DOYagENMo1T1TxlhpTYe-55" value="Blackbox" style="rounded=1;whiteSpace=wrap;html=1;strokeWidth=1;" parent="1" vertex="1">
          <mxGeometry x="812" y="260" width="80" height="30" as="geometry" />
        </mxCell>
        <mxCell id="DOYagENMo1T1TxlhpTYe-57" value="cAdvisor" style="rounded=1;whiteSpace=wrap;html=1;strokeWidth=1;" parent="1" vertex="1">
          <mxGeometry x="812" y="230" width="80" height="30" as="geometry" />
        </mxCell>
        <mxCell id="DOYagENMo1T1TxlhpTYe-61" value="" style="rounded=1;whiteSpace=wrap;html=1;strokeWidth=1;" parent="1" vertex="1">
          <mxGeometry x="957" y="100" width="90" height="190" as="geometry" />
        </mxCell>
        <mxCell id="DOYagENMo1T1TxlhpTYe-62" value="环境2" style="text;html=1;strokeColor=none;fillColor=none;align=center;verticalAlign=middle;whiteSpace=wrap;rounded=0;" parent="1" vertex="1">
          <mxGeometry x="957" y="100" width="90" height="20" as="geometry" />
        </mxCell>
        <mxCell id="DOYagENMo1T1TxlhpTYe-64" value="..." style="text;html=1;strokeColor=none;fillColor=none;align=center;verticalAlign=middle;whiteSpace=wrap;rounded=0;" parent="1" vertex="1">
          <mxGeometry x="982" y="192" width="40" height="20" as="geometry" />
        </mxCell>
        <mxCell id="DOYagENMo1T1TxlhpTYe-84" value="" style="rounded=1;whiteSpace=wrap;html=1;strokeWidth=1;dashed=1;" parent="1" vertex="1">
          <mxGeometry x="657" y="340" width="420" height="230" as="geometry" />
        </mxCell>
        <mxCell id="DOYagENMo1T1TxlhpTYe-85" value="" style="rounded=1;whiteSpace=wrap;html=1;strokeWidth=1;" parent="1" vertex="1">
          <mxGeometry x="667" y="380" width="260" height="190" as="geometry" />
        </mxCell>
        <mxCell id="DOYagENMo1T1TxlhpTYe-86" value="" style="rounded=1;whiteSpace=wrap;html=1;strokeWidth=1;" parent="1" vertex="1">
          <mxGeometry x="812" y="410" width="80" height="160" as="geometry" />
        </mxCell>
        <mxCell id="DOYagENMo1T1TxlhpTYe-87" value="" style="rounded=1;whiteSpace=wrap;html=1;strokeWidth=1;" parent="1" vertex="1">
          <mxGeometry x="697" y="410" width="80" height="160" as="geometry" />
        </mxCell>
        <mxCell id="DOYagENMo1T1TxlhpTYe-88" value="node exporter" style="rounded=1;whiteSpace=wrap;html=1;strokeWidth=1;" parent="1" vertex="1">
          <mxGeometry x="697" y="450" width="80" height="30" as="geometry" />
        </mxCell>
        <mxCell id="DOYagENMo1T1TxlhpTYe-89" value="kubelet" style="rounded=1;whiteSpace=wrap;html=1;strokeWidth=1;" parent="1" vertex="1">
          <mxGeometry x="697" y="480" width="80" height="30" as="geometry" />
        </mxCell>
        <mxCell id="DOYagENMo1T1TxlhpTYe-90" value="kube-state" style="rounded=1;whiteSpace=wrap;html=1;strokeWidth=1;" parent="1" vertex="1">
          <mxGeometry x="697" y="510" width="80" height="30" as="geometry" />
        </mxCell>
        <mxCell id="DOYagENMo1T1TxlhpTYe-91" value="2.x容器云" style="text;html=1;strokeColor=none;fillColor=none;align=center;verticalAlign=middle;whiteSpace=wrap;rounded=0;" parent="1" vertex="1">
          <mxGeometry x="717" y="347" width="90" height="20" as="geometry" />
        </mxCell>
        <mxCell id="DOYagENMo1T1TxlhpTYe-92" value="环境1" style="text;html=1;strokeColor=none;fillColor=none;align=center;verticalAlign=middle;whiteSpace=wrap;rounded=0;" parent="1" vertex="1">
          <mxGeometry x="752" y="380" width="90" height="20" as="geometry" />
        </mxCell>
        <mxCell id="DOYagENMo1T1TxlhpTYe-93" value="主机1" style="text;html=1;strokeColor=none;fillColor=none;align=center;verticalAlign=middle;whiteSpace=wrap;rounded=0;" parent="1" vertex="1">
          <mxGeometry x="717" y="407" width="40" height="20" as="geometry" />
        </mxCell>
        <mxCell id="DOYagENMo1T1TxlhpTYe-94" value="主机2" style="text;html=1;strokeColor=none;fillColor=none;align=center;verticalAlign=middle;whiteSpace=wrap;rounded=0;" parent="1" vertex="1">
          <mxGeometry x="832" y="407" width="40" height="20" as="geometry" />
        </mxCell>
        <mxCell id="DOYagENMo1T1TxlhpTYe-95" value="Blackbox" style="rounded=1;whiteSpace=wrap;html=1;strokeWidth=1;" parent="1" vertex="1">
          <mxGeometry x="697" y="540" width="80" height="30" as="geometry" />
        </mxCell>
        <mxCell id="DOYagENMo1T1TxlhpTYe-96" value="node exporter" style="rounded=1;whiteSpace=wrap;html=1;strokeWidth=1;" parent="1" vertex="1">
          <mxGeometry x="812" y="480" width="80" height="30" as="geometry" />
        </mxCell>
        <mxCell id="DOYagENMo1T1TxlhpTYe-97" value="Blackbox" style="rounded=1;whiteSpace=wrap;html=1;strokeWidth=1;" parent="1" vertex="1">
          <mxGeometry x="812" y="540" width="80" height="30" as="geometry" />
        </mxCell>
        <mxCell id="DOYagENMo1T1TxlhpTYe-98" value="kubelet" style="rounded=1;whiteSpace=wrap;html=1;strokeWidth=1;" parent="1" vertex="1">
          <mxGeometry x="812" y="510" width="80" height="30" as="geometry" />
        </mxCell>
        <mxCell id="DOYagENMo1T1TxlhpTYe-99" value="" style="rounded=1;whiteSpace=wrap;html=1;strokeWidth=1;" parent="1" vertex="1">
          <mxGeometry x="957" y="380" width="90" height="190" as="geometry" />
        </mxCell>
        <mxCell id="DOYagENMo1T1TxlhpTYe-100" value="环境2" style="text;html=1;strokeColor=none;fillColor=none;align=center;verticalAlign=middle;whiteSpace=wrap;rounded=0;" parent="1" vertex="1">
          <mxGeometry x="957" y="380" width="90" height="20" as="geometry" />
        </mxCell>
        <mxCell id="DOYagENMo1T1TxlhpTYe-101" value="..." style="text;html=1;strokeColor=none;fillColor=none;align=center;verticalAlign=middle;whiteSpace=wrap;rounded=0;" parent="1" vertex="1">
          <mxGeometry x="982" y="472" width="40" height="20" as="geometry" />
        </mxCell>
        <mxCell id="DOYagENMo1T1TxlhpTYe-102" value="" style="endArrow=classic;html=1;entryX=0;entryY=0.5;entryDx=0;entryDy=0;exitX=1;exitY=0.5;exitDx=0;exitDy=0;" parent="1" source="DOYagENMo1T1TxlhpTYe-45" target="DOYagENMo1T1TxlhpTYe-10" edge="1">
          <mxGeometry width="50" height="50" relative="1" as="geometry">
            <mxPoint x="637" y="360" as="sourcePoint" />
            <mxPoint x="617" y="320" as="targetPoint" />
          </mxGeometry>
        </mxCell>
        <mxCell id="DOYagENMo1T1TxlhpTYe-137" value="scrap" style="edgeLabel;html=1;align=center;verticalAlign=middle;resizable=0;points=[];" parent="DOYagENMo1T1TxlhpTYe-102" vertex="1" connectable="0">
          <mxGeometry x="0.0029" y="4" relative="1" as="geometry">
            <mxPoint as="offset" />
          </mxGeometry>
        </mxCell>
        <mxCell id="DOYagENMo1T1TxlhpTYe-103" value="" style="endArrow=classic;html=1;entryX=0;entryY=0.5;entryDx=0;entryDy=0;exitX=1;exitY=0.5;exitDx=0;exitDy=0;" parent="1" source="DOYagENMo1T1TxlhpTYe-45" target="DOYagENMo1T1TxlhpTYe-12" edge="1">
          <mxGeometry width="50" height="50" relative="1" as="geometry">
            <mxPoint x="597" y="320" as="sourcePoint" />
            <mxPoint x="707" y="182" as="targetPoint" />
          </mxGeometry>
        </mxCell>
        <mxCell id="DOYagENMo1T1TxlhpTYe-104" value="" style="endArrow=classic;html=1;entryX=0;entryY=0.5;entryDx=0;entryDy=0;exitX=1;exitY=0.5;exitDx=0;exitDy=0;" parent="1" source="DOYagENMo1T1TxlhpTYe-45" target="DOYagENMo1T1TxlhpTYe-13" edge="1">
          <mxGeometry width="50" height="50" relative="1" as="geometry">
            <mxPoint x="619.2124555825696" y="338.75" as="sourcePoint" />
            <mxPoint x="717" y="192" as="targetPoint" />
          </mxGeometry>
        </mxCell>
        <mxCell id="DOYagENMo1T1TxlhpTYe-105" value="" style="endArrow=classic;html=1;entryX=0;entryY=0.5;entryDx=0;entryDy=0;exitX=1;exitY=0.5;exitDx=0;exitDy=0;" parent="1" source="DOYagENMo1T1TxlhpTYe-45" target="DOYagENMo1T1TxlhpTYe-34" edge="1">
          <mxGeometry width="50" height="50" relative="1" as="geometry">
            <mxPoint x="629.2124555825696" y="348.75" as="sourcePoint" />
            <mxPoint x="727" y="202" as="targetPoint" />
          </mxGeometry>
        </mxCell>
        <mxCell id="DOYagENMo1T1TxlhpTYe-106" value="" style="endArrow=classic;html=1;entryX=0;entryY=0.5;entryDx=0;entryDy=0;exitX=1;exitY=0.5;exitDx=0;exitDy=0;" parent="1" target="DOYagENMo1T1TxlhpTYe-88" edge="1">
          <mxGeometry width="50" height="50" relative="1" as="geometry">
            <mxPoint x="599.2124555825696" y="318.38" as="sourcePoint" />
            <mxPoint x="697" y="171.63" as="targetPoint" />
          </mxGeometry>
        </mxCell>
        <mxCell id="DOYagENMo1T1TxlhpTYe-107" value="" style="endArrow=classic;html=1;entryX=0;entryY=0.5;entryDx=0;entryDy=0;exitX=1;exitY=0.5;exitDx=0;exitDy=0;" parent="1" source="DOYagENMo1T1TxlhpTYe-45" target="DOYagENMo1T1TxlhpTYe-89" edge="1">
          <mxGeometry width="50" height="50" relative="1" as="geometry">
            <mxPoint x="597" y="320" as="sourcePoint" />
            <mxPoint x="747" y="222" as="targetPoint" />
          </mxGeometry>
        </mxCell>
        <mxCell id="DOYagENMo1T1TxlhpTYe-109" value="" style="endArrow=classic;html=1;entryX=0;entryY=0.5;entryDx=0;entryDy=0;exitX=1;exitY=0.5;exitDx=0;exitDy=0;" parent="1" source="DOYagENMo1T1TxlhpTYe-45" target="DOYagENMo1T1TxlhpTYe-95" edge="1">
          <mxGeometry width="50" height="50" relative="1" as="geometry">
            <mxPoint x="669.2124555825696" y="388.75" as="sourcePoint" />
            <mxPoint x="767" y="242" as="targetPoint" />
          </mxGeometry>
        </mxCell>
        <mxCell id="DOYagENMo1T1TxlhpTYe-138" value="scrap" style="edgeLabel;html=1;align=center;verticalAlign=middle;resizable=0;points=[];" parent="DOYagENMo1T1TxlhpTYe-109" vertex="1" connectable="0">
          <mxGeometry x="-0.0607" y="-3" relative="1" as="geometry">
            <mxPoint as="offset" />
          </mxGeometry>
        </mxCell>
        <mxCell id="DOYagENMo1T1TxlhpTYe-112" value="" style="group" parent="1" vertex="1" connectable="0">
          <mxGeometry x="487" y="730" width="120" height="106.5" as="geometry" />
        </mxCell>
        <mxCell id="DOYagENMo1T1TxlhpTYe-113" value="" style="rounded=1;whiteSpace=wrap;html=1;strokeWidth=1;" parent="DOYagENMo1T1TxlhpTYe-112" vertex="1">
          <mxGeometry width="112.21245558256967" height="106.5" as="geometry" />
        </mxCell>
        <mxCell id="DOYagENMo1T1TxlhpTYe-114" value="" style="shape=image;verticalLabelPosition=bottom;labelBackgroundColor=#ffffff;verticalAlign=top;aspect=fixed;imageAspect=0;image=data:image/png,iVBORw0KGgoAAAANSUhEUgAAALMAAACTCAYAAADFuCjFAAAEGWlDQ1BrQ0dDb2xvclNwYWNlR2VuZXJpY1JHQgAAOI2NVV1oHFUUPrtzZyMkzlNsNIV0qD8NJQ2TVjShtLp/3d02bpZJNtoi6GT27s6Yyc44M7v9oU9FUHwx6psUxL+3gCAo9Q/bPrQvlQol2tQgKD60+INQ6Ium65k7M5lpurHeZe58853vnnvuuWfvBei5qliWkRQBFpquLRcy4nOHj4g9K5CEh6AXBqFXUR0rXalMAjZPC3e1W99Dwntf2dXd/p+tt0YdFSBxH2Kz5qgLiI8B8KdVy3YBevqRHz/qWh72Yui3MUDEL3q44WPXw3M+fo1pZuQs4tOIBVVTaoiXEI/MxfhGDPsxsNZfoE1q66ro5aJim3XdoLFw72H+n23BaIXzbcOnz5mfPoTvYVz7KzUl5+FRxEuqkp9G/Ajia219thzg25abkRE/BpDc3pqvphHvRFys2weqvp+krbWKIX7nhDbzLOItiM8358pTwdirqpPFnMF2xLc1WvLyOwTAibpbmvHHcvttU57y5+XqNZrLe3lE/Pq8eUj2fXKfOe3pfOjzhJYtB/yll5SDFcSDiH+hRkH25+L+sdxKEAMZahrlSX8ukqMOWy/jXW2m6M9LDBc31B9LFuv6gVKg/0Szi3KAr1kGq1GMjU/aLbnq6/lRxc4XfJ98hTargX++DbMJBSiYMIe9Ck1YAxFkKEAG3xbYaKmDDgYyFK0UGYpfoWYXG+fAPPI6tJnNwb7ClP7IyF+D+bjOtCpkhz6CFrIa/I6sFtNl8auFXGMTP34sNwI/JhkgEtmDz14ySfaRcTIBInmKPE32kxyyE2Tv+thKbEVePDfW/byMM1Kmm0XdObS7oGD/MypMXFPXrCwOtoYjyyn7BV29/MZfsVzpLDdRtuIZnbpXzvlf+ev8MvYr/Gqk4H/kV/G3csdazLuyTMPsbFhzd1UabQbjFvDRmcWJxR3zcfHkVw9GfpbJmeev9F08WW8uDkaslwX6avlWGU6NRKz0g/SHtCy9J30o/ca9zX3Kfc19zn3BXQKRO8ud477hLnAfc1/G9mrzGlrfexZ5GLdn6ZZrrEohI2wVHhZywjbhUWEy8icMCGNCUdiBlq3r+xafL549HQ5jH+an+1y+LlYBifuxAvRN/lVVVOlwlCkdVm9NOL5BE4wkQ2SMlDZU97hX86EilU/lUmkQUztTE6mx1EEPh7OmdqBtAvv8HdWpbrJS6tJj3n0CWdM6busNzRV3S9KTYhqvNiqWmuroiKgYhshMjmhTh9ptWhsF7970j/SbMrsPE1suR5z7DMC+P/Hs+y7ijrQAlhyAgccjbhjPygfeBTjzhNqy28EdkUh8C+DU9+z2v/oyeH791OncxHOs5y2AtTc7nb/f73TWPkD/qwBnjX8BoJ98VQNcC+8AAAFZaVRYdFhNTDpjb20uYWRvYmUueG1wAAAAAAA8eDp4bXBtZXRhIHhtbG5zOng9ImFkb2JlOm5zOm1ldGEvIiB4OnhtcHRrPSJYTVAgQ29yZSA1LjQuMCI+CiAgIDxyZGY6UkRGIHhtbG5zOnJkZj0iaHR0cDovL3d3dy53My5vcmcvMTk5OS8wMi8yMi1yZGYtc3ludGF4LW5zIyI+CiAgICAgIDxyZGY6RGVzY3JpcHRpb24gcmRmOmFib3V0PSIiCiAgICAgICAgICAgIHhtbG5zOnRpZmY9Imh0dHA6Ly9ucy5hZG9iZS5jb20vdGlmZi8xLjAvIj4KICAgICAgICAgPHRpZmY6T3JpZW50YXRpb24+MTwvdGlmZjpPcmllbnRhdGlvbj4KICAgICAgPC9yZGY6RGVzY3JpcHRpb24+CiAgIDwvcmRmOlJERj4KPC94OnhtcG1ldGE+CkzCJ1kAABwBSURBVHgB7V0JeFVFlj7Z94UkJCyiIBjaJgr4oRLZhQGBb4DBhW5kFIbBFlFbG1BcUEQbaUBwA23cGYURxAZmEEG0lVFBZFiDI0EILYQQIAnZ15dM/fVSl/uWJO/dd9+7791X5/uSe9+9VaeqTv116tSp5YY0MSJJUgImkECoCcogiyAlwCUgwSyBYBoJSDCbpiplQSSYJQZMIwEJZtNUpSyIBLPEgGkkIMFsmqqUBZFglhgwjQQkmE1TlbIgEswSA6aRgASzaapSFkSCWWLANBKQYDZNVcqCSDBLDJhGAhLMpqlKWRAJZokB00gg3DQl8XFBLEXnyFJ0kSxlxdRYmE/1FwqpsaSI58JSUabkJiw+kULbpVJIRARFd8+kkJSOFJbUjhpT0imCPZOknwQkmN2QpYWBtmbfLqrN/Ylqjh6i+vzT1FjOgGtpoKa6egdOTXU1FBIZzZ+HRIYRhUVSWHQEhXfNpIirulHk1ZkU2fM6iuk32CGufOC+BELktqnWhQYAV+zcROVbN1J93nFqrKjkEQDSkEimWcM06ANLHQO/hf1ZwR6WnkGxtwympEkzKKzjFRSWkNx6puRbpxKQYHYqFqK63Byq2PoxVX77JTWcPd0cig0xXAEv09QuhRNpN2v28HaJFNm3P7W7/W6K6v9P4q28uigBCWY7QVUzM6L043ep6qsd/I3b2pdp3Yhu15ClpIQaLxVrAjUShrZOeeQpprFHSE1tV0ct/ZRgbpaMpfwSlb79EtPGG6ihpIxCYmJaklmLz5uqqyn21pHUfs6fqeDRf2VmyQn3wKzmDO1OjRQzcDilzJhDkZlZ6rfy3okEJJiZUCq3rqOLry+hhjP/oND4BG0AZBo5vHM36rDuS2rKO0b5947VxseuktBAMHhMumsqJd0zi8JSO9iFkD+FBDSMXkTUwL8KbVy6/n0+IAtlLjPtFErJMx7m7rba4gLtbOxi8h6CaemSd1dyD0raY4uklraTkfgZtJMmGOAV/GEiBwlcZlrMCiFEaM+YgcO4fYtn8CXrSmzQiYZWc2AfnXvgDt6T6MrfJMyCEswY5J1f8DDVHfuZg8TTuoSLLabPjcpALaRbTzYI7M78z3WesraJjwZnqaykwmdm06X3X7Z5J38QBR2YAeQL8+7jQPZEG9uDJ+bGIcojzOzFjxyn+KSVF+KGmQ2YPAlNSBRPXL+iF2H+7eLXllDxivmuxwuCkEEF5vLtn3AgQ7vpBmQGTJgAmKJWE1xq3AbnXgn1G9w3UuKU+ykx61pt2puZHcj/pQ/fkYBWiTZowAwb+eKC2aybrmZehkiVCNy4hdngBJzQsvaEmbyY7EEO09xW+3o4JYy+k8pzjrJo2qtAAtpW6tolacvHr38ByIVP3GcFliszePalYQCOuPIq7h6DVnUGaApnay9UhCnphKGjVE+stzARMMNnKS0hCyZVPCTwg4aGezHYyfRghvsNg736U6c8Mi0wo5c0+X5KeXAewwwDtEKNFJKUQtS8oEh5zG6i2QKiiK5dL5sSaBRsYKhMVWvtIdSJwORggC5a8RxhPBDMZHowY1av9shBj4AMgGB1XN3pExR7132UPHCQAlAsGAprl6Z4MtRgCsvoTHFsBk8sTsLKOgwMQTBDNA0A1QmIewZozFpemP8QW5Z6TjwNuqupwYwBX+nGtbq434RdDE9F+IiJCkCBGCznbInisgezWcU4bppAg2JgCIIZEtG5i4NN3RKftp7Dfq4/c5qKV71I9fWOy1Hbim+G96YFMzRUydKnFQ3qaWU1RcRQZBfmO2YUfet4G09FRJeWwRze60a+8AhaOapXb66RRV5iB94qbnW5wntSvmkD1e34RBd+gcbEtGAuXbOS6gvPa/dcqGoSQORutFimYRlBO0f9phfXqtCIUVk3qELb3jZGx1HUtdexsDUU3qET4bcgaGks+3Q6oBSB3LxC+2OdCcYKwUamBDMGQlj9xhcN6VSjTZ2629jFccNGcYDCyyE0trOkAPzYG/rzVwA1fgvCTGF0/6G6mRqcL+xntmCqfOP7IpmguZoSzOWb1vIBkVsL5Fupcmi7mEG2i+Wxn48aKin2xgGEgV5rFJ6axhtWaFqGTTAAO2HCZN4obF54+AONuPTjD/gGAw9ZBVR004EZWrl883rrliYdqgKTHHCnhffOtuHWGB5FocnpDiC3CdT8A2HD4mIoPDXd4TX2/8XdNo6Qjm7EtLPlfCHfKaMbzwBgZDowV2zbaBU7q1C9CNpXbR4IvuGduri0GTUsMYX7onF1RkmT/s1qOzt7qfEZehN4coKJTAVmzPRVf7NdP1uZTXJggBc/dpIDJmAnZ7y42uF5Sw+4L5r5lp0RtHP82Dt1186NbJax9KOVzpI05TNTgbn6x290tZUx0wevBSY47Al2sqtbmbAIKbRdio0nw54fGkxTlfXcDft3Wn9jB3njwe+CxrNhGjDDFVX59+18i5HWyncWD14Lj7f+M5deJDNJWiM0jOQhw3XziyMtvhBp9w9suevh1pI2zTvTgJmqKvlODM0r4pxUaVgcAyE7pMVTQmOIyvxtm2zCB41lng1Lm+HcCYCBZW3OfneiBGxY04C5fNsGfV1czF4OTe/k0gDPldqP7j/M6SBSHRcL/Pkkivqhh/fYDFuxY4uHXAIjumnAXHP0oHUNhE5y59PPbJJDL3JlVzVs6xDm7tNzRhDrpet//QfhZCazkynAjHUY9SdzWV3pW5zom9jqOF8Ss63DknE0l3qJqYcZYC5KeDUa8n7ykJH/R9e39g0qb11eLvMEsDPgdPQtoyjOJjm8XUSs39Dbbkaeq3/GrhZzkynAHNpQy9xPFbrWFDwBLU1y6JqQihkWIYVERame6HdbfzrP9EtDTQHmmhPMxNB5W79Yv6wfnIzjBH9zeNkFCq1hvZeJyRRgtpw/p3vXzDe+GlDxTbW1uqeKqe3KfLYDBaaYiSngwYxdFeqT6vWqK3gzcCq+LwmaM6KWHdqIg8l1JuxhxCZaM1PAg9mblePzyQamOSvyzrAiyWrRUq+mkZre2gz8qr79SotMNcfBhtmGc8wfrLNXRnOGAiyiKcDsDTsT2rHhVK5PF7hX/88X+q6cCzAweppdU4AZ7ixNvlk2Zc29IPzK7tXEtCO271d9v1P91Gv3/HhddrQuBmsOJPLHT1Sqc3gtH1glYAowa6pMBgwcQ4tDvMM7deY7QQBsLMzhuz4YgACsso/f88lUcMWWjy4fX2CTjzrrLhWWx7jhY3l+zeQ21FR3LUTSbztGCwn4++OUR58n/GHtQtXB3WQpOMMO9T5IDfm/8jUNOIui8KmZlLFijedLQVsQRu2eL6j4jeV8bQmms8M7X8V3cmMDLPYNxvbJVvYZ4iwQy/o10q52IsuABzO2M+HDkW4TOxqr7sAebhNjLTEW2yeMuoOz4dv0mWcBAzJ8sLJyN1v0f/RHCvPSF6DKvvhvSrp9MuHAGP7RS7YBFsd92a+jRr4adn7KTKp6tlbZnaprZKcuOZ5U6rbM/DyCOxLx26KEpWv7zgds4ktrXqf0F960KRsHEVuDHNO86zpu7O9t3uv9o/38V1xiiQZV8tXXbh81hvFEXGcmo+ZzP1xKLAADmcJmRleMtRTuEuJUfrnVpx4Ld/OoDl+y8SP1T5fvcQBNQ2L7VrdtuczMjwOaAsxY3RaWEK9JzNBaF5c86ff75HBkLb5NqKXRQjD4tLGzHeaahOankUwBZuyUDkEXCheWmwRw1LLvYMOb4K+EwWnxu695NM3ND63x1wLqlC9TgBmDtwimeTxZ1F60/M9+e75x2bK5/HxpTfsbWQPHgYrh3dreg6gTpgxjYwowQ3rRvfpc9tO6K87m6eOi5Qv87nxjfFVKy6Dvsgga+an/bR0hdjl84N6Z5gut6Ip/ndDfo1M/MVkS3bcfJdx5j1/UaP1Ph/gnHrTaySgEypTy0GOUPPURvyiTNzNhCtccBNSYks7OP+7LjxvQWvlW+/kAs6EPeFPmLvIObfYnu++lUSeAMrV25K46bKDfm8bMwEgdB7Z4TPw7IxCL0X/WQ1w8KQ+0cnL2zezsj+s9YRMwcU2jmSFxfu5E+mr2FSd20LYHyyhxYqc/kKXGs885wL8c2ocducsmgIKBTAVmTEvH3DKUytb/h6bvmAibOeMv7EBEJ1+P8iUgsLm1/PWFhI/Ue+LFiB93ty+zbWhapgIzJBk/+nYOZu5z1qidGxNTDZ9gwMap0HapfGlriIaOAus3kqfcEzRaGXVvGpsZhQEph3ezytRKAb+LmfmWw9IznB7Fq1UmgRDPdGCG0JXDuzXMCAZCpbWVx8aKciaDe10+crctfoHy3pRgFod3o1K1kPqLUFriGxqHNeCIjHRKuH2qodkwInFTghmCTLpnFkVcwc5E1qCdA3lBDmzl1EefDSpbWTQc08wAigKpr1hpdv6Fea676WBrsp0ekVl91WwMuQ+NiqY6dhhkfd4Jl/MPb0z86HGU+vhiCWZDas3LiRavmE8l7650y1UHUPgD8c2tLnpkkGd8dL7T6k/JleNz/aF8eufB1JoZwsJWo7PTxjEN94vmtcB6C113fjClGOg7LXuTory0tUv3PHuBoenBDJnhK1SFT9zHl1FqXbcBzdfu1qEUPel+XasBpyYVv7ZEe0NjQIadnLHwJfL29i5dC+4FZqabNHEmI8wMpj2xmGnoCdZzKVzsuu15VZdUUDv2mTM9CRtmMe2suZHxyZHpQQ9k1IlpvRn2gIO7Ln3Z6ubzMTTsSGFnaGBHip6fU8Chj9j5jSNntRB6i+Qp0/lRCVrimy1O0IAZFYejBDJeeI0t4mf+Z5wO5A4xbY54FTs3uROr1bBNeceo5n93W3uLVkM6vsSnHRIm3EkJDz7j+DJInwQVmFHHGCB1em8TO8UIPmj3AM0/sP7hal22V3Gt/NYiajh/wWXXG8coBnvsL23e84QjCgLZJ653mws6MEOAMDnwqWAAGhrOZWLa2XKpmPj2KuYl8YQq2WeAiz//3C1bGWYFBnvpTy+mpLtneZK8KeMGhTejpZqDdrQus1zDgjQyDRnZUlCb58Kni0ElGoY7xHdar17i3jLVZo8FtnSlPbYo6NZcuCrfoAazEBJmCoteX0w4Vw6mhEsL+5mJgi+4Jk17iOJHTFDOghM87a/wd+NE0fINa9za2oWGg7OiccAjpuiDdULEXp7OfkswN0sF3xIsXbOSKrZu4EfZuuQqYxoTg0Js5Y/JHsR3iMewD8fjvDhQU3EBNRRdpKr9e6jm4I/M3/2z9cObLvQAAsTJAwdR3IwnpTZurqfWLhLMdtKp3reLyjetpYptW7j/1yVN3WwGgBUagThyFtueAEr+HN8pcRHE8DtH9syilGkzKXrw6KBcZ8GF5uY/CeYWBIZZw9KP32KmwS5qvHTRGsoFMPKADNycXJ2caW4M+G52Qt8bKPb2aRTe60YJYqsUXf4vwdyGqADq+uNHqPRv6/gRBOKEfuWEe1cBK9IRQGcDTsELC4TiBg7nO0PCOl4hQSxk5eZVgtkNgcETUcPMENjAtf93hJpqa6iptJgslZUKMFtjBxMkNCGRn5Uc3vlKbmPH3jKCQrr1lP7i1gTn4jsJZhcFZR8M3gmcso9BXl1pKTVeLKQm5upzRiHsTI/w5BT2Le405TBx6ZVwJinPnkkweyY/GduPJBCUM4B+JH+ZFR0lIMGsozAlK2MlIMFsrPxl6jpKQIJZR2FKVsZKQILZWPnL1HWUgASzjsKUrIyVgASzsfKXqesoAQlmHYUpWRkrgaDYnW2siN1PvaysTIkUw6bA5dYoRRyt3kgwtyoe37/E7pdVq96gc+fO8cQnTvwXGjzYvd0svs+1f6ToczAfP36cNm78tMXSx7HdG717X0/Z2dlBqZGghY8dO8b+crmMRo0a2aKs5AtbCfgczKVsUc7OnV+SpXkpZG2t7Q7pqKhI2rx5C40YMZweeGAmJSYm2ubYBL+gfTdv3kwFBeeokq24mzHj3yk1NVUpWUREJEEOYe4uL1U4BOeNz8EMMcdER1N1TQ2/9u7dnaKjoxTpH835ib/bsuW/6OTJPFq9+k3lnVluqtnuk61bP+Pat6qqgsaMGWsDZrOU09flMATMKCQ0c2JSEs2a9QBlZGQo5T548CAtXbKM/87JyaHDh3Po+uuzlPdmuMGgLomVHdqXfYWFYmIuN2YzlM+oMhgGZlHglJQUG1MCg51Dhw7Tp59a7eofftjDwQxb+5133qGamloaOHAADRs2jN56620+UEKDuOaaazjLffv2cTPm0qUSHrZDhw7cZOndu7eNDW7Pb/z48bzr//bb7zifXr16EQZf6P6FnY9BGXqRMWPGOB2UCfPhl19O8HwhbL9+/XhehRnxySefENI4dSqPmxGxseG0cuUqnub8+U87aGiMIdTpi/KArz0VFRUxuf2NTpz4RSk7xh8DBgxQZAxPiXqAOWXK3TyP4GX/Ti1XvEc+vv76Gzp69Ch+clkgHyNHjlT48xcG/TMczM7K3bFjBxK2dH291aaGrf3DD3v5c4AEoN2161uKjY1VWAAoH7y/hoqKi5VnuIGNDht83rzHledqfngIAMK0AUFj7t37IwcFgPvXv77FKvAISyuev0M+nntugQ2gAaSlS5cqeeSM2D+E3bFjJ82dO5s3OKTz9dd/p7S0dBGEpwVzA+ARoMdLmGPff7+b9uzZzcB/iqeP59+xxvDsgmcUEOIZerAVK5YrA0c8A23fvp1GjTpMs2f/iTdmNDj1ABMNVhDeHTmSQ3l5efzRxIkFNkriuQULqaKyQqkbBEL50DidNUTB11dXv5s0gUABVGsXTJSebq30SHa4YHxcPAfvvn37uRBTmVbv0uUK6sr20G3bto2WL3+Z29t4PnjwQBo37p9Z/DQuSwAVmlwQ+GGAhcaQk3OUAwbhb7qJbSRtfo50Fi58gSLZoYm/+93vqWfPTGVQ9t577xMALOj551/gjQtxu3XrxtPOysri4WEuCe0LTXnbbbdRfPzlRoi84hl6KTVhXIGG2LVrN54++CK/ANTq1W9zTYrwyMdTTz7ZDPhYQrooC8IjPyg7BpwgeEswwAQftSLgL9k/9ATinXgPjbxixSs8XfCDjNT80fDRkNX+ccHPl1fDNXOxnRZdu3YdA/N+XglRzJSEeWBPsLcnTpxIQ4YM5fYmBlTr129QGsC9U++hO+64g0fbtWsXPfvsAl5B6CKHDh2iaBvBFzb7448/zs0ZVMicOY+xLjWX5+Hqq69WtCoqdeZMdhALq9CLFy5Sfn4B16RofIcOHeJpgNcCpjVh9gBkc+bM5SBDg4H2HD16NO/2n3nmWR4HPdD06dMd8iTyNnHiBObtmMFBiPgALUB+8uRJKiws5N07TAv0RlAA/frdwPI7l+cL4f/4x4f5c/QOMM1cmYCBfFFGQQUFBXT2bL4ij6VLl3A+KDe0NcKjznJzc216CxHfV9fLOfZVis3pQFiojD89OtsmZWgdEN5PnjzZaSV36tSZ7r//D0rFQKgAFwiaGvavINjg0NynT5/hFQLQCfsaYVAR0EZdu17Jo8AVeN11WRzMeNenz/VKeMQD/1Osyweg8vNP8wZw4MBB3vWi8SEuNCyAj2vPnj151w/bWIQXeRPX6upacetwhZYVALz22p7UvUd3pRHAVEJPBhtW9GRDhgwhKAj8YWCZlJRIFRVVVHD2LH+mHmw7JNbCA2hoAW6YfWjwkBPs5eUrXlJiaeGtRNbhxjAwi7zb22AQHIQyZcpkrsVEOHEFwNDtq+nChQscXHgGL4GofBEGgAIAQefPn+dX+38AhaBoZqsKsljYGXRtEDQwwIQKhz2LP+F6xBXvqqqquE+5DVYOr+GHbo0ArAusIQuwrVr5hk1woRyQj9YajU0kux/oHcePH0fr1v0nb5hT751GvbJ+S92796Cbb+7vN94mQ8EMu3HKlCk2osvM/A3Xkmj5WgiDQ3uC5hXkCjhFWHeuMBegfeFuVKcHHrGxMQzM1Q7P3eHvati09mmsMV8+AFKkjatWFyCUw0MPPUg9eK9wmA8SMfDDAHzt2rXcFLT3fLiaXz3DGQZmaNh27VJ0d+vAdWdP+flnuOZCmmqtax9O628BXvAfMCCb27iw4+0J/mW9CUATPRW0P0CVmZnpNBkoCGhyABt5FdpcBLbv0cRzxEHPBRffiBEjOA+MFz77bCsfoGIAWFr6Ii1bttTGGyPi++pqGJhRwLq6ei4kTwvbo0cPZVYR/lvYq8IuRkVgVhGEyuvbt4+nyTnEhysRBP65ucdZd17t4HcFGNRggaYWpFVjArwAaAb7IivMKJgzu3fvcRiEqU0opCl6LwDamRljD/IPPlhD+/fv59lFY4GtDBcixhmYpcVgFOnv3bvXqWkoyuntq6Fg1qtwAC5sOHR9paVl3A0G/ynsb/iehd148803tai1PMkLvATwbyMdeC0WLVrEJ1aQPgAHXzEmcRYvXqwkA+0IAgA//3w7y3cp767VgFcCt3EzhvnChc8d61pA2dn9+RUggydj5MgR3MMD8MPWhawAWniB0LMgr3ADApj2hMaKhU/I68qVq2jatKk8PAa+GFiCwEv0UPbxffU7YMBcx07GxCCmJYI76uGHH1E8FgAVJh0EkOGjns5cYFpt8ZbSxXNoqQdmzaSXXlrBu28ABa4qsQYFgAZYRI+BPGCGEd0zngOAmPF85ZVXNQ2m4LGB3xcTJCDw2rF9B79H+a32fIxi0sE9uYWliXfw8sCXDkJ+MfiGl0lNmOGDxwgNBo0D4UXZoN1Bo0aN4isd1fF8fR8wYFYLBuaJPQFQr776Mp8YwYwZ3FEAP0A8YOAAvphHmB6Ii8bREsH9BABAE4HUJoJIW1Si4AH/cfv27enDDz+iE2yWD2kDLEi/X78bmE98iM0alEmT7uJ+aOH5AB+Rp8vpC+7WK8wXtXmifosZPgzQsIAJbkrR8OHGhLsQM6DCZocc5j42hzDxAzCjLF2Z+xImBMCKySeUHY0QhMb3JPNvX3nlh/Tdd7u5whD8EW/s2DHcHaqlV1GXwdN7nx/PBRv21Klfeb5hK0IYrgjBPp4amGohAHgIiwEKqHPnjrwy7NOw56fOB1xt6vjqKWZoV+HiAm/1O6QHvtBs6jBI21mPgLwCPAirlkVraYh3AH5mZqYDX2fpI2378ou8iroQZVGXHTaxfb7V75FnaHL7MOBtBPkczEYUUqYZHBLwu7UZwSF2WUpvSECC2RtSlTwNkYAEsyFil4l6QwISzN6QquRpiAQkmA0Ru0zUGxKQYPaGVCVPQyQgwWyI2GWi3pCABLM3pCp5GiIBCWZDxC4T9YYEJJi9IVXJ0xAJSDAbInaZqDckIMHsDalKnoZIQILZELHLRL0hAQlmb0hV8jREAhLMhohdJuoNCUgwe0OqkqchEpBgNkTsMlFvSECC2RtSlTwNkYAEsyFil4l6QwISzN6QquRpiAQkmA0Ru0zUGxKQYPaGVCVPQyQgwWyI2GWi3pCABLM3pCp5GiIBCWZDxC4T9YYEJJi9IVXJ0xAJ/D9Si+kL1KSaXQAAAABJRU5ErkJggg==;" parent="DOYagENMo1T1TxlhpTYe-112" vertex="1">
          <mxGeometry x="5.89" y="12.020000000000001" width="100.44" height="82.47" as="geometry" />
        </mxCell>
        <mxCell id="DOYagENMo1T1TxlhpTYe-119" value="" style="rounded=1;whiteSpace=wrap;html=1;strokeWidth=1;" parent="1" vertex="1">
          <mxGeometry x="822" y="790" width="80" height="160" as="geometry" />
        </mxCell>
        <mxCell id="DOYagENMo1T1TxlhpTYe-120" value="node exporter" style="rounded=1;whiteSpace=wrap;html=1;strokeWidth=1;" parent="1" vertex="1">
          <mxGeometry x="707" y="847" width="80" height="30" as="geometry" />
        </mxCell>
        <mxCell id="DOYagENMo1T1TxlhpTYe-121" value="cAdvisor" style="rounded=1;whiteSpace=wrap;html=1;strokeWidth=1;" parent="1" vertex="1">
          <mxGeometry x="707" y="877" width="80" height="30" as="geometry" />
        </mxCell>
        <mxCell id="DOYagENMo1T1TxlhpTYe-122" value="rancher-health-exporter" style="rounded=1;whiteSpace=wrap;html=1;strokeWidth=1;" parent="1" vertex="1">
          <mxGeometry x="707" y="907" width="80" height="43" as="geometry" />
        </mxCell>
        <mxCell id="DOYagENMo1T1TxlhpTYe-123" value="主机1" style="text;html=1;strokeColor=none;fillColor=none;align=center;verticalAlign=middle;whiteSpace=wrap;rounded=0;" parent="1" vertex="1">
          <mxGeometry x="727" y="787" width="40" height="20" as="geometry" />
        </mxCell>
        <mxCell id="DOYagENMo1T1TxlhpTYe-125" value="node exporter" style="rounded=1;whiteSpace=wrap;html=1;strokeWidth=1;" parent="1" vertex="1">
          <mxGeometry x="822" y="890" width="80" height="30" as="geometry" />
        </mxCell>
        <mxCell id="DOYagENMo1T1TxlhpTYe-126" value="cAdvisor" style="rounded=1;whiteSpace=wrap;html=1;strokeWidth=1;" parent="1" vertex="1">
          <mxGeometry x="822" y="920" width="80" height="30" as="geometry" />
        </mxCell>
        <mxCell id="DOYagENMo1T1TxlhpTYe-130" value="主机2" style="text;html=1;strokeColor=none;fillColor=none;align=center;verticalAlign=middle;whiteSpace=wrap;rounded=0;" parent="1" vertex="1">
          <mxGeometry x="842" y="790" width="40" height="20" as="geometry" />
        </mxCell>
        <mxCell id="DOYagENMo1T1TxlhpTYe-131" value="1.6容器云" style="text;html=1;strokeColor=none;fillColor=none;align=center;verticalAlign=middle;whiteSpace=wrap;rounded=0;" parent="1" vertex="1">
          <mxGeometry x="732" y="726.5" width="90" height="20" as="geometry" />
        </mxCell>
        <mxCell id="DOYagENMo1T1TxlhpTYe-133" value="" style="rounded=1;whiteSpace=wrap;html=1;strokeWidth=1;" parent="1" vertex="1">
          <mxGeometry x="967" y="760" width="90" height="190" as="geometry" />
        </mxCell>
        <mxCell id="DOYagENMo1T1TxlhpTYe-134" value="环境2" style="text;html=1;strokeColor=none;fillColor=none;align=center;verticalAlign=middle;whiteSpace=wrap;rounded=0;" parent="1" vertex="1">
          <mxGeometry x="967" y="760" width="90" height="20" as="geometry" />
        </mxCell>
        <mxCell id="DOYagENMo1T1TxlhpTYe-135" value="..." style="text;html=1;strokeColor=none;fillColor=none;align=center;verticalAlign=middle;whiteSpace=wrap;rounded=0;" parent="1" vertex="1">
          <mxGeometry x="992" y="852" width="40" height="20" as="geometry" />
        </mxCell>
        <mxCell id="DOYagENMo1T1TxlhpTYe-136" value="remote read" style="endArrow=classic;html=1;exitX=0.5;exitY=1;exitDx=0;exitDy=0;entryX=0.5;entryY=0;entryDx=0;entryDy=0;" parent="1" source="DOYagENMo1T1TxlhpTYe-45" target="DOYagENMo1T1TxlhpTYe-113" edge="1">
          <mxGeometry width="50" height="50" relative="1" as="geometry">
            <mxPoint x="797" y="600" as="sourcePoint" />
            <mxPoint x="847" y="550" as="targetPoint" />
          </mxGeometry>
        </mxCell>
        <mxCell id="DOYagENMo1T1TxlhpTYe-139" value="" style="endArrow=classic;html=1;exitX=0.5;exitY=1;exitDx=0;exitDy=0;entryX=0.5;entryY=0;entryDx=0;entryDy=0;" parent="1" source="DOYagENMo1T1TxlhpTYe-47" target="DOYagENMo1T1TxlhpTYe-45" edge="1">
          <mxGeometry width="50" height="50" relative="1" as="geometry">
            <mxPoint x="797" y="420" as="sourcePoint" />
            <mxPoint x="847" y="370" as="targetPoint" />
          </mxGeometry>
        </mxCell>
        <mxCell id="DOYagENMo1T1TxlhpTYe-140" value="read monitoring data" style="edgeLabel;html=1;align=center;verticalAlign=middle;resizable=0;points=[];" parent="DOYagENMo1T1TxlhpTYe-139" vertex="1" connectable="0">
          <mxGeometry x="-0.2755" y="1" relative="1" as="geometry">
            <mxPoint as="offset" />
          </mxGeometry>
        </mxCell>
        <mxCell id="DOYagENMo1T1TxlhpTYe-141" value="" style="endArrow=classic;html=1;exitX=1;exitY=0.5;exitDx=0;exitDy=0;entryX=0;entryY=0.5;entryDx=0;entryDy=0;" parent="1" source="DOYagENMo1T1TxlhpTYe-41" target="DOYagENMo1T1TxlhpTYe-45" edge="1">
          <mxGeometry width="50" height="50" relative="1" as="geometry">
            <mxPoint x="797" y="420" as="sourcePoint" />
            <mxPoint x="847" y="370" as="targetPoint" />
          </mxGeometry>
        </mxCell>
        <mxCell id="DOYagENMo1T1TxlhpTYe-142" value="generate&lt;br&gt;configure" style="edgeLabel;html=1;align=center;verticalAlign=middle;resizable=0;points=[];" parent="DOYagENMo1T1TxlhpTYe-141" vertex="1" connectable="0">
          <mxGeometry x="-0.1338" y="-3" relative="1" as="geometry">
            <mxPoint as="offset" />
          </mxGeometry>
        </mxCell>
        <mxCell id="DOYagENMo1T1TxlhpTYe-143" value="Text" style="text;html=1;strokeColor=none;fillColor=none;align=center;verticalAlign=middle;whiteSpace=wrap;rounded=0;" parent="1" vertex="1">
          <mxGeometry x="807" y="130" width="40" height="20" as="geometry" />
        </mxCell>
        <mxCell id="DOYagENMo1T1TxlhpTYe-144" value="PaaS v3.0.0" style="text;html=1;strokeColor=none;fillColor=none;align=center;verticalAlign=middle;whiteSpace=wrap;rounded=0;" parent="1" vertex="1">
          <mxGeometry x="427" y="30" width="130" height="30" as="geometry" />
        </mxCell>
        <mxCell id="DOYagENMo1T1TxlhpTYe-145" value="PaaS v2.0" style="text;html=1;strokeColor=none;fillColor=none;align=center;verticalAlign=middle;whiteSpace=wrap;rounded=0;" parent="1" vertex="1">
          <mxGeometry x="387" y="686" width="130" height="30" as="geometry" />
        </mxCell>
        <mxCell id="DOYagENMo1T1TxlhpTYe-146" value="" style="aspect=fixed;html=1;points=[];align=center;image;fontSize=12;image=img/lib/mscae/Kubernetes.svg;strokeWidth=1;" parent="1" vertex="1">
          <mxGeometry x="685.75" y="342" width="31.25" height="30" as="geometry" />
        </mxCell>
        <mxCell id="DOYagENMo1T1TxlhpTYe-147" value="" style="shape=image;verticalLabelPosition=bottom;labelBackgroundColor=#ffffff;verticalAlign=top;aspect=fixed;imageAspect=0;image=data:image/png,iVBORw0KGgoAAAANSUhEUgAAAVAAAACWCAMAAAC/8CD2AAAAjVBMVEUAbKH///8AYpwAaqArf62xzt+50+ImfawAZZ0AaJ8AZp4bcaTj7vTf7fScv9VimLyRuND0+fsAX5oAW5jH2+cAVJVnnb8AV5bb6PCRudASd6jn8faFr8rK2OR0pMOZvNM+hrFjmr2tydvQ4et0nb47fqtJha9Mi7QATJCPsct5qcZFjLVUk7lSirI3hbA0in1KAAAIBUlEQVR4nO2diXaiOhiAQ0KVxQ20lguO68x4a719/8e77KKGgOEPgv2/M6endDgkfGQnIUTrP96i5QDHh5s/DNa6//3pRb+SluOigL07X7caoGfMJ1fH+rv/ezW15kvtFYQGlBA6aDNE3STW6HLouX6SRSau/gpCdyYh7NhigF74BK1lfuiQrZP/z7L/QgOTEUJcp/pMKGZGGCAN8sOPQBv9+fv3HBasb++H3guNb6/VPH+MnqCxyg7t8Lfx/Hs5dEPHw1XvherR7RHjs7UAHT8O0U4Pg/ewAB1/TLT9PPxl5vdd6NiN7o6Y59ZCHMVlDKFpW817d6IUel7Zkcq91XehmzjHEzZsLcQDTR5hWi1570H0WIe+Ow6PJnbfhW7j5HLJgerZJ0IJSepBxx3EWT6YR6Xq+txzoU56c4y0Vs0nteClHpyGTTbv35l2DpOqY+x7LvRXmlyYGVSfDMPJSoK0Tsmx9zHQnF8jLfgVaGu77+3QLLkwc1R9Mgy/zSxXpH/YzLOxhNnHoe9Cp9ndWV5bQZ6zIN0syM3HznMcZzCMav5+C03bhK0KzapBYuQjJN70g5I5PUXFTr+FBlmNS6zbETVl6JnQ4gCC4y3SMqdK6GH1PdQ7xXF1cTfIhWZ32RD7e7qvqN7yTEFsXstCLHShU4t1DYMesztJm/WARk2TmkthE8zOz6W8XCEUOpmbgrCfh0nSVDRVET9mMVH5cTnR+OdBoQcK9NjBsdKuu68mgswQGGV5mOb0MaGO3830GeEmVYCr6PKMlRekl2fIeP1dgdClIQjyySRNFo9WnymHYPSqcJbL6U2UC10oiy0AZvxabqAuim5ppi8kM/r2gFDH7moBGpEUXxN1echalXgZF4oZizOsXSr0bCmLLADJaORJXRyZX+Kl0FIj7Ku+0EmXM3yWNs4Ka01aIua6YVFb6MjocoYPK6V9FMs/CiNJ+cNX66tSxro/qUTosbstppj4jY6jqBmahDDmeVleZ1x6PwmIL3TW7Qwf3knUOwyUhsARuhje1IJ0X0+op6rBDAXTo2iOTfUpdDQepRxmunsbHqctwBWqd7sADSv53/FzV5mPEqEOMzMop1oxd7WErjvcRUpIstqhBaHiUSz2Xx2hg65n+LCSj8fnFXaULkKFsD81hFZcoxMkQ7tvzxfq3w2d3guddrqLFJO+fFA62lBLKCF3o1J3QpU+diDSyrWVMlRIjRQadL5CIvmkjTZqefFJnIm+t0K73kWKock74xYa9hVCjVmV0E0PMjwhbhrbofKGfYVQTof/WqjX2bdIV2STYBQO39USWphpXyJU5SOHI58M6s3VBVJDKHfK35XQUx9qpLDD951FeKcuwtVCmcFbcFYU2um3SAUuA+UKX8xWCmUWdwFfUajK4UVIkrGmmMBWlQiqhNIhd8C0KLTLr42vYGbhBj5tKkK62kqFWiXXJRuuzqJQpUMNsLjFuYvOYiBgJms0HQ8tu27p9KdcqNJWMjDZbOwabGWLMf4rkGpyods+dJFSmFl3NuhKOts1FdqPLlIGs+tNqW/wMryhUM/qSQ2fwuikxjqadYNU0lBonzJ8DKP+aREIebt9R/kQzYTKFzXPg1mGcKIzaTZXo5HQBfctUvcLAfHU8WbXbiKUOwOD0c6/TFZKE6HcLpIx6UvXXg0NhPJeG0c9/x51nRQgL5TX/7dsr1d9UQXIC+W8RaLnqJGHQqWE7u+0MZqM7KNQKaH+7ZXCToiGQuWF3sJYNhCNQqWE3jQ2TTu/EAqVEvp1ZdQ4XsYcUKiU0LdiK5QWP3OIQqWEFsa48uoIhTbqKWUrG0z7ehwchUoK1XaxOdO/GQV/CaHS47yNhu/CXM/o9nYI/AWEMmspa7TZAPN0zvm84QsIpXvpIbOGr0AOnAX3/RdqnORvovFr5BcUGn1xAYUCYmxQKCjRglAUCke8ogCFwhEvvkGhcMRLNFAoHCgUmPhLaigUDkyhwKBQYFAoMCgUGKyUgMEUCgwKBQaFAoNCgcFKCRhMocCgUGBQKDAoFBgUCkwsVH6ig+QWYq8udCT7qcmyj1r/dKGOXX0iD/ZdLuZHC9UkZ4tdT5VFoRGJUMlCVHoXxpcXKrdlBC376M1PFpp+ZdSRWOhtbmV9vrLQbP+ow8NfIrC4u839eKH5Th2e/9BHJ1my1BWF3pFvLOHMDFpzEwFmUft++wQUGsMuJaHztvTtOugn7icCny6UGcIv0sFhiOpwzlYdylEjlA43+7dW2K+Y4GNCTHKEowEqhDLC2atNHbPyWtwkrW3qnaFCKGfbJqXsy9Noy89WUyI0/cp8i6wF/XW6bVjLPAi80Aa9DFkC0Rgdo9b0c/YZ/ot+JD/jo5AG7c0y4IU+8HFPMMQfO2amZfBRUDbBCzWkxxXkkds+kbF+CJUdSWzADoXCIrctOgotBYUCg0KBQaHAoFBgUCgwKBQYFAoMCgUGhQKDQoFBocCgUGBQKDAoFBgUCgwKBQaFAoNCgUGhwKBQYFAoMCgUGBQKDAoFBoUCg0KBQaHAoFBg+iFUch3vM9ayiOaEi5BdcixAIDSQFHoov6QqNlL7dLOhgqgIhGpbmc2Ro/0iWseTevbGSkFUREJ5e/xW4j6hCNW0nUwSnSvI8UKh2sl9OI3SnYJIVuP4D39mgKlZ/iMUqq0M45HinlnuE5aAxDhHt+Z64ySmjBI1y6nEQrVg9qUP66J/rTwlkazFYv1dO6ZD/TxRsEYp4n//t7SdijJQLgAAAABJRU5ErkJggg==;" parent="1" vertex="1">
          <mxGeometry x="684.8" y="63" width="60.48" height="27" as="geometry" />
        </mxCell>
        <mxCell id="DOYagENMo1T1TxlhpTYe-148" value="" style="shape=image;verticalLabelPosition=bottom;labelBackgroundColor=#ffffff;verticalAlign=top;aspect=fixed;imageAspect=0;image=data:image/png,iVBORw0KGgoAAAANSUhEUgAAAVAAAACWCAMAAAC/8CD2AAAAjVBMVEUAbKH///8AYpwAaqArf62xzt+50+ImfawAZZ0AaJ8AZp4bcaTj7vTf7fScv9VimLyRuND0+fsAX5oAW5jH2+cAVJVnnb8AV5bb6PCRudASd6jn8faFr8rK2OR0pMOZvNM+hrFjmr2tydvQ4et0nb47fqtJha9Mi7QATJCPsct5qcZFjLVUk7lSirI3hbA0in1KAAAIBUlEQVR4nO2diXaiOhiAQ0KVxQ20lguO68x4a719/8e77KKGgOEPgv2/M6endDgkfGQnIUTrP96i5QDHh5s/DNa6//3pRb+SluOigL07X7caoGfMJ1fH+rv/ezW15kvtFYQGlBA6aDNE3STW6HLouX6SRSau/gpCdyYh7NhigF74BK1lfuiQrZP/z7L/QgOTEUJcp/pMKGZGGCAN8sOPQBv9+fv3HBasb++H3guNb6/VPH+MnqCxyg7t8Lfx/Hs5dEPHw1XvherR7RHjs7UAHT8O0U4Pg/ewAB1/TLT9PPxl5vdd6NiN7o6Y59ZCHMVlDKFpW817d6IUel7Zkcq91XehmzjHEzZsLcQDTR5hWi1570H0WIe+Ow6PJnbfhW7j5HLJgerZJ0IJSepBxx3EWT6YR6Xq+txzoU56c4y0Vs0nteClHpyGTTbv35l2DpOqY+x7LvRXmlyYGVSfDMPJSoK0Tsmx9zHQnF8jLfgVaGu77+3QLLkwc1R9Mgy/zSxXpH/YzLOxhNnHoe9Cp9ndWV5bQZ6zIN0syM3HznMcZzCMav5+C03bhK0KzapBYuQjJN70g5I5PUXFTr+FBlmNS6zbETVl6JnQ4gCC4y3SMqdK6GH1PdQ7xXF1cTfIhWZ32RD7e7qvqN7yTEFsXstCLHShU4t1DYMesztJm/WARk2TmkthE8zOz6W8XCEUOpmbgrCfh0nSVDRVET9mMVH5cTnR+OdBoQcK9NjBsdKuu68mgswQGGV5mOb0MaGO3830GeEmVYCr6PKMlRekl2fIeP1dgdClIQjyySRNFo9WnymHYPSqcJbL6U2UC10oiy0AZvxabqAuim5ppi8kM/r2gFDH7moBGpEUXxN1echalXgZF4oZizOsXSr0bCmLLADJaORJXRyZX+Kl0FIj7Ku+0EmXM3yWNs4Ka01aIua6YVFb6MjocoYPK6V9FMs/CiNJ+cNX66tSxro/qUTosbstppj4jY6jqBmahDDmeVleZ1x6PwmIL3TW7Qwf3knUOwyUhsARuhje1IJ0X0+op6rBDAXTo2iOTfUpdDQepRxmunsbHqctwBWqd7sADSv53/FzV5mPEqEOMzMop1oxd7WErjvcRUpIstqhBaHiUSz2Xx2hg65n+LCSj8fnFXaULkKFsD81hFZcoxMkQ7tvzxfq3w2d3guddrqLFJO+fFA62lBLKCF3o1J3QpU+diDSyrWVMlRIjRQadL5CIvmkjTZqefFJnIm+t0K73kWKock74xYa9hVCjVmV0E0PMjwhbhrbofKGfYVQTof/WqjX2bdIV2STYBQO39USWphpXyJU5SOHI58M6s3VBVJDKHfK35XQUx9qpLDD951FeKcuwtVCmcFbcFYU2um3SAUuA+UKX8xWCmUWdwFfUajK4UVIkrGmmMBWlQiqhNIhd8C0KLTLr42vYGbhBj5tKkK62kqFWiXXJRuuzqJQpUMNsLjFuYvOYiBgJms0HQ8tu27p9KdcqNJWMjDZbOwabGWLMf4rkGpyods+dJFSmFl3NuhKOts1FdqPLlIGs+tNqW/wMryhUM/qSQ2fwuikxjqadYNU0lBonzJ8DKP+aREIebt9R/kQzYTKFzXPg1mGcKIzaTZXo5HQBfctUvcLAfHU8WbXbiKUOwOD0c6/TFZKE6HcLpIx6UvXXg0NhPJeG0c9/x51nRQgL5TX/7dsr1d9UQXIC+W8RaLnqJGHQqWE7u+0MZqM7KNQKaH+7ZXCToiGQuWF3sJYNhCNQqWE3jQ2TTu/EAqVEvp1ZdQ4XsYcUKiU0LdiK5QWP3OIQqWEFsa48uoIhTbqKWUrG0z7ehwchUoK1XaxOdO/GQV/CaHS47yNhu/CXM/o9nYI/AWEMmspa7TZAPN0zvm84QsIpXvpIbOGr0AOnAX3/RdqnORvovFr5BcUGn1xAYUCYmxQKCjRglAUCke8ogCFwhEvvkGhcMRLNFAoHCgUmPhLaigUDkyhwKBQYFAoMCgUGKyUgMEUCgwKBQaFAoNCgcFKCRhMocCgUGBQKDAoFBgUCkwsVH6ig+QWYq8udCT7qcmyj1r/dKGOXX0iD/ZdLuZHC9UkZ4tdT5VFoRGJUMlCVHoXxpcXKrdlBC376M1PFpp+ZdSRWOhtbmV9vrLQbP+ow8NfIrC4u839eKH5Th2e/9BHJ1my1BWF3pFvLOHMDFpzEwFmUft++wQUGsMuJaHztvTtOugn7icCny6UGcIv0sFhiOpwzlYdylEjlA43+7dW2K+Y4GNCTHKEowEqhDLC2atNHbPyWtwkrW3qnaFCKGfbJqXsy9Noy89WUyI0/cp8i6wF/XW6bVjLPAi80Aa9DFkC0Rgdo9b0c/YZ/ot+JD/jo5AG7c0y4IU+8HFPMMQfO2amZfBRUDbBCzWkxxXkkds+kbF+CJUdSWzADoXCIrctOgotBYUCg0KBQaHAoFBgUCgwKBQYFAoMCgUGhQKDQoFBocCgUGBQKDAoFBgUCgwKBQaFAoNCgUGhwKBQYFAoMCgUGBQKDAoFBoUCg0KBQaHAoFBg+iFUch3vM9ayiOaEi5BdcixAIDSQFHoov6QqNlL7dLOhgqgIhGpbmc2Ro/0iWseTevbGSkFUREJ5e/xW4j6hCNW0nUwSnSvI8UKh2sl9OI3SnYJIVuP4D39mgKlZ/iMUqq0M45HinlnuE5aAxDhHt+Z64ySmjBI1y6nEQrVg9qUP66J/rTwlkazFYv1dO6ZD/TxRsEYp4n//t7SdijJQLgAAAABJRU5ErkJggg==;" parent="1" vertex="1">
          <mxGeometry x="691.52" y="723" width="60.48" height="27" as="geometry" />
        </mxCell>
        <mxCell id="DOYagENMo1T1TxlhpTYe-150" value="" style="endArrow=classic;html=1;exitX=1;exitY=0.5;exitDx=0;exitDy=0;entryX=0;entryY=0.5;entryDx=0;entryDy=0;" parent="1" source="DOYagENMo1T1TxlhpTYe-113" target="DOYagENMo1T1TxlhpTYe-120" edge="1">
          <mxGeometry width="50" height="50" relative="1" as="geometry">
            <mxPoint x="797" y="640" as="sourcePoint" />
            <mxPoint x="847" y="590" as="targetPoint" />
          </mxGeometry>
        </mxCell>
        <mxCell id="DOYagENMo1T1TxlhpTYe-152" value="" style="endArrow=classic;html=1;exitX=1;exitY=0.5;exitDx=0;exitDy=0;entryX=0;entryY=0.5;entryDx=0;entryDy=0;" parent="1" source="DOYagENMo1T1TxlhpTYe-113" target="DOYagENMo1T1TxlhpTYe-121" edge="1">
          <mxGeometry width="50" height="50" relative="1" as="geometry">
            <mxPoint x="609.2124555825696" y="793.25" as="sourcePoint" />
            <mxPoint x="717" y="872" as="targetPoint" />
          </mxGeometry>
        </mxCell>
        <mxCell id="DOYagENMo1T1TxlhpTYe-153" value="" style="endArrow=classic;html=1;exitX=1;exitY=0.5;exitDx=0;exitDy=0;entryX=0;entryY=0.5;entryDx=0;entryDy=0;" parent="1" source="DOYagENMo1T1TxlhpTYe-113" target="DOYagENMo1T1TxlhpTYe-122" edge="1">
          <mxGeometry width="50" height="50" relative="1" as="geometry">
            <mxPoint x="619.2124555825696" y="803.25" as="sourcePoint" />
            <mxPoint x="727" y="882" as="targetPoint" />
          </mxGeometry>
        </mxCell>
        <mxCell id="DOYagENMo1T1TxlhpTYe-154" value="scrap" style="edgeLabel;html=1;align=center;verticalAlign=middle;resizable=0;points=[];" parent="DOYagENMo1T1TxlhpTYe-153" vertex="1" connectable="0">
          <mxGeometry x="-0.1079" y="-2" relative="1" as="geometry">
            <mxPoint as="offset" />
          </mxGeometry>
        </mxCell>
        <mxCell id="DOYagENMo1T1TxlhpTYe-155" value="环境1" style="text;html=1;strokeColor=none;fillColor=none;align=center;verticalAlign=middle;whiteSpace=wrap;rounded=0;" parent="1" vertex="1">
          <mxGeometry x="757" y="760" width="90" height="20" as="geometry" />
        </mxCell>
        <mxCell id="DOYagENMo1T1TxlhpTYe-157" value="" style="shape=image;verticalLabelPosition=bottom;labelBackgroundColor=#ffffff;verticalAlign=top;aspect=fixed;imageAspect=0;image=data:image/png,iVBORw0KGgoAAAANSUhEUgAAATAAAADfCAYAAABxno8QAAAACXBIWXMAAA7EAAAOxAGVKw4bAAAKTWlDQ1BQaG90b3Nob3AgSUNDIHByb2ZpbGUAAHjanVN3WJP3Fj7f92UPVkLY8LGXbIEAIiOsCMgQWaIQkgBhhBASQMWFiApWFBURnEhVxILVCkidiOKgKLhnQYqIWotVXDjuH9yntX167+3t+9f7vOec5/zOec8PgBESJpHmomoAOVKFPDrYH49PSMTJvYACFUjgBCAQ5svCZwXFAADwA3l4fnSwP/wBr28AAgBw1S4kEsfh/4O6UCZXACCRAOAiEucLAZBSAMguVMgUAMgYALBTs2QKAJQAAGx5fEIiAKoNAOz0ST4FANipk9wXANiiHKkIAI0BAJkoRyQCQLsAYFWBUiwCwMIAoKxAIi4EwK4BgFm2MkcCgL0FAHaOWJAPQGAAgJlCLMwAIDgCAEMeE80DIEwDoDDSv+CpX3CFuEgBAMDLlc2XS9IzFLiV0Bp38vDg4iHiwmyxQmEXKRBmCeQinJebIxNI5wNMzgwAABr50cH+OD+Q5+bk4eZm52zv9MWi/mvwbyI+IfHf/ryMAgQAEE7P79pf5eXWA3DHAbB1v2upWwDaVgBo3/ldM9sJoFoK0Hr5i3k4/EAenqFQyDwdHAoLC+0lYqG9MOOLPv8z4W/gi372/EAe/tt68ABxmkCZrcCjg/1xYW52rlKO58sEQjFu9+cj/seFf/2OKdHiNLFcLBWK8ViJuFAiTcd5uVKRRCHJleIS6X8y8R+W/QmTdw0ArIZPwE62B7XLbMB+7gECiw5Y0nYAQH7zLYwaC5EAEGc0Mnn3AACTv/mPQCsBAM2XpOMAALzoGFyolBdMxggAAESggSqwQQcMwRSswA6cwR28wBcCYQZEQAwkwDwQQgbkgBwKoRiWQRlUwDrYBLWwAxqgEZrhELTBMTgN5+ASXIHrcBcGYBiewhi8hgkEQcgIE2EhOogRYo7YIs4IF5mOBCJhSDSSgKQg6YgUUSLFyHKkAqlCapFdSCPyLXIUOY1cQPqQ28ggMor8irxHMZSBslED1AJ1QLmoHxqKxqBz0XQ0D12AlqJr0Rq0Hj2AtqKn0UvodXQAfYqOY4DRMQ5mjNlhXIyHRWCJWBomxxZj5Vg1Vo81Yx1YN3YVG8CeYe8IJAKLgBPsCF6EEMJsgpCQR1hMWEOoJewjtBK6CFcJg4Qxwicik6hPtCV6EvnEeGI6sZBYRqwm7iEeIZ4lXicOE1+TSCQOyZLkTgohJZAySQtJa0jbSC2kU6Q+0hBpnEwm65Btyd7kCLKArCCXkbeQD5BPkvvJw+S3FDrFiOJMCaIkUqSUEko1ZT/lBKWfMkKZoKpRzame1AiqiDqfWkltoHZQL1OHqRM0dZolzZsWQ8ukLaPV0JppZ2n3aC/pdLoJ3YMeRZfQl9Jr6Afp5+mD9HcMDYYNg8dIYigZaxl7GacYtxkvmUymBdOXmchUMNcyG5lnmA+Yb1VYKvYqfBWRyhKVOpVWlX6V56pUVXNVP9V5qgtUq1UPq15WfaZGVbNQ46kJ1Bar1akdVbupNq7OUndSj1DPUV+jvl/9gvpjDbKGhUaghkijVGO3xhmNIRbGMmXxWELWclYD6yxrmE1iW7L57Ex2Bfsbdi97TFNDc6pmrGaRZp3mcc0BDsax4PA52ZxKziHODc57LQMtPy2x1mqtZq1+rTfaetq+2mLtcu0W7eva73VwnUCdLJ31Om0693UJuja6UbqFutt1z+o+02PreekJ9cr1Dund0Uf1bfSj9Rfq79bv0R83MDQINpAZbDE4Y/DMkGPoa5hpuNHwhOGoEctoupHEaKPRSaMnuCbuh2fjNXgXPmasbxxirDTeZdxrPGFiaTLbpMSkxeS+Kc2Ua5pmutG003TMzMgs3KzYrMnsjjnVnGueYb7ZvNv8jYWlRZzFSos2i8eW2pZ8ywWWTZb3rJhWPlZ5VvVW16xJ1lzrLOtt1ldsUBtXmwybOpvLtqitm63Edptt3xTiFI8p0in1U27aMez87ArsmuwG7Tn2YfYl9m32zx3MHBId1jt0O3xydHXMdmxwvOuk4TTDqcSpw+lXZxtnoXOd8zUXpkuQyxKXdpcXU22niqdun3rLleUa7rrStdP1o5u7m9yt2W3U3cw9xX2r+00umxvJXcM970H08PdY4nHM452nm6fC85DnL152Xlle+70eT7OcJp7WMG3I28Rb4L3Le2A6Pj1l+s7pAz7GPgKfep+Hvqa+It89viN+1n6Zfgf8nvs7+sv9j/i/4XnyFvFOBWABwQHlAb2BGoGzA2sDHwSZBKUHNQWNBbsGLww+FUIMCQ1ZH3KTb8AX8hv5YzPcZyya0RXKCJ0VWhv6MMwmTB7WEY6GzwjfEH5vpvlM6cy2CIjgR2yIuB9pGZkX+X0UKSoyqi7qUbRTdHF09yzWrORZ+2e9jvGPqYy5O9tqtnJ2Z6xqbFJsY+ybuIC4qriBeIf4RfGXEnQTJAntieTE2MQ9ieNzAudsmjOc5JpUlnRjruXcorkX5unOy553PFk1WZB8OIWYEpeyP+WDIEJQLxhP5aduTR0T8oSbhU9FvqKNolGxt7hKPJLmnVaV9jjdO31D+miGT0Z1xjMJT1IreZEZkrkj801WRNberM/ZcdktOZSclJyjUg1plrQr1zC3KLdPZisrkw3keeZtyhuTh8r35CP5c/PbFWyFTNGjtFKuUA4WTC+oK3hbGFt4uEi9SFrUM99m/ur5IwuCFny9kLBQuLCz2Lh4WfHgIr9FuxYji1MXdy4xXVK6ZHhp8NJ9y2jLspb9UOJYUlXyannc8o5Sg9KlpUMrglc0lamUycturvRauWMVYZVkVe9ql9VbVn8qF5VfrHCsqK74sEa45uJXTl/VfPV5bdra3kq3yu3rSOuk626s91m/r0q9akHV0IbwDa0b8Y3lG19tSt50oXpq9Y7NtM3KzQM1YTXtW8y2rNvyoTaj9nqdf13LVv2tq7e+2Sba1r/dd3vzDoMdFTve75TsvLUreFdrvUV99W7S7oLdjxpiG7q/5n7duEd3T8Wej3ulewf2Re/ranRvbNyvv7+yCW1SNo0eSDpw5ZuAb9qb7Zp3tXBaKg7CQeXBJ9+mfHvjUOihzsPcw83fmX+39QjrSHkr0jq/dawto22gPaG97+iMo50dXh1Hvrf/fu8x42N1xzWPV56gnSg98fnkgpPjp2Snnp1OPz3Umdx590z8mWtdUV29Z0PPnj8XdO5Mt1/3yfPe549d8Lxw9CL3Ytslt0utPa49R35w/eFIr1tv62X3y+1XPK509E3rO9Hv03/6asDVc9f41y5dn3m978bsG7duJt0cuCW69fh29u0XdwruTNxdeo94r/y+2v3qB/oP6n+0/rFlwG3g+GDAYM/DWQ/vDgmHnv6U/9OH4dJHzEfVI0YjjY+dHx8bDRq98mTOk+GnsqcTz8p+Vv9563Or59/94vtLz1j82PAL+YvPv655qfNy76uprzrHI8cfvM55PfGm/K3O233vuO+638e9H5ko/ED+UPPR+mPHp9BP9z7nfP78L/eE8/sl0p8zAAAAIGNIUk0AAHolAACAgwAA+f8AAIDpAAB1MAAA6mAAADqYAAAXb5JfxUYAAEIdSURBVHja7L17eFRVlve/zrXulVTud8iFEAgkhIuiotio2HTTjQri6DS2rY6IvjqjP/vRaZ1u29F39NFHe/SVNLa2jDjaYFBoaekGRFCUaIBAIBCSkJD7rZJK3c/9/P6gokWSSuqcugb253l4Qirnts/e51trrb3O2pgsy4BAIBBTERzdAgQCgQQMgUAgkIAhEAgEEjAEAoEEDIFAIJCAIRAIBBIwBAKBQAKGQCCQgCEQCAQSMAQCgUAChkAgkIAhEAgEEjAEAoFAAoZAIBBIwBAIBBIwBAKBQAKGQCAQSMAQCAQSMAQCgUAChkAgEEjAEAgEAgkYAoFAAoZAIBBIwBAIBAIJGAKBuLwg0S1ARIrqbqbEzkpZNkbKHvSK+Ywgm1hR1ksyEKIka0QZCFGWNRhgooYAD01g3//LMBANuWby2BWZ2mZ0JxGBwGRZRncBETaO9LL55+38oto+dnWnUyi1s1KpjZHAxkiKjpOmJyDXTNZnGoj6bBNZn59AVRcnUQeLLBSL7jICCRgirHzW4ll+rJe9rdXOX3XeLpQNeMTwuQk4QLaRhOIkavdV2drNxUnUwbJUTR+66wgkYIiQ2Hves3R/m/eRU1ZueZtdMEX6fKl6AoqTqOoF6ZptCzM1W+elabpRLyABQyAUcaDdu8gnXCuabXxKtM9vpDCYm6ap+Wmh/rmfFxl2oR5BAoZABMXmk46Hdrd4njwzyOfF+lqyTSQ7P53e+dNCw3NXZ2vrUe8gAUMgxuV4H5u1rcH12uFuZu2gV4qraytPoxtuKzY+c2uxYTvqKSRgCMRFfN7mXbLtjOvVw93Moni9xiwjId5abHh6/byEl1CPIQFDIAAA4K/N7pXvnXK+3TjEp8f7tRooDH5WZNj4m6ssD6OeQwKGuMz58LTznvdPu97scAj6qXTdtxYbtvx+SdLdqAcvbdCrRIiA/LnO8cif65zvTjXxAgD4pNG97sVq2+uoF5GAIS5TCBwT56TSe2ZYKNAQ2JS7/g9Oux7533rnfagnkQuJuExpHOL17Q5+fsMgv+xYH7v69CBX5uGnzphJNxDw6IKEn/0M5YohAUNc3tT0MEVHetk7anrYtScHuDJWnBpjJz+BtP1+SdKceekoax8JGGJKUN3NlLg4KcXFy8kuTkrx/T/FxUkpJI6xGgLz/PrKxMfVCtmhTub+I73s6pMDXNFUuB83TNPtee2GlJvRyEAChohTDncxpU02fkmzjb+mzSHMd3FSqYuXwMXJ4OIk8O/pPDPp2bUm0zD6GNsb2bXJOqw100A0zEwinBOd71Cnt+wfrd6nanqYtd0ukYjne6MjMXjmagtyJZGAIeKJQ51MWYeDn19v5Za3O4SKJhtf4g4iRvXogoTH7y83v+b/2c5mdtV3vcJdOAZrMw34M+l6vCnHhNel6vCmgkQiYHmJnU3uVfvOex472MEsjed7VZpCt3748/QCNGqQgCHiwEU80O596OQAt6LDIRQNs8G/2pNhIGDPHVljphVf+s7zuoOTH/H/zEhhkKLDfp2qx5tKkoj9JUnkuFbZaStn2XXO/R/v17sei+f7Np5wI6YuqCLrFKO2j82r7mLWVfcwd54c4EoFFa8k3pyvf2X0Z5+1cMsdnDwm097Fy+Di5ZfPOyTockm/axgST4wnZLNTaNvsFPpxE40P/umE43lBis/792mz+z+QgF06EM8++yy6C1OAxiFO/49Wzz9XnXW/vPe8Z127Q0yTVBjPuSbS8/gViTdYtIQ8yn18kBHhXyba18nJP+p2Sf9k9cqMKIE110QMjN5mUab2KxzD3C3DwnKPEH/W/TAr6ZJ1RGNpCn0KjSpkgSGiwDddTOlHDa5Xj/ezy0OtAjEvnd5VkEhdFM/a28YttbFy0KVxul3S710cn9Lpkg7PSyV3zrAQHv+//0u5+ZVEDd71pxOOD3rdYtzdz13N7t+uLTF+iEbW1Adl4sc5nza7V1bW2qs+b/MuD0cJm7JUzZhZuJMDwgoAWKvkOA5OfuR4v/DB/nbukZNWYYzreXuJ8cMNFQlrjHT8ZfDXW7mSz9s8S9DoQgKGiCCbTzofqqx1VJ3o50rCdcw7Zhm3+P/ebBM1g4ycr/Z47U7pxf3t/CO1/cIYC+7WYsP2DRUJD8bbfeUlgAPt3ofQCEMChogQL387/Gplrf3NTqegCdcxU/VjU7U6XVKZUutrNP0e6en97dwjn7dzY6yadaWmTbeXGN/RkvFliR3tZW9DowwJGCICPHto6N0t9c7HvGEOglek02Pcx/MOMSwFCocY+Ylve4Q7xxOx/7jacv/1ubqd8XSPu5yipmGQM6HRhgQMEUbePuF47ONG9z2ROPbV2drNYx9kqSxcx3fz8kPf9gh3HurixxzznrmmX00zk854uc8yABzpZdeiEYcEDBEm9p33Ltl80vlqpI5fnnZxAL/VLhIeQbaE8xwXRIxf12gTL6ohNjuFtv200PBCPN3v2j52NRp1SMAQYeCbLqb0j8ftVQ4uMhmgOhKDwsSLV7Vuc0jzIcT4VyB38vN2bkxG/oMV5peKLJQ1Xu55s41fjEYeEjBEiNRbuZTKWntVJGvOZxmJMcLR45ZKI3W+TqdU9mEDO8YVvmWG4Zl4ue99btGCRh8SMESI/OWM6/VwpkqMR5KWGFMLq9ctRfKca88OCUtrevmLyu3cPce0aXYy3R7pe6olMEjS4pBhICBRg8N4s6Dx+KYAQhkoEz/GVHczJV92eO+MxbltjJQVyePzEtxT3SO0L8qgfneRss0yPv6fXw9VhaseYpqegEwj0VCUSFUbadyqp7BhLYE59BQ+TBOYhxEkEyPKJkaQzXZWSrcxUl6HQygbYsQ8NAKRgCFC4IPTrjdtTGzefBZl0ET6HL1uqWRHM7vqliLN92kUtxUbtn/a7K4/2suqdmHTDQSUp9K7Ci1UdZqeaMo0kvVKVub+qsM7f4iRclvtPJGfQIloJCIBQyjkH62eZd92M8su8WaubRgS+wDgojywO2cZHz5t5Q4ozXUrS6Oby1M1nxZayK/LUzW7Ci0XT0wEy7W5umMAcAyNQiRgCPXW1+veyyAO4+Tk9M9auOU/KaD3jHy2PF9/8K/N7oNfBlkEcZqZdM5Ooff/fIbht9dka+vQ6EEgAYshe1o9S0/0s6WxvAaaAA8XHedpbcOQ0OovYAAAtxYbnvmyg/lqoh2zjIRYnqbZtTRXt/Enhfo9k53o3LCoESSgBUnWCDLQovTDGCdwEAwUNliUSLBoBCIBQ4RAdTezToqi8TXMSmNSNFJ0eGu3Kzrxt0FGzj/SJ+QvTCdbRz67YZr+UK7J7ulwjr9wbpaREDdUJKxeNcMQ8DWkVrtIDDFy3oBHyh9kpHw3L1sECV4WJABBlkH0ax6BAxgo7KnaPrw9x4TXpRvwhoIEAsW/kIAhlPJdDxvVmccu19iSNxkGvCFaAgYAa+utwsGF6eRG/w8XZmq2dziFdeO5jPeXm9cFEq/mYVFz2ircNOCVZwwx0qvDbHDfBoNe+cV2kOCsDYNsI/ZoQYLuDTQakYAhFHBmkLN0BrA6IsV4i9GaaKwvmtfQMc57l6Up9O5PGt0XCdjCDE3dmpnGXwdyGb9o5xY3DYtL2h3Sy2qNWK8gwyADY9IoWod5Ij8RzUpOFVAia0zcR/YXUgxi9192eOf7/55wQcC2Rev8XkG2fNXJX3QNZakXV8goTKSsGyrMq8cTr7oBIX1zPfPQoS7+/rYQxOt7C1SPN4z+7L1659t1/Ww6GqVIwBABONzFrIvFec8N89f4/35lJtVAYBDNgPba7lGvL5Uk085kHf695bWhwrxmUaa2efSOX3fxZfvbuUeabOKbjAj3heNi0g34mPP8vcVzT2WtY8c3XUwpGqnIhUSMw2krtygW5z03zF8FABfFfBI0eN9QFBNpe93SzNGfZRvJZgChaEOFefV44vVZK7f8eL+wys3L4ayium20BbbvvGeJm5fh6y5msYuXqty89OBN0/UH0YhFAobwI1IVJyajYZAfkzSbn4BXR1PAhhhpTNwpy0jWz02ld48nXp80sauP9AlrIcxVM7QEOOemkhfFAGv7uO+rtJ7o50oqax1VnCjf/dNCw240apELiQCAJhuvj9W52x1jZyJnWoiDEMU4mCCB5ly/86JXmEpT6D1rS4xjyu9sb2TXRkK8Lgg3cXj0ZycG2J/5/95s41Mqax1VZwY5VLUCCRgCAGDIG7sXiBlBhs/PX7waT2kKaY3ybORaVsIvEvGrs+nNo2f+Pj3HrjzWL6yOhHgBwLaKNHJMesY528WVM3yir6+sdVShkYsEDBHAhYom33Qx94z+rCSJ+Dya1yDj5EWri8xI0ly0ruShLr4sguIFyTqstTSFvKg+2ieN7tVufvx5zQPt3mUvVtteR6MXCRgSMK+YG8vzfz2OgJWlkLui6UayMj6hG13Ty9/FiXBPhE6/bXYSOSZFY895zxMT7bSj0f3I1jOudWgEIwFDFlgM6XaJRGWt/Wn/zwoSCTHLiNdH6xpcnJQS6G+ft3NLrF7161ROhonG+n6cT+/3/+zbbqbkeB87YXlpjyDD+/XON8/ZeA0axUjAEDHks3OeJ0d/dmUGuYXGYXM0zs/wYsDlzOoGhJWRch0BYNt47vKnze7fBnIf/WlzCKbJLDUEErBLmiQt3h7ra2hzCKZ9o4L5CzOo1pIkcn80XElRksa1Yg60M4siaX0larAu/8KKAABNQ7z+6y4m6PdS97R6/w2NYiRgl6+A6YiOeLiOnU3u50d/dkeJZks0ZiQxwITxPm8YEpdF0vqan05+PMYabfH8ZtAbfB7cuWE+5TDK0kcChiyw2FLTyy7d3eJZPvrzijRyR6StMIIYv4RNnwcitshIlhGvvyGPPuT/2akBLmXfec+jSo/1abP7t2gkIwG7XC2wuBAwDy/DllPOP7YO8xelNNw8nd6fn4BXR3TQ4fgYAfum3VXKSRCRJN8EDfba0hxq4+jP3zvlfLvNIZiUHu9wN4NW9EYCdnkyw0J54uVaTlm5/G0NrtdGf74sj349UYO9FqnzSpJEjP7svAtbFAn3kcRhyxUZ1IdzRuV9/bXJvfKrTu8qNcdU4nIikIBdcpjp+Lntf2/1PLKr2b3C/7OCBEK8IY/+g4HCNkbinKIoElFyH7fNSSF3X59L1Yz+wwenXW8GM/MYWPzZFDSSkYBdlsxOoWvi5VoGvRJsPuV899QAd9EDOT+dbF+WR72BY/BhuM8pgzymiICDg3DX4No2J4XYfXuxZsz1P/f10NunB7mQ8vH63WIRGslIwC5LrsrWbomn62kc4tPfqXP87+jPF2dSDcvyqNchzEF9HMPHzEKGOf61bU4KsfvOEu3m0X94+4Tjsc9aPCHXExvwiDPQSEYCdlmyOEvzPo7F1zV91cksf/OYfczs2o9y6epledQbGITPEiMIgotgUwKK16FOb1nVWdfLHj70crj9HmSBxQOoHlgMmJVM23JMpKfdIejj5Zo4UYZtDa7fm2i87+45pk3+f7shjz6EAQhfdPAgyRDyYiTYKPVuHGTDdR8CildND1NUWevY3u0aG39TgyQDgUYyssAuW67I1HwYb9dkYyR4p87xx51N7jGzc8vy6Oof5VKvExiE3f0VeEEDoc9ATipeJwe4sFlNFm18JCQjAUPEyI3Ubok3N3JExCpr7dsDidj1ufRGEg9RxEZ5cLIsh2rNBBSv73zidaSXLQvnfUrSxUdCMhIwRExYnq8/WJ6mqY/Ha/NVrNj+yVnn6rEiRoUsYuOlUURCvL7tZkoqax07wi1eAABJWgIJGBKwy5u7Zhsf1ZFYXF5bt0sk/njcsXXrycExNbB+lEtVX59DbVRbvUKUxIte5h4vMz9U8TrcxZRW1jqqjvayEXlvMcNANKARjATssubmfP3+K7O0++P1+nrcEvFOPfPeuCKWR1dfl0ttCkcJHpIi1SztFlC8vuliSitr7VXH+iIjXik6HArQ4rdIwBAAd802PmzRxm839HokCChiuXT1dTnUJg0B74RyDgLHlQpYQPH6upMpq6y1Vx3v5yL2Yvi8dA1apQgJGAIAYHGWtuG6XN2H8XyNE4pYHl19bQ71tlaBiOH4xYmsGKbIjZ4wz6uy1r79RATFy9dnW9DIRQKG8PFPs4yPlqfRcR1TmcwSuzaH2qQlgxOx0YmsoigGm48YULy+7PDOr6x1bK8LY6rEeKTpCVhbYvwQjVokYAgfpSm0dUNFwpriJKovnq9zIhG7PpeuuToD36wjYNPkR7rY4hIEgQ5FvA52eBdV1jqqTkZYvAAAlk3TbUQjFgkYYhRXZ2vrH5yXsCaeKlVMJGLbTg2Nyci/Ybru0DVZxGY9ObGISaPSKERRmmyhjEnFq97K5Ue67dkmkl090/AUGq1IwBDjcON03aF75poej/fr7PVI8PYp7wdVp4fHZM//aJq2+pps6p2JSvEoTKOYzG2sOm3lorLS04/z9a/MTKKdaKQiAUME4P5y82u3FRs2TwURe6vOvfXjBsfq8dzJa7KozcYg64lRFOlRKl5fRVm8ytPohp8X6X+HRigSMMQkPLsk6VfrSk2vxWuSq7+IbTrh3PrxOBn7S3Opmquzqc0mGntj9N9Gp00QBCEoEa8Ls43RcRsBAPLMpGdDRcKafJT7hQQMERy/vjLx8Q0VCQ/nmFQleUaNHrdEbDru2PrxWddYEcuhaq7OGitiOE5MJgST5Hk5tp+Kknj5rOK7rs7W1qNRiQQMoYB75po2bqgwr4n3FIset0S8dcKxdftZ15iY2HU51LGrsqgtxuDLU0+WYb89GrONI6yeadh8ywzDTjQa4xNUDyzO+VmRYVeyjmj9qMH16vF+dnm8LijR7RKJP51wfCDJQNw+Kk9qaQ5VI8syHO4WwMXLD02QuDrp60F1URIvM43DqhmG1359ZeLjaBTGL8Szzz6L7kKck2smBwoSyY8zjWSzIEG2jRGz+TjUMScn4802/hYCx9rnptLH/f82PYHoFmR5qM8jczkm/FRBwg/VHIZZGT/WL5RM/GK2vSrSGfYjFFko691zTI8+WJHwIhp9SMAQYSBZR/BzUzXHc0zkP5K1xKAoy+lWr5gmyfF1nSMihmHQWZamqfX/W34C0clL8hAA4KMFjJNk/XjiVd3NlFTW2j+OhnglaXFYlKk5+ItS00O3FBs/QaMu/sFkWUZ3YQpS3c2UHGj3PnRygFvR4RCKhtn4MsnS9ASsm2N6+JdzTGNiXyetQvrcFPL7tw5a7SKRnzA2sP9tN1OysdZRVRuhqhIjGGkM5qRoapbmajfNS9fsLE2hrWiEIQFDRIEv29zzO11i2elBfnm7Q6hosvElbj4++jRVT8Bds42P31dmVrxI7nc9TNHGY44dkSqJQ+EA0xMoyDQSB8tS6V2LMrXbKtI1qEghEjBErPim01vaPCwsabbx17Q7hPmMKJcyggSMIAMjyOAVZGBFGaLpdibrcLhzlunXD8wzvxLsPjU9TNHGWseOcBQjJDAAA42DkcLASOFgoPH6HBNRPy2BqilIIKszjWQDsriQgCHijG+7mRJGlE2McOGfV5DMDg+bzgiyyX9FHZIkOBzHRVkGAscxUZYBRFGgZVkGkiS50TOGkiQRgiDQI8OGJEkOx3Fxooo4SVqi/Y5ZxqBL0NT0MEVHetk7wnEfCAxjDTRmM1K41UhhgwYaty7O0qJqqkjAEAgEIragRFYEAoEEDIFAIJCAIRAIBBIwBAKBBAyBQCCQgCEQCAQSMAQCgUAChkAgkIAhEAgEEjAEAoFAAoZAIC4L4rKkdOMQr2dF2cQIkokiMA+NY16KwNgZFsqDumzqcXaIMzGCbOIl0FA4sDSBeUn80unPs0OcycvLJgAALYk5S5Iv/bUjm228hpdkPS/KNC+BHsdApAnMQ+GYpzgpev0aEwE7Z+M1vR5xZp9bmNHnFksYQTaxoqxnBdk0UkGBFeXljCADRWBA4wAUge2mcIyjCcyTqieaMg1EQ7qBOJusI9pROZTYMl5/Mr6+ZAVZ7+vT5bwkA4VjQBMYkDjspnHMQxEYl6YnmrJNRF26nmxK0eOt8bh4bOswT3S7xNIul1Da7xFneHk50StIZq8gJ3oF2eTl5eU+AduvIzGbjsKcOhKzaUncmazF23PNZG22kawvtFDsVOrbhkHONOAVZwx4pPwBj1jU5xZmeAU5kRNlPS/BCl6UgZdkwDEMaAKAwrE9NIF5aQLzRKNfo1KNomWYJ9odwvx+j1jUZhcW9bmFGb0ecWWfW4Q+t7ql9lJ0BKQbCEjW4QdTdURreZpmx7QEslZNUbqdTe5V4WqrKIrkhXIzMgkAgGGYgGEYEATB4RgmyACkJEmEJEmELMuwdk7Sh1NOsIZ5TYdDKAtnf6YbCEjXE5CiJ/ZkGYn6slTNrmkJZO2sZNoWq3bW9DBFPS6x5LxDWNTpEMq7XcKqLpcAShdWMdM45JpJyDYSu9INZFOhhfw63UA2XZOtrYvH/j3Wx+Z1OoSyeiu3otctlgx4xWUDHhEGPKLiWnKR7teICtjJAS69cYhbWt3Nrmt38Cv7PaKizqdxDAw0BhoCu1CUT7xQmG88Mg0ETEugaqYnkDXz0jQ7S5KpzwuCXIj0vs/6T3S5hLJwtHnkfsoywIUaWRgEqpUlyyC+sDR5xsIMTetUEK7aPjav2cZf820Pe1eHiv7UEBiYaBxwDL7vT04c258YAExPIGFaArW/2EIdLE2l9/woT1cdrXaeHODSj/Qwa7/qZO7vcYllPW5hwgeXwgFMNA4YBuDkxm/TmIfaQDTPSaF3X5+n2xgv9cm+aPcu/rLDu77TKZR1OoT5Xa7wruM7ul/nptK7l+bpauJOwKq7mZKT/dzK2n52VeMQv6TfM/mN0JIYZBtJKEwkd1l0RJeRwqxGCh800LhVQ2AeRpBG3EvzECPl2rxi9hAjrTzSO9Yin2YmoSSZ3nVNjvbtYNb0u++z/hM1vWxZLAbNOytSZyzK1DbHs3AdaPcuOt7Hrjo9yC1vtvGLrEGIln9/JumIdiONW40UZjXRuBXHQPS5mGY3LyfaGDFvyCvltdr5ZeftFy/STRMYFCSS3TOT6INXZmm2rCw07I5kXKdugFu577zn304OcEvsE6wzkGMi985Npb9N0uL9yTqix0TjdgwDyclJFhsjpThYydIwyM1vGOLXBIzf4ABzUzX1V2drtlyZpd0yL03THSuL+kCb96F/nPc80TDIZ022PYVjkGMiwKIl6tMNRLOJxnsNFDZME5jHK8gmryBbnJyU0usSVvW6RegdxyqnCQyKEqn2Oan07utytW9dl6s7FnMBO9HPZn3a7Pltk41b0jjElwZTm31mEgX5idTOWcnU59lGsq4wkaoOJk5wzsZrTgywK589ZKsKtE2mkRDnp2t2rC42/nphZmArZ1uD685zNn6JR5AtXkEyeXl5pcdXgtnLS9A66qEKliwjAToSBy2JgY7ERn7u1pKYU0fiNi0BztuKtE8VJOvicsn6Lzu88/e0ep5osgnXNNu4vGCWcitJpmB6gvL+bBjkTNsb3S9vPeNaH2ibXDPpmZ+u2bmqyPD0RP2phn+0epbtafU8UTfArZjIDU7TEzA3lX5l2TTdxz8rMhye0KJp887+vM1728kB9opWu/CzQNsZaQzmpmpqluXp3lBSuTYcfNfDFG1rcL32XTe7crKFYQwUBvPTNYeKk+iDM5Oo/RYt3n1lAOux1c4TvS6xpNctlmw8Zq/qm8CIKU2hWxdnaT7414WJz8RMwL5o8y7e2uB67ZsuZnEw21u0OCzI0OxeWWh4Lj+RrMlPoBQ/xOeGec19n/UzQ8zEN/7h+QlPrZ9nfinYY3p52eQRpESvIFu8vGx68sDg52ru0qIMTd0ds4yPXhAszKElcaeOxIaLpkAg9y9nXOt2Nrl/X2/l8oPZPsNAwLx0zc4VBfoXpyeo689d59wrfnNw6LPJtlPSn8Hw3inn+o8bXf/VMixYJtouz0z+/VdzTS/NTaUPFyfRQffh31s88z884/o/tX3sryaL616Zpdl+e4nx8flRWGDkUKe37J065wfBrD2Qn0Dalk3Tbbxhmv4Pc1KVTZr9f/utn+09710xmVV39J4cTGkbwjIL+Yea4ee/6WJ+1TA0ufkJADA3lW6+cbr+9SU52ndCmUovTKTYWSl09dedE4smgQGn5JgAwALA95307wcHQVSp88vz9QdhCnHaylk+Out69csO5p4BT3AatDhLW7OiQP/SvHR6hxrhGmFloWH3azV2mOy8SvpzMp77eujtA+3MfVavOJlAH/jVXNNLq2caDyg9x48L9McStfiz/33Erq23cncG2s7qFeFv5zyrrV4x//aZxscjOXb2nfcsefek892TQax0XphIWdfPM9/x4wL9fjXnKkvV7JpMwIwUpqodIQnYwXbvon1t3sd2NrnvDHafhRmaunvLzOuW5IRnBqY8jd4xqYDhIIRyDhzDQLwM1g6oOutae7Dd+9DBDmZp0AI9Xbfrn0tND4drSbI5qfT+L9q8yyLZnwAAX3cyZX9tdj+3u8Uz6Qx0khY/fNds0x/UiJefyLdzFfLv/nDErm+28ROe89tudr7VI1VZveKv75pt2hzufj7Wx+ZV1jqqmmx8+mTbphsI2FBhXhOKmC7M1GzTk9ibHiHwM2SgcVVeiepM/L+dc6+orHVUKRWvDRXm1eESLwCA8lTNLg0xsXqTGMaFJmCXvHbBOyccj1XWOrYqFa8NFQlrwrmeYnkqvWPSb90Q+/PvLZ5llbX27cGIFwDAzfn6rffMNe0MtW3X5eqa/nm28Q8GCps0YH1umE+prHW8+26d45Gw93Wd43+DES9fH78WqiVYmkJb8xOp1knia4NRE7C95z1LK2sdVacHuTyl4hXuGbersrX1eeYfVnkO8I0dUszpUhewv5xxrausdbwarMvoL17hTswsT9Ps0pMT3/BQ+vO7HqaostZeVReE6wQAMDuF3nrHLOMb4Wrf6pnGA0tzdbuC2dbOSlBZ63j9izbv4nCdf2uDa9233eySYLbNMhLibcXGfw/HectS6d0TCxiuKi9MsYB908WUVtY6qtodgj7YfYqTqL5IiJefG7lr4pgJFtIs36UsYLua3Ssqa+3vcQoyFBdnaWoiIV4AAAsyNK2TfVur7c9mG6+prHXsaLVPHKwfwUzjR+4uNb1SkEhJ4WzjujmmVwsSyU+D2ZYRZaistW8/beUs4Tj3tjOul7kgA7rX5ujeDlcfX52tndAVNtKYqrdpFAlYXT+bXllrr2q28SnB7qOnMLhrtunhSOY6laVpPo2kBaZWv+I9anag3buostZRZWOCfz7T9AQ8OC8y4hX0F5LK/nz3pOM9Jat9L8nRfvaTQv2RcLevNIW231Zs/BMAnAtm+4YhPquy1v5JqOf92zn3imBdRwCAq3MmFh0lLM3T1aToiIkssOGICljLME9U1jp2nOjnShT6/TtvKzZsj+SDWJ5G70rW4XFngcmyTMSreNX4XKkOZ/CW9IV4kO61+RmRneIvT9OE3aL+n5POh/ae965VsMu5lUWG9yLVxrvnmD5N0xNdwW5/sINZ+sJh2x9DOefe895/U7J9uN9+mJNK7w8sYBG2wD4843rz6yBzvEYoSCRtv5xjuj/SD2N+AiXOTqEPBfo7GaMYmCRJEK9sOu7YemaQz1OyzwwL1XfbzPDERCZiRYF+T5o+sPYr7c8zg5xla4PrVUYI3ibOM5NNS3K05yLZzkWZmgMKLaj1OxrVv7d7pIddHssxd32eduMEFljkYmA7Gt2r/tHiWa/04LcVG/89WpUiytM0Oyf4xg5xFvLSCoL9uc7xyJFedr7S/VbPNDzly5OLOHPT6D3h6s9PGt3PdzoFjZJ9luRoP4t0G5fkaP8WrBsJAODiZKg663pFzbm+aPcudnCx/UK9rdi4PVDGgIHCI2OBnbZyli31zk2TvWYwXqzk7jmmTdG6OeVp9C5tgJsTat4QcQkJ2GkrZ/mk0f2C0qoCOSaSjUROkqovJAX92WTj9QfavQ8pPP25JTm6iAvYTwsN3ylxIwEA6q1c0a5z7hVKz9XjEkqU7vN5m2dJuNs8I2n8CZqIBfGrzrpeVhL48zOPt0fzwbwyU9swLYEc92VYMsTMbdWzkHGoe1VnXS+3OQST0v2uy9W+Fc3rLE+ldxkCZGcr6c+/Nrt/36uwxE+6geiItPv4vaWZSn+nZHtRBvik0f2icgETS5Xu0zjELw13e2/O178SwAIbDruAnbZyloMdzH0qzeN3ov1wlgeYjSRwLNQYmKhuv/iq2K22PzUEBjdM070ezWutSNe0FyRSzaH0Z+swT+w7731E+TiiD0ernXNS6W+V7nOinyvbe96jSFx63WKJ8vHC3xTu9v5yjmnj+AKmzgKb8FWijxtd/6UkudHfffxpBMueTORGbmuA9eO4HCHNQmIqXUgsxNnPcLO90fWymv6clUw1xKLkT3ma5tOTA9xjavvzsxbP010KY18AAGWpmsNRHLNfw4U4WGGw+3CiDJ80up+/abr+2mD38fBSotJrq7dyS7/tYUquzAxvvbJVMwwfjnUh8fAL2MF2Zr2ag0bbfRzhZ0WGXa/V2GH0i7kkFrIFJgCA4pSIePMgD7ars6ZvmK5/IxbXW55G73q/Hh4b60IG1597WpWlDfg4F00LbGGGtidBgw/aWalQyX7Hetklp62cZXZKcJVN9SpcNKtXhPdOOv90Zab22nC2+T+vTborXMcKKGCft3mX9HnUGRDz02MjYAAAGyrMd1m9YoH/Z1dla+tj4ULGE+/XO+/rV9mfV2Zpt8Timm/O1+9vGebH1IgKpj/r+tn0NgevOHvdTOO28jRNVNdYmJlEHf+uh71CyT4eQYbqbuYXs1PooL5cEjR4l5pr+66HXbL1jGtdtOuUhSxg1d3ML0LokP2xatDtJcaw15i/FATs8zbvY2r2S9bhUJJExWyRjQ0VCS+o2a+ml71LUvEqRH4ieTrabZybSn/3XQ/7gNL9qrvZdfeWQVAClqYnVIUAWFGGv5xxvWrR4u3xWBoqYJS5podZq+aAJhqHsjRNH1xC4BgmTPU21Fu5UjX7zUyiq6die7/uZO5Rs19+AhX1+vT5CZQq0Txt5RYpEEnVMWlfZYyqPa2epXH3bAa4YE27Q7Co6wyyGS4xcJjaFtgXbd7FSrLQ/ZmVTH0+Fdt82sqpWuMg20Sej/a1+s6pOG3DwUnwtyBzwq7K1tZnGQnV43hExKrOutaG68XyiAnYsV72NkFl0u6sZPpzuMSY6i5kk41TnZBYkkzvn2rt/Wuze6VHpWBnG4lz0b7eBRmaHrX7HuoMfmJmUaZmWyjX6ROxrZW19k/iRcjwAO7jHeoHPLUfLjGmuoA1DPHL1O57c75+yvXn4S517iMAnMsxkS2xuGYdibnU7FfTw64OdtvrcnWbQi0NNeAR4WAHs3REyD5qcN15coBLj1VfjxvEbxhUP+DzzOQxuMSY6jGweiu3XF27p2Z7W+3CIrX7zkvXxGSV93QD0XXeLpQr3U/JzPJN0/UHiy2O7mDXrphUyDzi0norv7QkmTq0OEv7/txUendFFBYjmdQC6/OIJrUHTNISHcgCiy/63KKqsj40MTUVzMlJKWr2IzDgY3XNKTqiJxrn+XGB4cVwHs/qFeFQJ7PkTyccf6ystVdtOu548mgvmx+1Z3O8D72C+lJ8hVNgyTClYJg8ZQXsyw7vfElld2qmroDpVbWXxGI2dg2UOhcS4MIL68Fue2+Z6Y3SFDrsK8HbWQmqu9lFm086XqystVe9W+d4pK6fjbhrOUbAavvYPEBcLGBTeEWi83ZetTs1VQXMrbJsjJbAPLG6Zi2p/txKLc4NFeY1Zk1k3tN18zJ818PO//NJ5+uVtY4dW8+41p0ZjFywf0wrhlkp63Ib8JMKGMCUjYG5eTlFdX+SsXugQ4GXoi8iMRYwRZbOdbm6YxsqzPcbqMg9r3ZWgq+7mMWbjjveq6x1VO1ocq9qtvGacJ9nTBDfpTJ+AAAQKVWPNZdCJr7KLyTP5dTemAoYgUfNAgMA+OfZpndECchPGt3PnxvmUyLVLqtXhAPt3mVnh7hlc1Lo3cum6d4IZ6EHPBw343sBU/lGedwLGI7D5YiGwJxT7ZqVxIMuHQtMVhVrunuOadOGCvOa4iQq4m/O9LhE2Hveu6Ky1lH1/DdDf6y3cmERzTFPJiPIqmcg9RQ2fGlaYNiUtcAwTL37S09BC8zLS6YQ2huzIH4o5/bwkuoY0/J8/cENFQlrrsrS1kSjne0OQf9Jo3t9Za296ssO7/xQj0eO802g+ltXlIAGRFyhI3HV/SnF8apKgSBw9V82kgwxM7VFWVZ9bjLEgp03TNMdStbityTr8Ne+7WbXDngj+33NSwBfdjBLB71SlYOVHl5ZpN6lHHPTUnSE6ilWh8JgIiLymGhctXvACrJ5qrU3lEVkGEHWx+q6Qzl3KH08wrx0Tff/XZp8x4MV5ruuzdEeStJGXsvrrVz+H487qt6vd96n9hhjLLBUfQgCxkoaJBnxhTkUARNl3eV0r7xTVMDMYRCwEW4vMX44K5nee2KAXfVVB3N/vZVbbGcjt5pRu0PQbz7pfFuUQROo3LQiAQvlVQA3LyHFiDcB02C9IQiYeSq2GccA1CTvMoIUMwHzCrIxFn08HnNSaeucVPqdOSn07to+9pZvuph76q38ImeElmXr94jwwWnn60WJ5KFrcnR1IbmQAOpLIYvypSkCkgzEVL12E40PhiBgU7LdehKPuojE2IUcjMQ1ladpuu+Za964oSJhzT1zTb9elKmp00cod6zHJRKbjju2Kv6yGu/DSCa4TVEBm7LMSqZtavdlhanZcJNGXSA/tjEw9dZfKH0cDBXpmvZ/KTe/sqEi4ZZfzjE9szAjMkJ2vJ8r+dMJxxMhC1iKnlA9cxVPxc7CJ2AyAZch7BQ1qdXGhAQJqFhd8xAjpcT7fV2YoWndUJHwwoYK8+pICdln5zxPhixg08yU6pI4vW5x5iVogZFT+foTVL4hIUzRkGaWkVRdFvrsEBcTK6zbJU6PZt+GwqJMbXOkhOzcMJ+y/aw76HL2eAClVV25scnGL4VLDFGe2vlt5Wm0qsUYZACIZmmUcBHCqliFXU51QhIqTk5dMurcVPpQrO5zpITsUKc36LSKcQXsqmzNZrUnPzPILYNLDEmWp7QFdm2OTvUq6Q1TsD9DGb/dLiHqAhaK1bckR/tOrO+3v5DdOcv4Qpo+tIhL3UDwBTjHFbDiJNqTZyY9Kgf8DZegCzmlY2B3zDJuUTkxBw2D/JTrz1DGbywEzGf1FSrdT0NgcNds0+Z4ue+LMrXN/7ow8Zl75pruzzGRqt8OGPCIEGzlioDD+upsraobo7b6JxKwyFKYSHVfTha12vHb7RSj7jKrFc1CC9Uej/f+F6Wmd9bPM98xPYFUPRnY6RSCWlWKDKymmm1/OeN6SOmJRRlgf5t38bJpupitJ1jTwxSN9+1wKQlYZa39af/fs4zkqVUzDDsDbb84S/vB2SH+CaXn6XAKMX89TE1/qh2/jUNcebTbd2aQW6hmv8VZmrhcLRsAYNUMw84+t/jc/ztmf1nN/vYg6xIGFLCbpusPJmptMMwon4o6NcCuiJWAbT3jWvePVs8TAOCv4HWLMrWqB2a8xcD2t3kXV9Y6nr/ogc3Q1E0kYAsyNNv+55RTsYB5BRk+b/MuuWGa7lC89Gemkdi2KFM74cpZasdvlyv6QfxjveqWvVucpX0/2G13NLpX9biFOf6f3TBN/1pxEhWxiiMPzDO/sue854nGIV7xl6CdlTJCEjAAgCsytbv2tHpWKj35tz3sXQDwu1gM+LoBduWRXna0+VkWyjHjzQI7NcCtULrP9Xm6moJEytYyzCue7fqyw/tArARsvP6cl0YH1Z8LMzS79533KrpXMgC+q9l9xcoiw3fRaF/LMI/3uJW7kDOTqO7FWdqg00U+Out65eQAVzTqy8n0eFLiU5Fs323FxqderLa9q3S/YOcyJwzt3jLD8LSJVh79bRzii2K1Vlxdv/KHe8oJmFVdG28tNjyjZr/DXcy6WLV1vP4UZAgqwPvTQv3/VVHmvLC2j70uatZXH3udJMMMpfv9fIbhOSXbe3g5cfRnn5/3PhLp9t0127jZSCtPrUjVE00hC9iSHG3dVdnaXUpPzooyHOr03h/twf5lh3d+l0swhfu4Ypy5kGeHOFULdfxyjmnj3FRacSyw1y3CtgbXnfHSn6IU3JsRN0zTH5qXTitOyq7tV7+SuQqBvkrpPtMTSOe6UtMmZQI2Ns+swylEJWk300AqfjMiy0jUhyxgAAB3lBgfs6ioDXSoU/XqyCG4G9zKSGSPx5MF9mmze6WNUd/IX5SaHtaTyr8R9533PBYv/SlIEHTZpluLDf+u1AhrdwgzTg5E55W4o73Krb2b8/WvKN3HxY8v+n9tdq+MdBszjYTiNyPK0jRBid6kyrQoU9O8JEenODO/cYgvGm/2KMLfZhHpjHh6mVtN/MufFQX6PYuztHuU7ndygFt0LMpL7gXqT1GWg34z4icFhj1zUmlFDxAnyrMPdXp/Gun2HepkCjucgiL3MdNAiCsK9C8oPZc3wDf731uUvXuohhwTqahEToYheHshKNPqjlnGR1N1yowQVpThgzOuN6M12JttvKZBpWs1uYDFj4KdsgafpRzQCptjfDBFYX+6eRm2nXG9Gg/9qcQC81lhz6gQl5sjL2Den4DCBNbr83SbChIpxdU2AnkmtX1sxN1lpSWvleTwBSVgZal03y3FhueUBkS/7mSWb21wRSUAXDfArhxmIvP2cbxYYPVWLqVlmA/Zql2YoW29VUV/ftXJrN7b6lka6/4UJWUu/W3Fxu2LFS5a0TjEl0fajTzUyfxEyfZzUujWW1ROxEz0xXSo01sWyXYOeERFVuaPpumCrswadHDrkQUJv7tpujJXkhFk2HrG9WokV+aNtPsYTwJ2aoBb4ebDczFq+tPJSfA/p5xvxzocIMiy4tLlGyrMa4osVND18llRnru31XN7pNr39xbP/HZH8O5jtpFgN1SY10Si9ld1FxtRI6NlOPjV4acnkM6lubqgv2wURefvLTPffX2ebr9CVyDl/XrXH2MtYK12XnUgPm4EzBreFBE1/Vk3wBX9uc7xSCz7U1RhaFeka9o3VJjXJCooP7OvzbsmUlbYB6ed/6rEfbx7junBa3N1qspcTVaj72CHd32k+rFxiNeftwtBZdVjF6xlRXlpigSsyEKxGyrMa67O1irKsj/Q7l3730fsz0fqJlV3MSXtTmHCgnCipL6mV7zEwE4NcDeF83hq+3NHk/uFTyM4ezVZfwoq++Om6fqD95WZHg52+06ncNOWeufj4W7fu3WO2473c9cEu/3qYsPmO0N4adsjjM0B86fNIZiO9DIReQd0d4vnN8EWxlyQoam7Z66yhT0U50fMSqZtGyrMqxdmaIKeWXByEmxrcD39X4dtEQnq1w1wK7lJbpKSmaux+8ZevGp62KKOSURaDWr687xdMG067tj6lzORiW9O1p9iCKHOX841b7y12BD0O4SHOrw/2d3iWRiutp0Z5IyfNLnvC9b6WpihqfvdkqRfhXLOYBa+PdrLro1EX+4773k0mO1SdATcV25WPJ5UFVkpT9N0b6gwr15bYtwUbBzYyUnwSaP7oae/HNraMMiFNdn0RD+7arJtlM5cxZsLeWqAW8FFSEnV9Ge7Q9C/W+d4950TjrDnh03Wn0KIHfL7JUl331tmeiGY/EYXL8/fcsr5+PE+NixfHm8dd/zuvF0IKni/PF+3a0OFeXWo53Tz8qTXXtMTfgF7qdr2eptj8sRyI4XBmhLDM9dka+uUnkN1PdpFmdrmZ662PPgv5eZnSpKCK9XCiDL87Zx7bWWtY8f+Nu/icN2o04OTZ04Hm70dry7kKSu7IpLHV9OfPW6ReP+089X/+Grog3Dm/E3Wn+HQ8X9bmPjMhoqEu8vTJs8RO2Xl7qysdfznmUEupFWL/vMb2xMH2r2Tut4WLQ7/NMu4cUNFwppQqqh8L8KclDy5ZcjPPzXAhs3Cr6y1P/1Zi2fSWCmFA6yaYXjjoYqEF9ScJ+SC2g/NT3hhQ0XC6mCnqSUZ4It277LKWvv2ylr706FaY582u1cOeif3KURZuQV2dogzHe9js+LEAlsejfMo7c9BrwQ7m9x3VtY6tu9scq8K9fzB9KcQpg75p1nGLRsqEtZcE0QM8HA382BlreP3p63qROy/jwzft6vZ/QtRhpKJtpthofo2VCTc/ZurLA8XJlJsONrp4idfMMTJSXC0L3Qr7JsupvTpLwe3/uWM6/nJ3hjREBisKNB/+ORiy6NqzxeWd/x+NE1XnajF11i0+OsNg9x1rXbBMrk48FndLvH5hkF+2ZIc7dvZJrLu6mxtvdJzTzb7aNHiMC9Ns3+iBXt3NrlXeQXZ7OalFBsjZXl5yeIR5ESvIJu8vLxcbcilyyWUjq7bpYYBj5jfG8VCkWr680gvW9btErYf6WW3LcjQbM0yEvVXqLAeJuvPDAMBi0JYs2E0V2dr640UdotZg286beWWTeTyHGj3Pi7LQNwwXffR3BT6u0ILxU92/L3nPeX727y3HepkfuwV5IAlnVL1BMxOpg6ummF45sbp+rBW/ihL1ey6tdiwqLaPveW8PXD7vmjzPmSmib5kHd6aYSAbgi21c7yfzepyCuUnB7gV9VbuphP9XMlk+xQmUtarc7Rbfn1FYkiTJJgcZvfo7y2eZV91etc3DPJLm2zB1QFK0RGQbSIapidQtYWJ1KF0A9FspDCrgcatRgq3FidRnpZhnmBF2cwIsmmIkfLa7HzF2SH+hjOD3LLxOiXHREJxErVncZb2/Xlp9I6SZDpgdcj7Pus/0TzMl3l4ecouJbYoQ1P3zk/Swl6MT01/ZhoJyDKS9dPMZE1+IlWTpg+9P/PMJJQkU7uuydZtvrXYsD0S9/Czc57lBzu8D00mZJlGAuam0P+1NE/3qYnGbSYatydqcSsOIDo5KcHByUkOVrJ828PcdHKAu7LZxq+aTLiW5uk2zk6m985Oidwaj7tbPMu/6vDeV2/lbhrvS4nCAZJ1BCTrCMgwEHvyzGStkcatNIF5aBw8NIF5cAwTvYJk8gqyxcXJyVavWNDvEYu6nMKidocw6TWYaBwWZGj2ryzUP7c8X38w1DaFXcBG2Hfes+SrTuaBM4PcDQ2DfFaw++lIDNINBBgpHAw0BkYK32Ok8UFGkE2sKK9kBBmGGBE6nQJ4RiV1pukJyDOTddPM5LH5GZrtxUnUwZlJ9KRlbe/7rP9EzdgaYkjAwtCfegqDNH3o/bkwU7OtJJneHy63Klgha3cIpkBPSI6JBBONgYnGIVFLAO5zxRycBA5WgrYJHuh0PQElURKu8b6UDncz97TZhfltDr50IpedxAFoAgMax4AmMMCxC0UuvYIMwU4q4RjA9AQSppmp/XNT6V3X5Gg3hyshN2IC9r1Z2u5dfLSHXd3nEUv6PcLKPrcI/R4xLGsOkjhAlpGEND1RN81MHpuTSu/OM5PHlAY+K2vtT3e7xNKpLGBZRqJ+g8pAaLz0J01gkGkgIDXE/gynkJ0e5G5qs/OLOpzC0g6HAHwI7ZxmJiHPTB7KNpF1JUnU/pJken80hWs033YzJW0OoeJEP3tLm12Y3+USioKJJweDgcIgw0BCppE4VJBIVc9NpXdPM5M1E3lCcSlgI7QM80S/R5zR5xZn9nvEGZ1OoazPLc5w89JiRrjguo3+iQEAhWNAEr6fOAYUDpBjIo9lGsmzWUaiPs9MHkvTE02xGuSXK4H608VLi1nhQh8yI33p+z+JX9yPFI6BnsIgy0hWZxiIhmwTWZdlJOtT9XhLPPXnaStn6XAKFR0OofzcMH9Nj0ss8QpSqVeQwcvL4BHk76s96EgcdCQGWhIDne9fqp7YnWcmj82w0F/mXRBma7z159edTFmXSyjtdgqlg4xUYPWK+YNecbGdkYCXAHhJBl6UL/yUIGBf5pjIQxkG4uy0BKomw0A0ZBrJhrmpdF+krjtqAjYeJ/rZLDcvW3zuhNn3U+/7acIARAoHliQwjsIxD4kDS+EYm2Mi6xZkaFqRjMQXJ/rZLBcvp7CCrGcE2cyIkokRZBMryCZGlM0kjrF+/chROHj0FG7LMhL1wdZ/ige+7WZKvIJs8gqyxctLJt+Ej8UXArHpSMypJTGnjsRtOhJzpuqJ5iJL5F3fcFI3wKYPeqV8OyOl85Ks5yVZw4tw4ack6wP1ZY6JrIumQMdUwBAIBCIUcHQLEAgEEjAEAoFAAoZAIBBIwBAIBBIwBAKBQAKGQCAQSMAQCAQCCRgCgUAChkAgEEjAEAgEAgkYAoG4HCDRLZjalP25Q+kuNwJAi+9fMOz1bfsUANgutftXd28uGkRIwBAxEq8CACgAgAU+YVoLACOVNkf+5v//Bb6fRwEg2KXC9gHAk77jr/f9roQFCoXP4rs+BAIJ2CUoWk8CwAN+wgQ+C+moT2Se9IkG+FlZR30i8lIA6+t2374TidiNvvPeHmCbQBbaA37XGwwtMPGaibf7ibTNd23BCqRl1PV/dClalZcTqJzO1BSxB/we9r2+B75llKiBT8xafMI1wjbfQ7t+lMi86HugR1tPBeN8Pp5IFQZwSy1+ghMMtgCiUuC79oJRbbUBwE1BuMQjbbT5ti3wXdfauntz96FRhQQMERsX8two8fAXqCd9/wp9n93oE7ynRonaA37b+QvGEZ+F89QEArHAt10hBB9XU8MRv3a1+InjXt//F07ixu71tdm/3S/62r6w7t7cFjSiph5oFnKKCpdPvCx+D/LI7/t8blIBALzlJ1AjFtm+UQ+xv+Xjbylt8v0+8vCfG/XviE8QRywiSwSbbPGzBFtGXfNHfpZiIJ70c6H9eWnU/UFMMVAMbGq6j5vGsU7AJ1jr/Syq9X4iNhIbu2mcw77lt12B7/gjAtgyyqV70ico/gH9jyLcbJufFTne3yZjAYw/+TASQ7sRjSwkYIgoUHdv7ltlf+7Y5ycmD8APMSCbnyC1+B7Mp3yf7fUJzUQzfCNxoqO+Y26DH2Y3bb6/WXy/TxQ3ut23bai85Wcl2SY4174J3NeRGdijE4ijBY2sqQmKgU1dS8zic+Usvod3ve8hHRGOEfduLVycUjHCU+NYViOB/LV+D/+LfhZKi+9vk8WLCiaxap70c3cnEsKj4wjPglH/RsfFxruWc6Os0dGivQkAClEc7BKxwFrt0VvG/nIlP4EQQzzEk37Ww0c+a2m9TzhGAu8j6RMPjHqgF/hZZiO85Nt+36ht/VMWCnzHmsySawkgFv7C+pHvepWmMdw4qj1RzxlDz4cyJEkiJUkiBEHQyLIMsiyPuX8Yhok4jgsEQYgETrAFFjKo52OMgH3Vxc9vHBKXAsCr6NZHjMevzJS3zEkhVS0/5QvgP+ATnRd9YlHgE7WRh/qjUeLkb3EUBBCOfT7BGhGJETFc6BOlkZyuJ/3OMZKDFqz18qKfxagmB8t/JnGB71r2+q5RzfEsEDh1YwwnrUL6dz3CXej5CA4ZZJAkCUC+8H+fXAWSOsBABhyXHu9yiwevzdEcUyxgBAYshYMHAB5Etz9u2eYTgY/8XEb/WFeBn5UyIkoL/Kyq8ayaEZfsRj/3zj9QX+Dn8t3oiz096WehtcDk+Vgv+o7jLzYLfC7cU6A8y/+ob79zfoI+GhtMHOcqAABb3b25QYsfej6CES4gJFF8UwYZcAwAMHgUx3ARw/ERCfvewpJlmZBkibgQzpJfBxBflUV5QTDnQTGwqRf7Ggms3+R7MEfngZ0bJ9Y1Ih5H4YeUhEI/C+QI/PAKz4ilFUycayT2tGAcS280t/uEarwJAP82HQ2w78iEhC1AjOulcdziEUZyyG4K8LeWuntz16LRFUY328YSAs9rZFkGDMOAIEm2IEk7oVt4zurRiOIP7nlxusmjKgaGiGteAoB9dffmHvW5koG2GR2D+sjPhXxylIVyk5+lMmK5TWRNFfgJ5WSB+BELbyIr6ymf5bhtgvM+4BO3t8a5lsliYR/52lww6tgjludLaFiFl3yLRgTQeJTsU5iiV7x6ORKwKUbdvblHYfLAtQUCJ3aO50pFcvZtxPJ6yydeBaNcWvATwgd8IrZwHAEacZctfiI4Eqv7yE+gRyxK/xSMl+DitxCO+q7rAQD4qO7e3I/QyJqaIAG7NHkRJs7DCkawbofAge1g86Ys8ENG/5N+lp9/0Nz/5fK3fOfdBj+kcoywFn7Ie/M/zltBWlBr/e7LiCX2Vt29ucj6QgKGiDELRonSUxA4O/72UQ9xIMLxeo0NfohL2fwsx4lm/SYKuI/MQPqndoy3f2GAz9f7uZ0o5wsJGCLGjH4QR9wr2wQP6Mjs4mQP8EQxsBE3LRjeUtimp4IUxlBA4nWJgGYhpzgqKrKqEcZLFlSRFQkYAoFAxARUTgeBQCABQyAQCCRgCAQCgQQMgUBc6vz/AwDpBIYvk94MpgAAAABJRU5ErkJggg==;" parent="1" vertex="1">
          <mxGeometry x="377" y="20" width="68.17" height="50" as="geometry" />
        </mxCell>
        <mxCell id="DOYagENMo1T1TxlhpTYe-158" value="" style="shape=image;verticalLabelPosition=bottom;labelBackgroundColor=#ffffff;verticalAlign=top;aspect=fixed;imageAspect=0;image=data:image/png,iVBORw0KGgoAAAANSUhEUgAAAPYAAADYCAYAAADYtB6OAAAMRGlDQ1BJQ0MgUHJvZmlsZQAASImVVwdUU8kanltSIaGELiX0JoogXUoILVKlCjZCEkgoISYEEbuyqODaRQRs6KqIomsBZK3Yy6LY+8OCirIuFmyovEkBXT3vvfP+c2bul3/++f6SuXNnANCq4Uokuag2AHniAml8eDBzbGoak/QYIIAMMEAHhlyeTMKKi4sCUAae/5R316E1lCsuCq6fx/+r6PAFMh4ASBzEGXwZLw/ifQDgJTyJtAAAojfUW08pkCjweIj1pDBAiCUKnKXCJQqcocKVSpvEeDbEOwAga3K50iwA6M1QzyzkZUEe+k2IXcV8kRgALTLEATwhlw9xBMRD8/LyFRjaAYeM73iy/sGZMcjJ5WYNYlUuSiGHiGSSXO7U/7Mc/1vycuUDPuxg0xRKI+IVOcO63czJj1RgTYi7xRkxsRDrQvxBxFfaQ4xShfKIJJU9asqTsWHNgAHErnxuSCTEphCHiXNjotT6jExRGAdiuELQIlEBJ1E9d4FAFpqg5qyR5sfHDuBMKZulntvAlSr9KuxPyHOSWGr+m0IBZ4D/bbEwMUUVM0YtFCXHQEyH2ECWkxCpssFsioXsmAEbqTxeEb8NxL4CcXiwih+bmCkNi1fbS/NkA/liC4QiTowaVxUIEyPUPDt4XGX8RhA3C8SspAEegWxs1EAufEFIqCp37JJAnKTOF+uQFATHq+e+luTGqe1xqiA3XKG3gthUVpignosHFMAFqeLHYyQFcYmqOPGMbO7oOFU8eBGIAmwQAphADlsGyAfZQNTW3dQNf6lGwgAXSEEWEAAXtWZgRopyRAz7BFAM/oJIAGSD84KVowJQCPVfBrWq3gVkKkcLlTNywBOI80AkyIW/5cpZ4kFvyeAx1Ih+8s6DsebCphj7WceCmii1Rj7Ay9QasCSGEkOIEcQwoiNuggfgfngU7INgc8O9cZ+BaL/ZE54Q2gkPCdcIHYRbk0RzpT/kwwTRoAN6CFPnnPF9zrgdZPXAg3F/yA+5cQPcBLjgI6EnFh4IfXtALVsduSL7H7n/kcN3VVfbUVwpKMWQEkRx+HEm3YnuMciiqOn3FVLFmjFYV/bgyI/+2d9Vmg+fkT9aYguwvdhp7Bh2FjuINQEmdgRrxi5ghxR4cBU9Vq6iAW/xynhyII/oJ39ctU9FJWWu9a5drp9VYwWCIsX+CNj5kqlSUZawgMmCO7+AyRHzhg1lurm6uQKg+I6otqmei8rvA2Ks8003xwyAUYX9/f0HvumiawDYB/cCavs3nQPcL7TcATiziSeXFqp0uKIjACrQgm+UMTAH1sAB5uMGPIEfCAKhYDSIBYkgFUyEVRbC9SwFU8B0MAeUgnKwFKwCVWA92AS2gZ1gD2gCB8ExcAqcB5fANXAHrp5O8AL0gHegD0EQEkJDGIgxYoHYIs6IG+KNBCChSBQSj6Qi6UgWIkbkyHRkHlKOLEeqkI1IHfI7cgA5hpxF2pFbyAOkC3mNfEIxVBPVQ81QO3Q46o2y0Eg0EZ2AZqGT0WK0BF2MVqK16A60ET2GnkevoR3oC7QXA5gGZoBZYi6YN8bGYrE0LBOTYjOxMqwCq8UasBb4P1/BOrBu7CNOxBk4E3eBKzgCT8J5+GR8Jr4Ir8K34Y34CfwK/gDvwb8SaARTgjPBl8AhjCVkEaYQSgkVhC2E/YST8G3qJLwjEokGRHuiF3wbU4nZxGnERcS1xF3Eo8R24iNiL4lEMiY5k/xJsSQuqYBUSlpD2kE6QrpM6iR9IGuQLchu5DByGllMnkuuIG8nHyZfJj8l91G0KbYUX0oshU+ZSllC2UxpoVykdFL6qDpUe6o/NZGaTZ1DraQ2UE9S71LfaGhoWGn4aIzREGnM1qjU2K1xRuOBxkdNXU0nTbbmeE255mLNrZpHNW9pvqHRaHa0IFoarYC2mFZHO067T/tAZ9CH0Tl0Pn0WvZreSL9Mf6lF0bLVYmlN1CrWqtDaq3VRq1ubom2nzdbmas/UrtY+oH1Du1eHoTNCJ1YnT2eRznadszrPdEm6drqhunzdEt1Nusd1HzEwhjWDzeAx5jE2M04yOvWIevZ6HL1svXK9nXptej36uvoj9ZP1i/Sr9Q/pdxhgBnYGHINcgyUGewyuG3wyNDNkGQoMFxo2GF42fG80xCjISGBUZrTL6JrRJ2OmcahxjvEy4ybjeya4iZPJGJMpJutMTpp0D9Eb4jeEN6RsyJ4ht01RUyfTeNNppptML5j2mpmbhZtJzNaYHTfrNjcwDzLPNl9pfti8y4JhEWAhslhpccTiOVOfyWLmMiuZJ5g9lqaWEZZyy42WbZZ9VvZWSVZzrXZZ3bOmWntbZ1qvtG617rGxsIm2mW5Tb3PblmLrbSu0XW172va9nb1dit18uya7Z/ZG9hz7Yvt6+7sONIdAh8kOtQ5XHYmO3o45jmsdLzmhTh5OQqdqp4vOqLOns8h5rXP7UMJQn6HiobVDb7hourBcCl3qXR4MMxgWNWzusKZhL4fbDE8bvmz46eFfXT1cc103u94ZoTti9Ii5I1pGvHZzcuO5Vbtddae5h7nPcm92fzXSeaRg5LqRNz0YHtEe8z1aPb54enlKPRs8u7xsvNK9arxueOt5x3kv8j7jQ/AJ9pnlc9Dno6+nb4HvHt+//Vz8cvy2+z0bZT9KMGrzqEf+Vv5c/43+HQHMgPSADQEdgZaB3MDawIdB1kH8oC1BT1mOrGzWDtbLYNdgafD+4PdsX/YM9tEQLCQ8pCykLVQ3NCm0KvR+mFVYVlh9WE+4R/i08KMRhIjIiGURNzhmHB6njtMz2mv0jNEnIjUjEyKrIh9GOUVJo1qi0ejR0Sui78bYxohjmmJBLCd2Rey9OPu4yXF/jCGOiRtTPeZJ/Ij46fGnExgJkxK2J7xLDE5ckngnySFJntSarJU8Prku+X1KSMrylI6xw8fOGHs+1SRVlNqcRkpLTtuS1jsudNyqcZ3jPcaXjr8+wX5C0YSzE00m5k48NElrEnfS3nRCekr69vTP3FhuLbc3g5NRk9HDY/NW817wg/gr+V0Cf8FywdNM/8zlmc+y/LNWZHUJA4UVwm4RW1QlepUdkb0++31ObM7WnP7clNxdeeS89LwDYl1xjvhEvnl+UX67xFlSKumY7Dt51eQeaaR0iwyRTZA1F+jBA/sFuYP8F/mDwoDC6sIPU5Kn7C3SKRIXXZjqNHXh1KfFYcW/TcOn8aa1TrecPmf6gxmsGRtnIjMzZrbOsp5VMqtzdvjsbXOoc3Lm/DnXde7yuW/npcxrKTErmV3y6JfwX+pL6aXS0hvz/eavX4AvEC1oW+i+cM3Cr2X8snPlruUV5Z8X8Rad+3XEr5W/9i/OXNy2xHPJuqXEpeKl15cFLtu2XGd58fJHK6JXNK5krixb+XbVpFVnK0ZWrF9NXS1f3VEZVdm8xmbN0jWfq4RV16qDq3fVmNYsrHm/lr/28rqgdQ3rzdaXr/+0QbTh5sbwjY21drUVm4ibCjc92Zy8+fRv3r/VbTHZUr7ly1bx1o5t8dtO1HnV1W033b6kHq2X13ftGL/j0s6Qnc0NLg0bdxnsKt8Ndst3P/89/ffreyL3tO713tuwz3ZfzX7G/rJGpHFqY0+TsKmjObW5/cDoA60tfi37/xj2x9aDlgerD+kfWnKYerjkcP+R4iO9RyVHu49lHXvUOqn1zvGxx6+eGHOi7WTkyTOnwk4dP806feSM/5mDZ33PHjjnfa7pvOf5xgseF/b/6fHn/jbPtsaLXhebL/lcamkf1X74cuDlY1dCrpy6yrl6/lrMtfbrSddv3hh/o+Mm/+azW7m3Xt0uvN13Z/Zdwt2ye9r3Ku6b3q/9l+O/dnV4dhx6EPLgwsOEh3ce8R69eCx7/Lmz5AntScVTi6d1z9yeHewK67r0fNzzzheSF33dpX/p/FXz0uHlvr+D/r7QM7an85X0Vf/rRW+M32x9O/Jta29c7/13ee/63pd9MP6w7aP3x9OfUj497ZvymfS58ovjl5avkV/v9uf190u4Uq7yKIDBhmZmAvB6KwC0VAAYl+D5YZzqnqcURHU3VSLwn7DqLqgUTwAa4ENxXGcfBWA3bHazlVcSEBsEQGIQQN3dB5taZJnubiouej0AJMv+/tf5AFBg+xze398X19//BZ5tsKsAHH6mul8qhAjvBhtcFeiyxV7wo/wbAah9ZxmfC9gAAAAJcEhZcwAAFiUAABYlAUlSJPAAADBGSURBVHgB7Z1pc1zHlaZrx0aCJEhwB0WKFCnJWmzZpsfytLyo13Evjp5wd/R0xHyY3zC/Zj5Pz0R0THsirJ5extMtuS3LktzWTmrlvhMEiR1VqG3Q55znQkjy8haAWi6KBx9wKjNPnsx8s+q+N7eT2ebKX8b/HAFHoK8QyPVVa7wxjoAjIAj4D9u/CI5AHyLgP+w+7FRvkiPgP2z/DjgCfYiA/7D7sFO9SY6A/7D9O+AI9CEC/sPuw071JjkC/sP274Aj0IcI+A+7DzvVm+QI+A/bvwOOQB8i4D/sPuxUb5Ij4D9s/w44An2IgP+w+7BTvUmOgP+w/TvgCPQhAv7D7sNO9SY5Av7D9u+AI9CHCPgPuw871ZvkCPgP278DjkAfIuA/7D7sVG+SI+A/bP8OOAJ9iID/sPuwU71JjkDBIXgwArhurWUaoqD/M5mCJeSba5+JBMuZuugPZfIisdPI6KesFZdr2qeGxjebmi+bN7uk51Rv1Y4ZCEQW+yhm1d6M2d1RH5AcDWtAvWktymp5+YyWU7X2DmaC9gXObLNZWqIVaTTUXi63Nh/xVDdMJz5O4kQXGebHPvVBoo8M89Xrik8+r/1E+ehjh/itJtf2wlarvdfXEXAEHohAduUJxTP+gQqPbGQMKhBptV4TaJrGVAP5okKFQvjIhOBCu1llupoxbrlRFTuL5WWR88tLIqcWZkXeNjlVnpPwTHlB5EK1LHK5pvkLDWWkveP7JP5HR78pcte2HSLzYT0IU0+TMBuMl8Rk6N+6dUvKmZqaEnn9+nWRxN+9e1fCs7ParuVlbS9fR+xQ7sCAvnGMjIxIvp07d4rct0/bNzExIeG9e/eKPHDggEjqC7NjTxJX/lFemE4+9JDoh2H0kaT3SoZfv17Vw8t1BByBNiLgY+wYMKvGWNmaMjNjasbA+bxBt3aIlmkuKwMzpoYhsjC52Z02xp2sLkoNrswrs12euS3ha/fuiFyoKGPPLs1LeM4YulKrSLhSU6ZrNLSedXuDqBmDH6udEr0fHH5W5J6MMra9IGRsaJ1pVjV/tqjtatgYPG4MWi7rG0KhoPow89mzZ6WcGzduiISRp6enJbywoG8YMHTN8JXElX8wXrWqbx4wJHYmJydFFVyHh4clPDY2JhImP3r0qISff/75NekSWPlHfsJhO4kPJfWjXoSRoX6vws7YvULey3UEOoiAM3YMuE2jtJwxkhFtRHQ1Y8imzVrnjPqyNtTOZZXK7yzpWPhORceSV+aUmc/duSYlX51RZr4+o0x0e/KmxC9nlckbNnvbRNqUCAyRjWahqaE2KJvX8JIxft4mwTN1+2D5li1brqTPeMu2Mieu4XDsydj39m19s7h06ZIUeOXKFZEwNcyMfmhncHBQ9IkP9WBQ0uPk3JzNNczMaMPt/xdffCGfLl68KBIGf/rppyV88OBBkdilPHAlPmR2ybTyDz3CaZPO2GnrEa+PI9AGBJyxY0As1pTKjHgzdWO2qq1TF+yRyPpv3bh8tqxj4UuL98TyB9fOiXzvhsqLU1clPDOtDN3EXrGkNbHZ6UZTx7wauTImLNhg3upBfKxsqGLeZClHfo1nyK9z55lM3tazV6aJ1aStU8NYMCMM+PHHH4ve+fPnRS4t6VwATEy9YELG4thjjAozokc8jAiTMxYnnXyMxRmzE2ZM/9Zbb0lVPvjgA5G8YZw+fVrCJ06cEMlsO/mprySu/KNcwtSPMJJ60U7iuy2dsbuNuJfnCHQBAWfsGJCz2Yg6RSNvY1IYcGWQJfFzTZ2dfvfGBQm/d/1zkb+6dEbk7LzOBi/XVS9rg91cUe036iqbGWVoxvb1ZeVSmCEb7ZAy/WisLcX826BPPqCfN4aHeZq2ow2mVu2VNwHbacasf7Nq9bIdajA1DA3zMQsOk7HOTPkwIOlIGA0mttrfN2aFobEXtcPaHeaH8XljYNaechcXdc7izTfflCJZV3/ppZck/MILL4jcscNWDaiYSepB/UkmnnCvmTqqBx9cOgKOQP8g4Iwd05dV25rF7DBjlpmarsN+eO2C5Hzr+mciz0xqeHJex87LdR1zNmydltntTFUtwZgro9s1NcgVYF4bc69JXRnr2d7ylS2DksKQOJqut9n5uq0D142RKzaLH5mzyXGbxI+imU2/Pamz3jD0J598IjqMZUNGDhkWpkxiMPRCyVg3jIepw/IIw6gwN+XD+DA3cwPz8zonwvr4yy+/LO2EuckHQNijXsSnTfJ9TVu9vD6OgCOwCQScsWPAK9pxLfZqX5zX9eZ/ndTZ7dfP6Szr5Zu6Xlqv6U4sxsL1io6Rcza2zdqsc9MYNGPhrDFs09aX7TDWyphZKTWOGRjbZW0dfYXLtSW2YyyX1a5dXefWZMpDvW57yptFfcbfuqfr7B+8+65kOHdO2wvTsdOL8mHIoaEh0ae+pBNGj7DWZnW2mXQYuVTSNxbCMDKMSXqxqO8cpCNhfPQZg8PA1OPOHe3X119/XapE/h/+8IcSpl2UR72R2AnbSxi9bktn7G4j7uU5Al1AwBk7AJlzyvPLOvb65RUdW/7j+XdE85OrNta09eq8nTrKF/X0UdX2UEfrzoF9mHs12pjWZrVX4/VT4pM/GmSTU8fovBkUbSxdMGYv2zntQVugL9r69p17etrqg3eUqdm5Rfnbt2+XAmBA4pGUjoTJCCOJDyWMDaMShmmRxMPkSNbhs7aHn3oh0QuZl3Rm0V999VWqKvLHP/6xSPKjDw60g0yE0SO+29IZu9uIe3mOQBcQcMYOQL4+p8z138/qk/vsZV2XvjWtp5WaNluet7FddUHXR1cGxWKpOGxjTdvbHZjvWpBTaMzG5xiCBwxftVn7Lz63dt7QveowJ8yDhKkII8OGxcXDaKGEiYlnrEs89sIw8dG2Azvd1qhpg6kv9UMfBsYe5RL+6KOPJAvnu7///e9LGHvkJ4z9MEx8t6UzdrcR9/IcgS4g4IxtIL9x/VP59NNPdWfShzd051h5Tk8NNfBMUlBGztoYNWeeU6LZaSXuLnTdw4uAmdCq2Xnrgs2W18q6E+7aDfVswuz3gq3rDpZ0zgA7MFFcmHKSJMyIhCEJI6M3DmPgfE1XGdCHMZE12xlImPPw1Ae7UbrZJT18Q+CUGmNuToM9+eSTkoUxP/mRlANOxHdbOmN3G3EvzxHoAgKPLGPftVntX1zRU0p/97meAjp39azAzp5t1pvzpUGJZ32a89HReW07yNxYtj3huXRAWzAmy9mONZ7k03Z++czH2l5OZ20bVI8kzOrDPDA2kngk31XCMBfxhEMJA4fxIWPX88bYxtzUA0m5hCmXMPZDZkaP/GGYPeWvvfaaJI2Ojoo8fPiwSN4AYHDKCe2Jchf/0c9dLNKLcgQcgU4jkA5a6XQrv2R/1rx+/t2530js33z4TyJnzYNJpGrrvw3zRrriJEuSorG0rQs3bOdWjp1kKWFqmJCdZqMj27RptjMNb6G3bE84O7gGbT2eMSqMBwMRRhIf4WYfiIfBSCeMpJ5I4rMNxRtGxF49OCdOPPbjwtjBfqsMSz58uZ06dUqKGh8fFwlu1B9cqE+vpDN2r5D3ch2BDiLwyDB21U43/eTTXwmcPz3zmsg580EGxjzRc+YiBcbj1BXMzZbv1WVh2/Fl56txSILdrsvoFJiWvH14RD5M3dK90TB20fZkUz+Yp1DSPdgwIEwUStLJj4yLB1/KiQvjsiYsj3A9p2NuykPGlUs65cLYxCNJZ685jMxe+TNndLXk+PHjkuXo0aMi0ad+2OuVdMbuFfJeriPQQQT6nrFnKroz7G8+fUNg/PtPVM6EY2oDmSc+d2nB3MyON21Wtmlj1aztteacdK2is+LFIV0H7mDfPdQ09Roe0HX3yqKeD5+y00xzC7oXvjSo9YQ5C0aE7KkGD5gISXwoH1qplUTKgRlDSTqz4oxxKTeUYfmkh/VAD/uUG+pRHkxNGLsXLlyQLJznhrHj3gBC+90KO2N3C2kvxxHoIgJ9y9hT5s/7p5+/LXD+9KOfi5yb0zFmEsbsLKsv4y1Up8lz+B4z52HNaEytz8gSe8WN0ZPK6VQ6DIOnk3uTes6a9WqYqGGTBXgcGbSdaZFvtGAWGrtImBCZ1J6QMWFOJOkZW41Ishvp25wC5WOPMJI98LSfeOzQLvQon/XvGVv/v3z5smS9dk39wx86dAhTqZDO2KnoBq+EI9BeBPqOsct2l9XPLr4vSP1vW6demFc/363Cxy2a0Rg7yqinhozIVmLZHK7xPPkj9Y1+sONKMEY0+67FRF5J8YTCGD/aEVfSejXsjWN2VsfUzRmdc8gNqK+1EfOf3sRX2oDOhhetQBiMMSRh6kXzwjDno0kHFySMGifzdodYONuMPr7XKJd6Ne3WzoLVn3TKDSV2sMvcAvEwO/GUw80nV69elSY6Y9PTLh0BR6BjCPQdY0d7v20WfHFB/XrHIcgTPHyyrzJyXM7Oxjft6hEIOiwtWie3F4bVsI6uGDtPV5Spby4qDrWazo5XzTnqUM4YOl+SIkoZDTfM7zkMFcfY4IakntxlBr5I0mHIOIknG9LJRznUh3hkFB8z5sZe2C6YmfhQYp92MFcR+lenfuj3SvoYu1fIe7mOQAcR6BvGPjt1RWB65TPdWXZ9UmctecIiwydqfDiOKzvYG2tM22b1NXErAV4lIqZmjK8y2iln58XLFfWeOrekY+sBG3tyc8dAU6k7Z15ZuZWTU2swF0xIGAl+ocwEjAn+oYRBYUzCWVtVQB/7pBMf1oP0pPLRQ9I+7DIrTr0oHwljc/qLfKSH3dbtsDN2txH38hyBLiCw5Rn7qu31/uuzrwtcn15TTyhNO3XVBQw7UkTOZoWj2y8pxRh7dRbcZuONIaPZc5sdXsgvSM5yXpl7pKE7zbLms63Ahdh4hLELvrO2Vx5GhNEII2Go+6S98MBkcRLGJD96WfydB7Pb6KMHLEjSYezQLum0B0YmjF0k69fYod3MmnNPOPHUo9fSGbvXPeDlOwIdQGDLMvZ0RZnotcvqTfJt8/tdqyozhVjxxA3j0xqul6tSNZiD+nPTCPVmvZ0wehnzplrO6s65iu0wK9mbQIMbSGy9vFm0sbbd0w2Tw0QwGmEk5SGpB7PihGFK2oMkHnuEuRGFMHYoJ45psYOkHMJI2oPEHumUE0r0WV/n7i/qlxbpjJ2WnvB6OAJtRGDLMvbHU7pH9x8+U6+iy+YZpY3Y9NQUfss5RZYxjy2RBxfbctZs2Gw4s+Xm6aVht22W7f7ueTu21TTGzttdXU27I6zG+XMbGzMrDIMhYSyYjHjCgMbOMxgTCQMThinJH6XbZD96pKNPPSgPPeIbdl6beOrZqqS8UJKfeMbg1CMt0hk7LT3h9XAE2ojAlmPs6/N6U8erF/W2y5t3Lgsc3HjBkxSMeGITDtOJT5uESaPZfTsn3TRfYNEedTuGlbM7q/I2q10sqY+z4ax6HeWcdcPu7sqW9JmeK+lXYMDG1oM1G2vbKTYYCiZEEg+eoWSMDf7IiJGD2W6YGDv4XEM/7B/qQTx6xDes/pQbxZs/ccqjHaSjH8ZTDvHUk3gk+ePS0eu0dMbuNMJu3xHoAQJbhrHx8/2LK+oH++1LenornBXuAYYdKZLj3JwLLxTVr/nIiPq1Hh3S2y93mhwb2SH1GB1Wpt6R1b3fS4s6u34yo141t5V1Rxuz5NyfXTTGH6grYzcL+tWAoRhzw2zEI2GoSMasY8OsyEjf5giIj2NsGJF6EI6rR1J8UjrtDsuh06k/6YRJ75V0xu4V8l6uI9BBBFLP2Jzy4RbMN66ol8i52bWeUHhS8uQEM+IJtyo3a6dRVsrKjxjENvtcndd1du7T5rx3vWq+0oZtTJxXr6Kjwzulyo+PqYeOZ/cdk/CpvXoTxd5BY3DzbTZSUh9nyruZDKePuJurPKj1ypmvNm6lLA1pPauWPmDHxfCXzix3wfLBmDAeErxh3jDM2Jb4UJJe4G4tW49nJ1nT6tXE15zhWrd1eeqXsZ119CP1pV7MZlNv0imf7wn1Q48w+kjisY8+drotnbG7jbiX5wh0AYHUM3bVfF/93Jj6yt3rD4WFJ+dDlb6UyBM9zBeGv5SlpY9GuJmG3T/NrHVxmzLyir9OsVOv6Bg4n9Ux9P6xCYl/+eg3RZ7Yr+FjY/skPJrTsXPRTmMVjbmYhcajCo5dGCPCLDAVYVseX3GXrs942h2lWzzhUJIPSX7CUumVf4RJhxkJ0w9I9DcqsYukHoSTJO1khxn1Ih/1wpsp9okn3CvpjN0r5L1cR6CDCKSesW8u6P3Ub1zSPeFz8+pts12Y8ARulz3s5G19uG5+xpsZfYY27Q2E01n7duuY+cUnvipZT+4/IvJrgwdE7t21W2QWt6E225zJ6YemUa4tc68cBtNZ74KVB/PA3BWrT8Qslh9GQp90wkkSfaRUeuUfdhl7Eh9K8qFPOJT0Vyhb1QvzhWHqRTz1IUw6eOIFlvi0SGfstPSE18MRaCMCqWXsBZslfufWOWnu5TtXRLLDrI0YdMRUdR5/5Gq+if/uYV1vPr73hCT8wRM6lj596JSEdw3qOnRYqbqdT2Z9Nxfc6sk6fxyzMBYkPZI2hoaZYL4o3daXiUcmMTj1h6kZU1MO6YSxiz7poQzrRbhVPfSTJPaoF5Jz2Hgt3b1b36jQpz3YJ77b0hm724h7eY5AFxBILWNftRs7fmU7zZar6rOrC5g8tAieyCjFPZkZCuftNstiQWe9vzGhY+n/9MIPxMTJHTqWzlZslGxE37CesUNOmTzrx0RYBaL61HVszU61po3BGQsO2/o4t0ZSb5iIcJxEL5QwN+UQBp+QgQlTb+zFlRvGYzeUoV5SOMxPmHyEw/ZQ76Eh3S+wb5+uVqCfFumMnZae8Ho4Am1EILWMfW1OT3F9MXlRmtvYoA8znrDhk3i9GGKHfLH2bEyaV/fcmaER3Tn2wqFnJOufn3pR5Kmh/SKZ7a4PWFfYrHajotSdtz3blMubwAqFS1TDysNHmTlEiWajYRwYm7Eh69nYDSXtCyUMGycpLw4v8sHchJGUR33iwsTHSfIj0YsLE48M688cAXJ0VHf87d+v/Ui+sBziuy2dsbuNuJfnCHQBgdQx9lxVb6r42PyEz5kX0uRTXHDZ2kFou56gsXaMMekr9IoFPX31wsTzkvQXz70k8sntOqZu1nRMXLPZ8mid2/ZI5wd0hxl22VEWvrmolX/T0nbXjLILBgf1YUyIP3EYO2SmMEz+qB72AT0k6WGYeGRSOnphuWEYvY3KpHpQHm8WMDX4wdQHDlh/BufLN1qvduVzxm4Xkm7HEUgRAqlj7EszkwLPZ7ZunczUHUITJo4cdQflMLZFj2QLf+3A0xLzZ8+vZeqMMXLDPJhw40XebsVkrFyLDmTbs9f8hnNjhx1qyuShcspnkzibwC2e+69hnHB2nLExTIW5kNkII2E0JPmRxKMfJ1vVC/OH9SSd+I1K6k9+wuw027t3ryTt2bNHJOno91o6Y/e6B7x8R6ADCKSGsTl3fe7eLWnmTWPu1tu8dmzder4HazZsXTk/uPbZh8eR6uKyZMyX9OQzY+Jjw0cl/i9PfUfkse36RLfLM1dG1Doq5nTWyrkn0YvWrW0n2H0dYzd23N/K+2PEoP2DwbhveufYLklZLOtcRrm81g87+jAos9WMMWGmUHIKirE76aG9MFwLdtSxs478SLy0hpIt9LQ5sm9vMoWSLk8s2R1mlJe1VYX6ss1S8IaDNIPs2AOn48ePS8qxY8dE8gYU4kV9eiXXfmt7VQsv1xFwBNqKwH3E0Fbr6zDG3vCrczrGnrP7nNdh4qGqPMkjBnio9kqiPfIadZ1e5v7pht2JVbAdZewBz9mdWN988jmxfPiQejwZMK+hFBedmybCZKee+GF7GWuzrs3eZxiXauGJhHqFEmZGHxmWB+7kh/mRxIcyKT3UJ0x5nGKjPsQTpr5I0ikXCVPD3DA1s+KUy5tNGMZ+t6UzdrcR9/IcgS4gkBrGvrs0L829NqvnrZcrujecJ2kSFjyJQ33ikUl2SGcMxn3TGRsbh+kZ2+J96sAJSXrxCWXsbSU8pWiOrM2Gr9rDkqXbbPqDV+PX6q4nBB60f6Ckt22ycwpmg5lgHCT5YDDC2A0ls+vkJ50wdiLJGJvVgkBGenUFGjtJkrEvbxbUm3y8qWA/rCf6MPGRI0cEdhibNx/so4dcTx91QtcZuxOouk1HoMcIpIaxr5jX0cn5ewIJT9Be4cPydBbPJ3b9Y66ojFer6Kz4yMiYVPH3n/22yCMl3RvOE5Pz43j7jGZ1rWENW6+G6WDszbYb/JDYg4m2bdNz3zA2zBXKuPzEI7EPIyLDeOyTTvvviw+Ym3KifJZOfChh0pCZyY8+DEuYU2rlZfVFNz6u/thPnz4tTRkb0/6mXehjF3uk90ry/etV+V6uI+AIdACB1DD2pdnb0rzZpVmRPEFhmFbbvl790O5qucqdMG4WR922Ew0PJkf3PSYmvr5fx9hDdX1WZm3PNv64M7wCUGCH9xaDA5J2UXypoOu7jLVhttlZxR/Gg4HC/LxhwFQwbhhPeeiFkv0L5A8l+sQTpj6EQ8ksP5J6gAf1JH1pSdf1aTc7zE6dUs82J05o/8LQ2ENSH8K9ls7Yve4BL98R6AACqWHs24vqjXS5VpFm8mSlzTwRw/hW09ELZWg3ss8stY2t8UxSt3und43pqZ5vHn1KTG63O6+415ot2/eVx95u2zAWlWeK+DZjHTnMv9lw2N6RIZ29r+3UuQGYcXF+QYqCwWBE6osd6kM8+cN0wqRjj51mxG9URvZs7M2bBpJ2hPZhbOJZ33/6Se3Xr35VPd4wy047aDf5eAMgvtfSGbvXPeDlOwIdQCA9jG2z4ctVnW1eb1thjLh84ZMWvdh8Nj2dK9qzz05XkW90VGdHT9nNHXkbWzd10jwibMpFkh8mIYxsG1NbfSmXdXnKCeX2EZ0lr9lscGVJ95DDdDAi4TA/OKIXplMPGA69kLGJRw9JfKsSJqa+hJlLoD70A2PqiYkJqfpTTylj44UU/bCdxIft7XXYGbvXPeDlOwIdQCA1jD1lN37Uahtj7A5goyY5PmRj4nxRPZtMjOj65lfGDooee4nDs1Y84ZEdq2do2E4pxe10u0/dTpXBULTn9m1drVhc1Fnj5ar6YquZV9SclROt04eGLQyzsW4dx7wRQ9tOs1pUnu48q+N5pmZhq0fdxtY1y8dNKyvO39bUKGub/qu2539kUOcYjjymO8u+ZmPqcTtvTeaw/2B6JHppkc7YaekJr4cj0EYEUsPY8xXdK16vP5ixwyfmejFIyg+jJOkNDOgT/tCo3gCxvTi03qpsCX3Wt1m3vT2pp+5Y567bHWRGkCsb6owjglcW3hhgaHCGuWFW0mFs7NeicmBsJG8OD5Z1Y/SGMTw+5vAFN7JdvYweP/G49Mczz+oe/+2j6qtuS3TSQyrpjP0QcDzJEdiqCKSGsStVnYVtt48zGCKJiZPS6eBSUW/02DEwQlRfS7ybHjRvnIMD2v6pqTvS7kWbPWesyY67CBSbo2jYWJc7xmBoGJt+Z4wcMTVjaRtD121fQc0k6/6M+QnzRpAzBymlmnLYxH6dEzn61BNSxYNHJ0QW7Xx9VO8t/sEZe4t3oFffEXgQAqlh7GpNx0oPquR64mBo8iQxMfpJetgbNqaOuxUTvX6R4MINIrt36/r94KAu2E/P6I7B+XmdI8H7KYyZMcYG54ix7VRbs2Z78jmtZeezo/PrxthZm/3Gy2vGxs6Zqo65B1Rkhuu6alGw+8lLu3UOZMe4zonsPKyrGfvHdedgqRD4b++TjnPG7pOO9GY4Al9GIDWM3bQx05crl8bPw+YZZdTWP9NYx07WifXtnba3nL3Vc8bYc7NzUvz8gjJ4pax7/5dtj33d3swYQzfNpxxj7qKdf8dvet3SYei8LUsX7XK0rJ2Pr1pCadjmQMb0HvLxcfX/fWhc79hq286+ToLcBtvO2G0A0U04AmlDIDWMnQQMYzTGfEn6YXpcfuzFpYd2Snb75QDXaYYKj1g4GnubZ5GxXeq3fGFBT4eFY++5OWXysjE569WMqafN3/mdijL/Uk09mZBesB1yO4d0vXnnqO5xHxrVsfQue5MY32FzAbZTcGpJ7VVsn0TNxvSss7fabXWb3c/b6b8hG6Pv36btbtVOp/WcsTuNsNt3BHqAwJZh7DhsQqaFgUP9uHj0SMdeGB+F7dxWnH9w9B5VCY6clmIdHFxZ/ajaKbKmbV3L2dj5n8+/L9C9cvsjkQt2g8ewMeNwUT2/jGR0LD1c0/0EhTl1cdO4rgvXyw1lepg5mlSPOsa2yLGXHA83hNEj3sKVqs4ZDJe0/Md3H5aU/3r6T8iRCumMnYpu8Eo4Au1FIDWMHT4o45rJk590GIJwUjp6SPSxgyQ9lOxsqtp6a5juYUUAHEPPIuw9HxpUxgvxat7Qr+Ri7a4klZfVv3ylqow8U1Euyi1pmHKQ3B++KoMSOK1HdLC3nej7pL1RsHpTNMbmVNl9+j2OcMbucQd48Y5AJxBIDWNzTrYTjWynzYVl3dM+b7Kdtt1WJjNT13PfvEk12aFmr3SNhlGszZaDGYydiXzXkLJWYpfY1XzEPFiSD33W3e/zPvvg7F2PdcbuOuReoCPQeQRSw9j5HI671zaaJyWxPDEJJ6WHemH+MJxkb7Gi67PTdn4c+y43hwBzFrdtvblmF4pns619RVf7zQbDVp2wf8Pwaj7NEKbTqjC+aDve0nrKzxmbnnPpCPQRAq09DrvQYG6BXIj8eT/8yRtWKXyihuntCrOOOWu3gbbL7qNqh3Pa02V9E7qD7zs7n7+KC9+Hh09jb/Z70CqD5+wNc8iYe7We6fjkjJ2OfvBaOAJtRSA1jD1i55zv5bRKDfNWmvQEJp0nLeEQpbj4VvWwXy7rnuNbC9OSddl8chXztq6aMCsblveoh7m7647d2TZlN8Lcj0tnmDrpe0G/h3rMCW0zH3j317e3Mc7YvcXfS3cEOoJAahib0zo3bU9wPW3+xQ3+hjH0lembEnN9XndIHd6+R8IF87Pdkd7qQ6N4Wvn07nVp3bS9CaW9qUW7rXT3kJ4uS1t9nbHT1iNeH0egDQikhrH3DOttj6wPLtt6cattDMdAcfkYM5FOPuIJk44M42/NqpfOjyYvi8r+Ea1/IdefPrTAod1ywU5LvX/zvJhesHXspP5otR6hHcLkD/uVeGRc+lBJz3+P2/cW/bRIZ+y09ITXwxFoIwKpYezdw+oRo2geSsI28qSNe4KG+mGY/GE84fXanV+clazv3bog8qUjXxH54DNLlOIyRIDVhS/u6JvPsp3mWm9/0L9hPsJx6WF94sNr19FHB/X7mjbPKdTfGRskXDoCfYRAahj7yKh6k9xmT8LpjN7yCNY8eQmHcvNP5NDiw8NVY5YzNz8XxQvTt0Q+t/cxkev1pfXw0vovdXZZT3H9+sYX0ripWb0bLLwdk5bH9S/x6MXJjX5/sE9+/AbstO/p+JDeARZXbq/inbF7hbyX6wh0EIHUMPZjO/SGht02u3y1g41uh2me5Hdn9M3iny59IGb3j6i3yn0j6te6HWX1ow3WrV87/640j7F12ttasp1m+8wr6ZivY6e9y7x+jkD/IJAaxt5n64H7tqk/6Lzt7KmbpwwYkrFO2AVx8Un5QjthOCl/va7eMH91QZnnK3uOiImXH9P7lvGDHdp9VMNzVR1bv3ntE4Hg8q1zIhtctB0DTOAsNNKK6/dIIfqgs9qMkYkmP5L+Jj2UO4ypJ+wNc8RPd4UQedgRcAQ6hUBqGHt0QHfyHDTGHrLZxvm5KWk7T9T1ArHRfJSTlJ97ne9N61j79ctnJOupMbuHeYfO9mPvUZdvXdNVhLcuq9/wJrdrxlFymwCDqZP6Myl9zOaADm3fLTXLZ9M5/5zOWrWpM92MI/CoIpAaxi7ltSrHdumtiOOjOksOY8eNfZKesO3qWMqPKw9vmu9e1tnx/7NdZ8f/y3O/LVXgjqd21Wer2fnMTm/97WdvStVvTV1tqQngHqdMf6BHONSPiw/1ksITO/X7ecz2XSTp9yrdGbtXyHu5jkAHEUgNY9PGk7sOyMdju3SMesFmT0lPu1yyPeT//PlbUtU9Nlfwu49/VcK7BtJ5frdTuJ6zc+v/88y/SBGfXPtYJOfaO1Vu2+za2L9Y1FMAJ3cfEtN77GxD28ppsyFn7DYD6uYcgTQgkDrG3jusO7ZO7dFbDF+3nT7Ltrc4bi9xp8FkjMZYLq489KZtlvyvP/iZqBZtDuEHjz0r4R3Wrn7bU87tlpdmdZXgJ5/+Str75rm3RVaDG1RCPMFPlFf+hWHikeRHjzDpcfGkI9EjjMwZYx/aMyFRx22MTXpapTN2WnvG6+UIbAKB1DE2bTm2c598PGj3D7NDqV6roSIy7km7RukhAZ7wcXbC9Di9uCJmZnUd/q/e+QdRKdtOuj89+S0JD5qPt7j8Wy0eH3CMqV//TBm7ap5SwvasF88wfxiOsxcXT/6wn4nPmtfcp/c9LlFb5QyAMzY96NIR6CMEUsvYj23XdeyvH35S4L5qvsXqmbWMndQXcU9i8iU9ydHbqGT2d3pGz2v/rw/+n5iaNP/ZPzz+DQmfsPX7jZbTq3wV2yv/9vUvpAqv2Dr1GZv9DsfUSfWkv9BL6p+kdOwkyTg7o7YT8vTBk2JifDid56/D9jljh4h42BHoAwRSy9i7hkYE3hcPPSXyF3Zu9/adqxJmp9dW64MZO7/9j2d+LlW/PX9P5Hcm1Gfas+N6OmxiVP2Up619ZfP3ft7eQN669plU8Ze293ur7TuIw7dg69ZP7T8uKk+O6fp10cbccfnSEu+MnZae8Ho4Am1EILWMzamZx3fq6aivHVbm/rndxli2u56SsIgbOyXlI73V/IwNQ/0wjN1KeV4+vvnpGyI/vqlj1NNHn5fwyybZicde+oLd8sg573avg3P7Zb1Zl3qUbQy9UClL+L3bF0X+3/O/EXn2ylmRVfYZSGjj/0K84nDdaAnYI39YHvFjdt76RXuT4vQh6WmXzthp7yGvnyOwAQRSy9i0hVNR3z3yjER9dEPP814LGJsncdwTGHvrla3a3Wy5s3N6s8irZ/9FqvjOFT3X/fT+ExJ+3tZRnxnXHVDcFQY+621XnP6seV89Z15X372pHk4+vKU3dVy01YlFu7Gj0VjfKkVcuXE4bxbXuPKS4o/tVpy/fUhnw7fK2Jp2OWODhEtHoI8QSD1jM6Z8blz9dT9/8JTAP2mMUikvSJgnO09++oh4wqFEP0mPfOgTDvOF6XF6xCPx+YVHlik7v/yW3T55xt5Udtu66uEdujNv/za9M2zU9p6PlobF5EhJTyMxNqde7HybrSyKHgw9Y3elXZ3RN4cb5ud7ekFn7RftDQkfdNQbu+BAmHTiCYcSffQIo0c84VCijx5h9FYds+j92uiRHsq9tif8JXtD3Gn3tod6aQ87Y6e9h7x+jsAGEEg9YzPry1jyd47pueaL925Ic89ceG8Dzd46WZaNWe8ird1f2Dn1wUE9310yb5ncAjlo67AFO1XGqbhlm+VetLF02U5bVas6680b0NZBqD01zdue/e/YasS3Dj3RHsM9suKM3SPgvVhHoJMIpJ6xw8Yz1v6uPVnP22xt2daFdSQV5sqsEBa3Ja5NSxpzhelheK21+PPDlB+XPy4+tE8Y755Ltud8yRJmUGiTpN6YC+uZFCYfdpL0w3Tyx8lQPwyvlvtgC/ivf8xWHX7L1q23uqcbZ+wH97fHOgJbGoEtx9ig/YI9Yc8ce0Gifmnnfuu2lxm9tMiQSVqt1yrjxL2LqKU4vbj4VsvfaL1btd9rvYGSnkn4Dyf/nVTl+BY9ZRfi6IwdIuJhR6APENiyjM3ppz82TySXbLb4st1XDVPRRzBPGE86MkwnH+ndlpstf7P5wSPOTlI6eMXlJz1JUk6ol2Q3Lr1YGhJT3z7+dZEvHtL9EdtsNSEsZ6uFnbG3Wo95fR2BFhDYsoxdtFNOz9qOtB899e+luf/D1mcnW7xpogWMXKWPEMjZuv5Tdlrwx0+9KK3bZ3dy9UtTnbH7pSe9HY7AlxDYsoxNGziX/Icn1HfY9Xn1CvqK3cjBOi9jLST5GbsRjyQdGeoR32tJveLqQXqn2hVnN64+SfHUFz3sI4lfryT/QXvD+6OT3xYTT9iNM+u1l3Z9Z+y095DXzxHYAAJbnrFpMzc2/OgJ9dd9b0k9lPzMvIKiF0qe5GF8GG5VL8zX6XBSvcL0OEaknnHpxIf2yNcuGdpPKjcpnXoND+spuD+w9ervHNZZcNL7TTpj91uPenscgRUE+oax6c392/Re6j86eVqipm0P+W+++LWE2+3dtFXGoH4blRstJ8wXMmJYn7j0uPjQfmgvKT3UD8Nx5aKXlL59+25R/eNnvifyd+yMwUC+iIm+lM7Yfdmt3qhHHYG+Y2w69Jk96p/7L5/9vkTB1B+Y/+t2edWkPJfpQmCnebf9vVO6Tv2np3QWfKt6RFkvus7Y60XM9R2BLYBAdmUM9OCDylug8uup4uf3rov6f7NbL9+/+L6EOQ0GDHFjtqT0VuuCHfTD8pLSydeqxF5YDvk3m46dOJlkPy4f8a3mp30j5hPuh0//lpj4z8/oG1u/3WoKPnHSGTsOGY93BLYwAo8MY1cbdemmT+9eE/lXH74m8u3P3xSJTzAYQiPv94iSlE6+OLnR/OSDmeLstzs+LJcw5YReQIlHot9qvdEnf6v5hm2v9588+wPJ+h+fXDumxncedvtdOmP3ew97+x5JBB4ZxqZ3uZvq7NQViXrls7dFvnH+HZGL5kcb/VBulFFCO+0OU6+Q4cJ4wpQf6hPfqsTeZu20Wl6od2jv4xL1+6fUA8pvH31OwnuHd4Sqj1TYGfuR6m5v7KOCQN+uY8d1IHvKWeceM7/ce0b0Cf/aOb1F8pYxOjdzxNnz+O4iMDCoPspO2J1mf2intL7/mN4vvtXu2OoUes7YnULW7ToCPUTgkRtjx2HN2Pvvbaz9k7O/ENWrkxdFhuvdcXYYc8alJ41Fw/yt6ifpxdUnjI8vn+0OrXlLDe0m1Y9yQz08ngzYnWTfsJtg/tzWqZ/afTgsysMrCDhj+9fAEehDBJyxg05dMr/k7FT728//VTTevKCz5gvzevtkkK1rQZiNAkOGS0onHxL90A7p65XYI99m7R4y//G/+4Se1vuu3dTBKT5831GeS0XAGdu/CY5AHyLgjJ3QqRdnbovG+7cvify57TH/+NqnEl6uqKcWmGqzDJVQndhkyg8VkuoT5gv1SY/bYbaa3trYO7Qf1nfXTr33+/Rjuh79PZMnxw6I6qNyOivEZb1hZ+z1Iub6jsAWQMAZe52ddOaO7lh77fKHkvOda5+JnDRmX0jYubbO4lpWhznDDEkMGeYL9UlvN2Nzy+XoNvVwMjF2UKr+7YmnRX5v4hmRe21/QdguDz8cAWfsh+PjqY7AlkTAGXuD3dbM6Lrue7cuioXXr54V+esrKienb0q4Xq+KbNRrImFACbTxH3ZDxt1sEeu1iz7l5vJ5+Zi3GzgGBrZJ+Ni4erh50Wa5v2M3cxw2H2Xkd7kxBJyxN4ab53IEUo2AM/Ymu6faUCYuGzNfnrkjFn9943OV1z4RednG5osL0+sqEQZslYnRDwshf5hOfKi/2XA2p5wxtnO/mDq595jIbx16UuTze4+K3DO8XSReQ/NZ5xoBZJP/HMVNAujZHYE0IuCM3aFeuWv+zK/O6V1il2YmpSQ8uFwwTy63ZzV+fnFG0ivlxTU1glFhWsJrlFoIxOWPi08yCSMPDirj7jR/7gdGxyXrqT0TKsd0L/cBSz+4Xf2+DxcGkorw9E0g4Iy9CfA8qyOQVgScsbvcM9OVBSnx3PQtkRdNXp3TsfnNOd2LPml70ufKc6K3bHvYqyZrJpl1b5pPNxg4bBbxIeNnbUzLKaq83ZBRKJTERKmoN2YMFAclPGZ3YO0zb6D7jYGPjO6V9GM7TJpfbz8fHfZEd8LO2N3B2UtxBLqKgDN2V+G+vzDOgc8tL0ninaVZkVdn74q8PKt71acs/o7d+33XxuRzZX0DqNQqol+12fl6Xb2yZmy9XRJX/sHQBVtfHigoEw8aI28fHBbVsSH1KDNuO7/2mRfQozt0L/chGzNvGxgS/ZGijpkfNW+g4Jo26Yydth7x+jgCbUDAGbsNILoJRyBtCDhjp61HvD6OQBsQ8B92G0B0E45A2hDwH3baesTr4wi0AQH/YbcBRDfhCKQNAf9hp61HvD6OQBsQ8B92G0B0E45A2hDwH3baesTr4wi0AQH/YbcBRDfhCKQNAf9hp61HvD6OQBsQ8B92G0B0E45A2hDwH3baesTr4wi0AQH/YbcBRDfhCKQNAf9hp61HvD6OQBsQ8B92G0B0E45A2hDwH3baesTr4wi0AYH/D9foucB8FmhOAAAAAElFTkSuQmCC;" parent="1" vertex="1">
          <mxGeometry x="355.5" y="686" width="61.5" height="54" as="geometry" />
        </mxCell>
        <mxCell id="_gx7Ysj8cRRFJQ8xo1C6-4" value="" style="group" parent="1" vertex="1" connectable="0">
          <mxGeometry x="170" y="112" width="100" height="100" as="geometry" />
        </mxCell>
        <mxCell id="_gx7Ysj8cRRFJQ8xo1C6-1" value="" style="rounded=1;whiteSpace=wrap;html=1;" parent="_gx7Ysj8cRRFJQ8xo1C6-4" vertex="1">
          <mxGeometry width="100" height="100" as="geometry" />
        </mxCell>
        <mxCell id="_gx7Ysj8cRRFJQ8xo1C6-2" value="&lt;b&gt;Clcos Server&lt;/b&gt;" style="text;html=1;strokeColor=none;fillColor=none;align=center;verticalAlign=middle;whiteSpace=wrap;rounded=0;" parent="_gx7Ysj8cRRFJQ8xo1C6-4" vertex="1">
          <mxGeometry x="33.333333333333336" y="70.29702970297029" width="33.333333333333336" height="19.801980198019802" as="geometry" />
        </mxCell>
        <mxCell id="_gx7Ysj8cRRFJQ8xo1C6-3" value="" style="shape=image;verticalLabelPosition=bottom;labelBackgroundColor=#ffffff;verticalAlign=top;aspect=fixed;imageAspect=0;image=data:image/png,iVBORw0KGgoAAAANSUhEUgAAATAAAADfCAYAAABxno8QAAAACXBIWXMAAA7EAAAOxAGVKw4bAAAKTWlDQ1BQaG90b3Nob3AgSUNDIHByb2ZpbGUAAHjanVN3WJP3Fj7f92UPVkLY8LGXbIEAIiOsCMgQWaIQkgBhhBASQMWFiApWFBURnEhVxILVCkidiOKgKLhnQYqIWotVXDjuH9yntX167+3t+9f7vOec5/zOec8PgBESJpHmomoAOVKFPDrYH49PSMTJvYACFUjgBCAQ5svCZwXFAADwA3l4fnSwP/wBr28AAgBw1S4kEsfh/4O6UCZXACCRAOAiEucLAZBSAMguVMgUAMgYALBTs2QKAJQAAGx5fEIiAKoNAOz0ST4FANipk9wXANiiHKkIAI0BAJkoRyQCQLsAYFWBUiwCwMIAoKxAIi4EwK4BgFm2MkcCgL0FAHaOWJAPQGAAgJlCLMwAIDgCAEMeE80DIEwDoDDSv+CpX3CFuEgBAMDLlc2XS9IzFLiV0Bp38vDg4iHiwmyxQmEXKRBmCeQinJebIxNI5wNMzgwAABr50cH+OD+Q5+bk4eZm52zv9MWi/mvwbyI+IfHf/ryMAgQAEE7P79pf5eXWA3DHAbB1v2upWwDaVgBo3/ldM9sJoFoK0Hr5i3k4/EAenqFQyDwdHAoLC+0lYqG9MOOLPv8z4W/gi372/EAe/tt68ABxmkCZrcCjg/1xYW52rlKO58sEQjFu9+cj/seFf/2OKdHiNLFcLBWK8ViJuFAiTcd5uVKRRCHJleIS6X8y8R+W/QmTdw0ArIZPwE62B7XLbMB+7gECiw5Y0nYAQH7zLYwaC5EAEGc0Mnn3AACTv/mPQCsBAM2XpOMAALzoGFyolBdMxggAAESggSqwQQcMwRSswA6cwR28wBcCYQZEQAwkwDwQQgbkgBwKoRiWQRlUwDrYBLWwAxqgEZrhELTBMTgN5+ASXIHrcBcGYBiewhi8hgkEQcgIE2EhOogRYo7YIs4IF5mOBCJhSDSSgKQg6YgUUSLFyHKkAqlCapFdSCPyLXIUOY1cQPqQ28ggMor8irxHMZSBslED1AJ1QLmoHxqKxqBz0XQ0D12AlqJr0Rq0Hj2AtqKn0UvodXQAfYqOY4DRMQ5mjNlhXIyHRWCJWBomxxZj5Vg1Vo81Yx1YN3YVG8CeYe8IJAKLgBPsCF6EEMJsgpCQR1hMWEOoJewjtBK6CFcJg4Qxwicik6hPtCV6EvnEeGI6sZBYRqwm7iEeIZ4lXicOE1+TSCQOyZLkTgohJZAySQtJa0jbSC2kU6Q+0hBpnEwm65Btyd7kCLKArCCXkbeQD5BPkvvJw+S3FDrFiOJMCaIkUqSUEko1ZT/lBKWfMkKZoKpRzame1AiqiDqfWkltoHZQL1OHqRM0dZolzZsWQ8ukLaPV0JppZ2n3aC/pdLoJ3YMeRZfQl9Jr6Afp5+mD9HcMDYYNg8dIYigZaxl7GacYtxkvmUymBdOXmchUMNcyG5lnmA+Yb1VYKvYqfBWRyhKVOpVWlX6V56pUVXNVP9V5qgtUq1UPq15WfaZGVbNQ46kJ1Bar1akdVbupNq7OUndSj1DPUV+jvl/9gvpjDbKGhUaghkijVGO3xhmNIRbGMmXxWELWclYD6yxrmE1iW7L57Ex2Bfsbdi97TFNDc6pmrGaRZp3mcc0BDsax4PA52ZxKziHODc57LQMtPy2x1mqtZq1+rTfaetq+2mLtcu0W7eva73VwnUCdLJ31Om0693UJuja6UbqFutt1z+o+02PreekJ9cr1Dund0Uf1bfSj9Rfq79bv0R83MDQINpAZbDE4Y/DMkGPoa5hpuNHwhOGoEctoupHEaKPRSaMnuCbuh2fjNXgXPmasbxxirDTeZdxrPGFiaTLbpMSkxeS+Kc2Ua5pmutG003TMzMgs3KzYrMnsjjnVnGueYb7ZvNv8jYWlRZzFSos2i8eW2pZ8ywWWTZb3rJhWPlZ5VvVW16xJ1lzrLOtt1ldsUBtXmwybOpvLtqitm63Edptt3xTiFI8p0in1U27aMez87ArsmuwG7Tn2YfYl9m32zx3MHBId1jt0O3xydHXMdmxwvOuk4TTDqcSpw+lXZxtnoXOd8zUXpkuQyxKXdpcXU22niqdun3rLleUa7rrStdP1o5u7m9yt2W3U3cw9xX2r+00umxvJXcM970H08PdY4nHM452nm6fC85DnL152Xlle+70eT7OcJp7WMG3I28Rb4L3Le2A6Pj1l+s7pAz7GPgKfep+Hvqa+It89viN+1n6Zfgf8nvs7+sv9j/i/4XnyFvFOBWABwQHlAb2BGoGzA2sDHwSZBKUHNQWNBbsGLww+FUIMCQ1ZH3KTb8AX8hv5YzPcZyya0RXKCJ0VWhv6MMwmTB7WEY6GzwjfEH5vpvlM6cy2CIjgR2yIuB9pGZkX+X0UKSoyqi7qUbRTdHF09yzWrORZ+2e9jvGPqYy5O9tqtnJ2Z6xqbFJsY+ybuIC4qriBeIf4RfGXEnQTJAntieTE2MQ9ieNzAudsmjOc5JpUlnRjruXcorkX5unOy553PFk1WZB8OIWYEpeyP+WDIEJQLxhP5aduTR0T8oSbhU9FvqKNolGxt7hKPJLmnVaV9jjdO31D+miGT0Z1xjMJT1IreZEZkrkj801WRNberM/ZcdktOZSclJyjUg1plrQr1zC3KLdPZisrkw3keeZtyhuTh8r35CP5c/PbFWyFTNGjtFKuUA4WTC+oK3hbGFt4uEi9SFrUM99m/ur5IwuCFny9kLBQuLCz2Lh4WfHgIr9FuxYji1MXdy4xXVK6ZHhp8NJ9y2jLspb9UOJYUlXyannc8o5Sg9KlpUMrglc0lamUycturvRauWMVYZVkVe9ql9VbVn8qF5VfrHCsqK74sEa45uJXTl/VfPV5bdra3kq3yu3rSOuk626s91m/r0q9akHV0IbwDa0b8Y3lG19tSt50oXpq9Y7NtM3KzQM1YTXtW8y2rNvyoTaj9nqdf13LVv2tq7e+2Sba1r/dd3vzDoMdFTve75TsvLUreFdrvUV99W7S7oLdjxpiG7q/5n7duEd3T8Wej3ulewf2Re/ranRvbNyvv7+yCW1SNo0eSDpw5ZuAb9qb7Zp3tXBaKg7CQeXBJ9+mfHvjUOihzsPcw83fmX+39QjrSHkr0jq/dawto22gPaG97+iMo50dXh1Hvrf/fu8x42N1xzWPV56gnSg98fnkgpPjp2Snnp1OPz3Umdx590z8mWtdUV29Z0PPnj8XdO5Mt1/3yfPe549d8Lxw9CL3Ytslt0utPa49R35w/eFIr1tv62X3y+1XPK509E3rO9Hv03/6asDVc9f41y5dn3m978bsG7duJt0cuCW69fh29u0XdwruTNxdeo94r/y+2v3qB/oP6n+0/rFlwG3g+GDAYM/DWQ/vDgmHnv6U/9OH4dJHzEfVI0YjjY+dHx8bDRq98mTOk+GnsqcTz8p+Vv9563Or59/94vtLz1j82PAL+YvPv655qfNy76uprzrHI8cfvM55PfGm/K3O233vuO+638e9H5ko/ED+UPPR+mPHp9BP9z7nfP78L/eE8/sl0p8zAAAAIGNIUk0AAHolAACAgwAA+f8AAIDpAAB1MAAA6mAAADqYAAAXb5JfxUYAAEIdSURBVHja7L17eFRVlve/zrXulVTud8iFEAgkhIuiotio2HTTjQri6DS2rY6IvjqjP/vRaZ1u29F39NFHe/SVNLa2jDjaYFBoaekGRFCUaIBAIBCSkJD7rZJK3c/9/P6gokWSSuqcugb253l4Qirnts/e51trrb3O2pgsy4BAIBBTERzdAgQCgQQMgUAgkIAhEAgEEjAEAoEEDIFAIJCAIRAIBBIwBAKBQAKGQCCQgCEQCAQSMAQCgUAChkAgkIAhEAgEEjAEAoFAAoZAIBBIwBAIBBIwBAKBQAKGQCAQSMAQCAQSMAQCgUAChkAgEEjAEAgEAgkYAoFAAoZAIBBIwBAIBAIJGAKBuLwg0S1ARIrqbqbEzkpZNkbKHvSK+Ywgm1hR1ksyEKIka0QZCFGWNRhgooYAD01g3//LMBANuWby2BWZ2mZ0JxGBwGRZRncBETaO9LL55+38oto+dnWnUyi1s1KpjZHAxkiKjpOmJyDXTNZnGoj6bBNZn59AVRcnUQeLLBSL7jICCRgirHzW4ll+rJe9rdXOX3XeLpQNeMTwuQk4QLaRhOIkavdV2drNxUnUwbJUTR+66wgkYIiQ2Hves3R/m/eRU1ZueZtdMEX6fKl6AoqTqOoF6ZptCzM1W+elabpRLyABQyAUcaDdu8gnXCuabXxKtM9vpDCYm6ap+Wmh/rmfFxl2oR5BAoZABMXmk46Hdrd4njwzyOfF+lqyTSQ7P53e+dNCw3NXZ2vrUe8gAUMgxuV4H5u1rcH12uFuZu2gV4qraytPoxtuKzY+c2uxYTvqKSRgCMRFfN7mXbLtjOvVw93Moni9xiwjId5abHh6/byEl1CPIQFDIAAA4K/N7pXvnXK+3TjEp8f7tRooDH5WZNj4m6ssD6OeQwKGuMz58LTznvdPu97scAj6qXTdtxYbtvx+SdLdqAcvbdCrRIiA/LnO8cif65zvTjXxAgD4pNG97sVq2+uoF5GAIS5TCBwT56TSe2ZYKNAQ2JS7/g9Oux7533rnfagnkQuJuExpHOL17Q5+fsMgv+xYH7v69CBX5uGnzphJNxDw6IKEn/0M5YohAUNc3tT0MEVHetk7anrYtScHuDJWnBpjJz+BtP1+SdKceekoax8JGGJKUN3NlLg4KcXFy8kuTkrx/T/FxUkpJI6xGgLz/PrKxMfVCtmhTub+I73s6pMDXNFUuB83TNPtee2GlJvRyEAChohTDncxpU02fkmzjb+mzSHMd3FSqYuXwMXJ4OIk8O/pPDPp2bUm0zD6GNsb2bXJOqw100A0zEwinBOd71Cnt+wfrd6nanqYtd0ukYjne6MjMXjmagtyJZGAIeKJQ51MWYeDn19v5Za3O4SKJhtf4g4iRvXogoTH7y83v+b/2c5mdtV3vcJdOAZrMw34M+l6vCnHhNel6vCmgkQiYHmJnU3uVfvOex472MEsjed7VZpCt3748/QCNGqQgCHiwEU80O596OQAt6LDIRQNs8G/2pNhIGDPHVljphVf+s7zuoOTH/H/zEhhkKLDfp2qx5tKkoj9JUnkuFbZaStn2XXO/R/v17sei+f7Np5wI6YuqCLrFKO2j82r7mLWVfcwd54c4EoFFa8k3pyvf2X0Z5+1cMsdnDwm097Fy+Di5ZfPOyTockm/axgST4wnZLNTaNvsFPpxE40P/umE43lBis/792mz+z+QgF06EM8++yy6C1OAxiFO/49Wzz9XnXW/vPe8Z127Q0yTVBjPuSbS8/gViTdYtIQ8yn18kBHhXyba18nJP+p2Sf9k9cqMKIE110QMjN5mUab2KxzD3C3DwnKPEH/W/TAr6ZJ1RGNpCn0KjSpkgSGiwDddTOlHDa5Xj/ezy0OtAjEvnd5VkEhdFM/a28YttbFy0KVxul3S710cn9Lpkg7PSyV3zrAQHv+//0u5+ZVEDd71pxOOD3rdYtzdz13N7t+uLTF+iEbW1Adl4sc5nza7V1bW2qs+b/MuD0cJm7JUzZhZuJMDwgoAWKvkOA5OfuR4v/DB/nbukZNWYYzreXuJ8cMNFQlrjHT8ZfDXW7mSz9s8S9DoQgKGiCCbTzofqqx1VJ3o50rCdcw7Zhm3+P/ebBM1g4ycr/Z47U7pxf3t/CO1/cIYC+7WYsP2DRUJD8bbfeUlgAPt3ofQCEMChogQL387/Gplrf3NTqegCdcxU/VjU7U6XVKZUutrNP0e6en97dwjn7dzY6yadaWmTbeXGN/RkvFliR3tZW9DowwJGCICPHto6N0t9c7HvGEOglek02Pcx/MOMSwFCocY+Ylve4Q7xxOx/7jacv/1ubqd8XSPu5yipmGQM6HRhgQMEUbePuF47ONG9z2ROPbV2drNYx9kqSxcx3fz8kPf9gh3HurixxzznrmmX00zk854uc8yABzpZdeiEYcEDBEm9p33Ltl80vlqpI5fnnZxAL/VLhIeQbaE8xwXRIxf12gTL6ohNjuFtv200PBCPN3v2j52NRp1SMAQYeCbLqb0j8ftVQ4uMhmgOhKDwsSLV7Vuc0jzIcT4VyB38vN2bkxG/oMV5peKLJQ1Xu55s41fjEYeEjBEiNRbuZTKWntVJGvOZxmJMcLR45ZKI3W+TqdU9mEDO8YVvmWG4Zl4ue99btGCRh8SMESI/OWM6/VwpkqMR5KWGFMLq9ctRfKca88OCUtrevmLyu3cPce0aXYy3R7pe6olMEjS4pBhICBRg8N4s6Dx+KYAQhkoEz/GVHczJV92eO+MxbltjJQVyePzEtxT3SO0L8qgfneRss0yPv6fXw9VhaseYpqegEwj0VCUSFUbadyqp7BhLYE59BQ+TBOYhxEkEyPKJkaQzXZWSrcxUl6HQygbYsQ8NAKRgCFC4IPTrjdtTGzefBZl0ET6HL1uqWRHM7vqliLN92kUtxUbtn/a7K4/2suqdmHTDQSUp9K7Ci1UdZqeaMo0kvVKVub+qsM7f4iRclvtPJGfQIloJCIBQyjkH62eZd92M8su8WaubRgS+wDgojywO2cZHz5t5Q4ozXUrS6Oby1M1nxZayK/LUzW7Ci0XT0wEy7W5umMAcAyNQiRgCPXW1+veyyAO4+Tk9M9auOU/KaD3jHy2PF9/8K/N7oNfBlkEcZqZdM5Ooff/fIbht9dka+vQ6EEgAYshe1o9S0/0s6WxvAaaAA8XHedpbcOQ0OovYAAAtxYbnvmyg/lqoh2zjIRYnqbZtTRXt/Enhfo9k53o3LCoESSgBUnWCDLQovTDGCdwEAwUNliUSLBoBCIBQ4RAdTezToqi8TXMSmNSNFJ0eGu3Kzrxt0FGzj/SJ+QvTCdbRz67YZr+UK7J7ulwjr9wbpaREDdUJKxeNcMQ8DWkVrtIDDFy3oBHyh9kpHw3L1sECV4WJABBlkH0ax6BAxgo7KnaPrw9x4TXpRvwhoIEAsW/kIAhlPJdDxvVmccu19iSNxkGvCFaAgYAa+utwsGF6eRG/w8XZmq2dziFdeO5jPeXm9cFEq/mYVFz2ircNOCVZwwx0qvDbHDfBoNe+cV2kOCsDYNsI/ZoQYLuDTQakYAhFHBmkLN0BrA6IsV4i9GaaKwvmtfQMc57l6Up9O5PGt0XCdjCDE3dmpnGXwdyGb9o5xY3DYtL2h3Sy2qNWK8gwyADY9IoWod5Ij8RzUpOFVAia0zcR/YXUgxi9192eOf7/55wQcC2Rev8XkG2fNXJX3QNZakXV8goTKSsGyrMq8cTr7oBIX1zPfPQoS7+/rYQxOt7C1SPN4z+7L1659t1/Ww6GqVIwBABONzFrIvFec8N89f4/35lJtVAYBDNgPba7lGvL5Uk085kHf695bWhwrxmUaa2efSOX3fxZfvbuUeabOKbjAj3heNi0g34mPP8vcVzT2WtY8c3XUwpGqnIhUSMw2krtygW5z03zF8FABfFfBI0eN9QFBNpe93SzNGfZRvJZgChaEOFefV44vVZK7f8eL+wys3L4ayium20BbbvvGeJm5fh6y5msYuXqty89OBN0/UH0YhFAobwI1IVJyajYZAfkzSbn4BXR1PAhhhpTNwpy0jWz02ld48nXp80sauP9AlrIcxVM7QEOOemkhfFAGv7uO+rtJ7o50oqax1VnCjf/dNCw240apELiQCAJhuvj9W52x1jZyJnWoiDEMU4mCCB5ly/86JXmEpT6D1rS4xjyu9sb2TXRkK8Lgg3cXj0ZycG2J/5/95s41Mqax1VZwY5VLUCCRgCAGDIG7sXiBlBhs/PX7waT2kKaY3ybORaVsIvEvGrs+nNo2f+Pj3HrjzWL6yOhHgBwLaKNHJMesY528WVM3yir6+sdVShkYsEDBHAhYom33Qx94z+rCSJ+Dya1yDj5EWri8xI0ly0ruShLr4sguIFyTqstTSFvKg+2ieN7tVufvx5zQPt3mUvVtteR6MXCRgSMK+YG8vzfz2OgJWlkLui6UayMj6hG13Ty9/FiXBPhE6/bXYSOSZFY895zxMT7bSj0f3I1jOudWgEIwFDFlgM6XaJRGWt/Wn/zwoSCTHLiNdH6xpcnJQS6G+ft3NLrF7161ROhonG+n6cT+/3/+zbbqbkeB87YXlpjyDD+/XON8/ZeA0axUjAEDHks3OeJ0d/dmUGuYXGYXM0zs/wYsDlzOoGhJWRch0BYNt47vKnze7fBnIf/WlzCKbJLDUEErBLmiQt3h7ra2hzCKZ9o4L5CzOo1pIkcn80XElRksa1Yg60M4siaX0larAu/8KKAABNQ7z+6y4m6PdS97R6/w2NYiRgl6+A6YiOeLiOnU3u50d/dkeJZks0ZiQxwITxPm8YEpdF0vqan05+PMYabfH8ZtAbfB7cuWE+5TDK0kcChiyw2FLTyy7d3eJZPvrzijRyR6StMIIYv4RNnwcitshIlhGvvyGPPuT/2akBLmXfec+jSo/1abP7t2gkIwG7XC2wuBAwDy/DllPOP7YO8xelNNw8nd6fn4BXR3TQ4fgYAfum3VXKSRCRJN8EDfba0hxq4+jP3zvlfLvNIZiUHu9wN4NW9EYCdnkyw0J54uVaTlm5/G0NrtdGf74sj349UYO9FqnzSpJEjP7svAtbFAn3kcRhyxUZ1IdzRuV9/bXJvfKrTu8qNcdU4nIikIBdcpjp+Lntf2/1PLKr2b3C/7OCBEK8IY/+g4HCNkbinKIoElFyH7fNSSF3X59L1Yz+wwenXW8GM/MYWPzZFDSSkYBdlsxOoWvi5VoGvRJsPuV899QAd9EDOT+dbF+WR72BY/BhuM8pgzymiICDg3DX4No2J4XYfXuxZsz1P/f10NunB7mQ8vH63WIRGslIwC5LrsrWbomn62kc4tPfqXP87+jPF2dSDcvyqNchzEF9HMPHzEKGOf61bU4KsfvOEu3m0X94+4Tjsc9aPCHXExvwiDPQSEYCdlmyOEvzPo7F1zV91cksf/OYfczs2o9y6epledQbGITPEiMIgotgUwKK16FOb1nVWdfLHj70crj9HmSBxQOoHlgMmJVM23JMpKfdIejj5Zo4UYZtDa7fm2i87+45pk3+f7shjz6EAQhfdPAgyRDyYiTYKPVuHGTDdR8CildND1NUWevY3u0aG39TgyQDgUYyssAuW67I1HwYb9dkYyR4p87xx51N7jGzc8vy6Oof5VKvExiE3f0VeEEDoc9ATipeJwe4sFlNFm18JCQjAUPEyI3Ubok3N3JExCpr7dsDidj1ufRGEg9RxEZ5cLIsh2rNBBSv73zidaSXLQvnfUrSxUdCMhIwRExYnq8/WJ6mqY/Ha/NVrNj+yVnn6rEiRoUsYuOlUURCvL7tZkoqax07wi1eAABJWgIJGBKwy5u7Zhsf1ZFYXF5bt0sk/njcsXXrycExNbB+lEtVX59DbVRbvUKUxIte5h4vMz9U8TrcxZRW1jqqjvayEXlvMcNANKARjATssubmfP3+K7O0++P1+nrcEvFOPfPeuCKWR1dfl0ttCkcJHpIi1SztFlC8vuliSitr7VXH+iIjXik6HArQ4rdIwBAAd802PmzRxm839HokCChiuXT1dTnUJg0B74RyDgLHlQpYQPH6upMpq6y1Vx3v5yL2Yvi8dA1apQgJGAIAYHGWtuG6XN2H8XyNE4pYHl19bQ71tlaBiOH4xYmsGKbIjZ4wz6uy1r79RATFy9dnW9DIRQKG8PFPs4yPlqfRcR1TmcwSuzaH2qQlgxOx0YmsoigGm48YULy+7PDOr6x1bK8LY6rEeKTpCVhbYvwQjVokYAgfpSm0dUNFwpriJKovnq9zIhG7PpeuuToD36wjYNPkR7rY4hIEgQ5FvA52eBdV1jqqTkZYvAAAlk3TbUQjFgkYYhRXZ2vrH5yXsCaeKlVMJGLbTg2Nyci/Ybru0DVZxGY9ObGISaPSKERRmmyhjEnFq97K5Ue67dkmkl090/AUGq1IwBDjcON03aF75poej/fr7PVI8PYp7wdVp4fHZM//aJq2+pps6p2JSvEoTKOYzG2sOm3lorLS04/z9a/MTKKdaKQiAUME4P5y82u3FRs2TwURe6vOvfXjBsfq8dzJa7KozcYg64lRFOlRKl5fRVm8ytPohp8X6X+HRigSMMQkPLsk6VfrSk2vxWuSq7+IbTrh3PrxOBn7S3Opmquzqc0mGntj9N9Gp00QBCEoEa8Ls43RcRsBAPLMpGdDRcKafJT7hQQMERy/vjLx8Q0VCQ/nmFQleUaNHrdEbDru2PrxWddYEcuhaq7OGitiOE5MJgST5Hk5tp+Kknj5rOK7rs7W1qNRiQQMoYB75po2bqgwr4n3FIset0S8dcKxdftZ15iY2HU51LGrsqgtxuDLU0+WYb89GrONI6yeadh8ywzDTjQa4xNUDyzO+VmRYVeyjmj9qMH16vF+dnm8LijR7RKJP51wfCDJQNw+Kk9qaQ5VI8syHO4WwMXLD02QuDrp60F1URIvM43DqhmG1359ZeLjaBTGL8Szzz6L7kKck2smBwoSyY8zjWSzIEG2jRGz+TjUMScn4802/hYCx9rnptLH/f82PYHoFmR5qM8jczkm/FRBwg/VHIZZGT/WL5RM/GK2vSrSGfYjFFko691zTI8+WJHwIhp9SMAQYSBZR/BzUzXHc0zkP5K1xKAoy+lWr5gmyfF1nSMihmHQWZamqfX/W34C0clL8hAA4KMFjJNk/XjiVd3NlFTW2j+OhnglaXFYlKk5+ItS00O3FBs/QaMu/sFkWUZ3YQpS3c2UHGj3PnRygFvR4RCKhtn4MsnS9ASsm2N6+JdzTGNiXyetQvrcFPL7tw5a7SKRnzA2sP9tN1OysdZRVRuhqhIjGGkM5qRoapbmajfNS9fsLE2hrWiEIQFDRIEv29zzO11i2elBfnm7Q6hosvElbj4++jRVT8Bds42P31dmVrxI7nc9TNHGY44dkSqJQ+EA0xMoyDQSB8tS6V2LMrXbKtI1qEghEjBErPim01vaPCwsabbx17Q7hPmMKJcyggSMIAMjyOAVZGBFGaLpdibrcLhzlunXD8wzvxLsPjU9TNHGWseOcBQjJDAAA42DkcLASOFgoPH6HBNRPy2BqilIIKszjWQDsriQgCHijG+7mRJGlE2McOGfV5DMDg+bzgiyyX9FHZIkOBzHRVkGAscxUZYBRFGgZVkGkiS50TOGkiQRgiDQI8OGJEkOx3Fxooo4SVqi/Y5ZxqBL0NT0MEVHetk7wnEfCAxjDTRmM1K41UhhgwYaty7O0qJqqkjAEAgEIragRFYEAoEEDIFAIJCAIRAIBBIwBAKBBAyBQCCQgCEQCAQSMAQCgUAChkAgkIAhEAgEEjAEAoFAAoZAIC4L4rKkdOMQr2dF2cQIkokiMA+NY16KwNgZFsqDumzqcXaIMzGCbOIl0FA4sDSBeUn80unPs0OcycvLJgAALYk5S5Iv/bUjm228hpdkPS/KNC+BHsdApAnMQ+GYpzgpev0aEwE7Z+M1vR5xZp9bmNHnFksYQTaxoqxnBdk0UkGBFeXljCADRWBA4wAUge2mcIyjCcyTqieaMg1EQ7qBOJusI9pROZTYMl5/Mr6+ZAVZ7+vT5bwkA4VjQBMYkDjspnHMQxEYl6YnmrJNRF26nmxK0eOt8bh4bOswT3S7xNIul1Da7xFneHk50StIZq8gJ3oF2eTl5eU+AduvIzGbjsKcOhKzaUncmazF23PNZG22kawvtFDsVOrbhkHONOAVZwx4pPwBj1jU5xZmeAU5kRNlPS/BCl6UgZdkwDEMaAKAwrE9NIF5aQLzRKNfo1KNomWYJ9odwvx+j1jUZhcW9bmFGb0ecWWfW4Q+t7ql9lJ0BKQbCEjW4QdTdURreZpmx7QEslZNUbqdTe5V4WqrKIrkhXIzMgkAgGGYgGEYEATB4RgmyACkJEmEJEmELMuwdk7Sh1NOsIZ5TYdDKAtnf6YbCEjXE5CiJ/ZkGYn6slTNrmkJZO2sZNoWq3bW9DBFPS6x5LxDWNTpEMq7XcKqLpcAShdWMdM45JpJyDYSu9INZFOhhfw63UA2XZOtrYvH/j3Wx+Z1OoSyeiu3otctlgx4xWUDHhEGPKLiWnKR7teICtjJAS69cYhbWt3Nrmt38Cv7PaKizqdxDAw0BhoCu1CUT7xQmG88Mg0ETEugaqYnkDXz0jQ7S5KpzwuCXIj0vs/6T3S5hLJwtHnkfsoywIUaWRgEqpUlyyC+sDR5xsIMTetUEK7aPjav2cZf820Pe1eHiv7UEBiYaBxwDL7vT04c258YAExPIGFaArW/2EIdLE2l9/woT1cdrXaeHODSj/Qwa7/qZO7vcYllPW5hwgeXwgFMNA4YBuDkxm/TmIfaQDTPSaF3X5+n2xgv9cm+aPcu/rLDu77TKZR1OoT5Xa7wruM7ul/nptK7l+bpauJOwKq7mZKT/dzK2n52VeMQv6TfM/mN0JIYZBtJKEwkd1l0RJeRwqxGCh800LhVQ2AeRpBG3EvzECPl2rxi9hAjrTzSO9Yin2YmoSSZ3nVNjvbtYNb0u++z/hM1vWxZLAbNOytSZyzK1DbHs3AdaPcuOt7Hrjo9yC1vtvGLrEGIln9/JumIdiONW40UZjXRuBXHQPS5mGY3LyfaGDFvyCvltdr5ZeftFy/STRMYFCSS3TOT6INXZmm2rCw07I5kXKdugFu577zn304OcEvsE6wzkGMi985Npb9N0uL9yTqix0TjdgwDyclJFhsjpThYydIwyM1vGOLXBIzf4ABzUzX1V2drtlyZpd0yL03THSuL+kCb96F/nPc80TDIZ022PYVjkGMiwKIl6tMNRLOJxnsNFDZME5jHK8gmryBbnJyU0usSVvW6RegdxyqnCQyKEqn2Oan07utytW9dl6s7FnMBO9HPZn3a7Pltk41b0jjElwZTm31mEgX5idTOWcnU59lGsq4wkaoOJk5wzsZrTgywK589ZKsKtE2mkRDnp2t2rC42/nphZmArZ1uD685zNn6JR5AtXkEyeXl5pcdXgtnLS9A66qEKliwjAToSBy2JgY7ERn7u1pKYU0fiNi0BztuKtE8VJOvicsn6Lzu88/e0ep5osgnXNNu4vGCWcitJpmB6gvL+bBjkTNsb3S9vPeNaH2ibXDPpmZ+u2bmqyPD0RP2phn+0epbtafU8UTfArZjIDU7TEzA3lX5l2TTdxz8rMhye0KJp887+vM1728kB9opWu/CzQNsZaQzmpmpqluXp3lBSuTYcfNfDFG1rcL32XTe7crKFYQwUBvPTNYeKk+iDM5Oo/RYt3n1lAOux1c4TvS6xpNctlmw8Zq/qm8CIKU2hWxdnaT7414WJz8RMwL5o8y7e2uB67ZsuZnEw21u0OCzI0OxeWWh4Lj+RrMlPoBQ/xOeGec19n/UzQ8zEN/7h+QlPrZ9nfinYY3p52eQRpESvIFu8vGx68sDg52ru0qIMTd0ds4yPXhAszKElcaeOxIaLpkAg9y9nXOt2Nrl/X2/l8oPZPsNAwLx0zc4VBfoXpyeo689d59wrfnNw6LPJtlPSn8Hw3inn+o8bXf/VMixYJtouz0z+/VdzTS/NTaUPFyfRQffh31s88z884/o/tX3sryaL616Zpdl+e4nx8flRWGDkUKe37J065wfBrD2Qn0Dalk3Tbbxhmv4Pc1KVTZr9f/utn+09710xmVV39J4cTGkbwjIL+Yea4ee/6WJ+1TA0ufkJADA3lW6+cbr+9SU52ndCmUovTKTYWSl09dedE4smgQGn5JgAwALA95307wcHQVSp88vz9QdhCnHaylk+Out69csO5p4BT3AatDhLW7OiQP/SvHR6hxrhGmFloWH3azV2mOy8SvpzMp77eujtA+3MfVavOJlAH/jVXNNLq2caDyg9x48L9McStfiz/33Erq23cncG2s7qFeFv5zyrrV4x//aZxscjOXb2nfcsefek892TQax0XphIWdfPM9/x4wL9fjXnKkvV7JpMwIwUpqodIQnYwXbvon1t3sd2NrnvDHafhRmaunvLzOuW5IRnBqY8jd4xqYDhIIRyDhzDQLwM1g6oOutae7Dd+9DBDmZp0AI9Xbfrn0tND4drSbI5qfT+L9q8yyLZnwAAX3cyZX9tdj+3u8Uz6Qx0khY/fNds0x/UiJefyLdzFfLv/nDErm+28ROe89tudr7VI1VZveKv75pt2hzufj7Wx+ZV1jqqmmx8+mTbphsI2FBhXhOKmC7M1GzTk9ibHiHwM2SgcVVeiepM/L+dc6+orHVUKRWvDRXm1eESLwCA8lTNLg0xsXqTGMaFJmCXvHbBOyccj1XWOrYqFa8NFQlrwrmeYnkqvWPSb90Q+/PvLZ5llbX27cGIFwDAzfn6rffMNe0MtW3X5eqa/nm28Q8GCps0YH1umE+prHW8+26d45Gw93Wd43+DES9fH78WqiVYmkJb8xOp1knia4NRE7C95z1LK2sdVacHuTyl4hXuGbersrX1eeYfVnkO8I0dUszpUhewv5xxrausdbwarMvoL17hTswsT9Ps0pMT3/BQ+vO7HqaostZeVReE6wQAMDuF3nrHLOMb4Wrf6pnGA0tzdbuC2dbOSlBZ63j9izbv4nCdf2uDa9233eySYLbNMhLibcXGfw/HectS6d0TCxiuKi9MsYB908WUVtY6qtodgj7YfYqTqL5IiJefG7lr4pgJFtIs36UsYLua3Ssqa+3vcQoyFBdnaWoiIV4AAAsyNK2TfVur7c9mG6+prHXsaLVPHKwfwUzjR+4uNb1SkEhJ4WzjujmmVwsSyU+D2ZYRZaistW8/beUs4Tj3tjOul7kgA7rX5ujeDlcfX52tndAVNtKYqrdpFAlYXT+bXllrr2q28SnB7qOnMLhrtunhSOY6laVpPo2kBaZWv+I9anag3buostZRZWOCfz7T9AQ8OC8y4hX0F5LK/nz3pOM9Jat9L8nRfvaTQv2RcLevNIW231Zs/BMAnAtm+4YhPquy1v5JqOf92zn3imBdRwCAq3MmFh0lLM3T1aToiIkssOGICljLME9U1jp2nOjnShT6/TtvKzZsj+SDWJ5G70rW4XFngcmyTMSreNX4XKkOZ/CW9IV4kO61+RmRneIvT9OE3aL+n5POh/ae965VsMu5lUWG9yLVxrvnmD5N0xNdwW5/sINZ+sJh2x9DOefe895/U7J9uN9+mJNK7w8sYBG2wD4843rz6yBzvEYoSCRtv5xjuj/SD2N+AiXOTqEPBfo7GaMYmCRJEK9sOu7YemaQz1OyzwwL1XfbzPDERCZiRYF+T5o+sPYr7c8zg5xla4PrVUYI3ibOM5NNS3K05yLZzkWZmgMKLaj1OxrVv7d7pIddHssxd32eduMEFljkYmA7Gt2r/tHiWa/04LcVG/89WpUiytM0Oyf4xg5xFvLSCoL9uc7xyJFedr7S/VbPNDzly5OLOHPT6D3h6s9PGt3PdzoFjZJ9luRoP4t0G5fkaP8WrBsJAODiZKg663pFzbm+aPcudnCx/UK9rdi4PVDGgIHCI2OBnbZyli31zk2TvWYwXqzk7jmmTdG6OeVp9C5tgJsTat4QcQkJ2GkrZ/mk0f2C0qoCOSaSjUROkqovJAX92WTj9QfavQ8pPP25JTm6iAvYTwsN3ylxIwEA6q1c0a5z7hVKz9XjEkqU7vN5m2dJuNs8I2n8CZqIBfGrzrpeVhL48zOPt0fzwbwyU9swLYEc92VYMsTMbdWzkHGoe1VnXS+3OQST0v2uy9W+Fc3rLE+ldxkCZGcr6c+/Nrt/36uwxE+6geiItPv4vaWZSn+nZHtRBvik0f2icgETS5Xu0zjELw13e2/O178SwAIbDruAnbZyloMdzH0qzeN3ov1wlgeYjSRwLNQYmKhuv/iq2K22PzUEBjdM070ezWutSNe0FyRSzaH0Z+swT+w7731E+TiiD0ernXNS6W+V7nOinyvbe96jSFx63WKJ8vHC3xTu9v5yjmnj+AKmzgKb8FWijxtd/6UkudHfffxpBMueTORGbmuA9eO4HCHNQmIqXUgsxNnPcLO90fWymv6clUw1xKLkT3ma5tOTA9xjavvzsxbP010KY18AAGWpmsNRHLNfw4U4WGGw+3CiDJ80up+/abr+2mD38fBSotJrq7dyS7/tYUquzAxvvbJVMwwfjnUh8fAL2MF2Zr2ag0bbfRzhZ0WGXa/V2GH0i7kkFrIFJgCA4pSIePMgD7ars6ZvmK5/IxbXW55G73q/Hh4b60IG1597WpWlDfg4F00LbGGGtidBgw/aWalQyX7Hetklp62cZXZKcJVN9SpcNKtXhPdOOv90Zab22nC2+T+vTborXMcKKGCft3mX9HnUGRDz02MjYAAAGyrMd1m9YoH/Z1dla+tj4ULGE+/XO+/rV9mfV2Zpt8Timm/O1+9vGebH1IgKpj/r+tn0NgevOHvdTOO28jRNVNdYmJlEHf+uh71CyT4eQYbqbuYXs1PooL5cEjR4l5pr+66HXbL1jGtdtOuUhSxg1d3ML0LokP2xatDtJcaw15i/FATs8zbvY2r2S9bhUJJExWyRjQ0VCS+o2a+ml71LUvEqRH4ieTrabZybSn/3XQ/7gNL9qrvZdfeWQVAClqYnVIUAWFGGv5xxvWrR4u3xWBoqYJS5podZq+aAJhqHsjRNH1xC4BgmTPU21Fu5UjX7zUyiq6die7/uZO5Rs19+AhX1+vT5CZQq0Txt5RYpEEnVMWlfZYyqPa2epXH3bAa4YE27Q7Co6wyyGS4xcJjaFtgXbd7FSrLQ/ZmVTH0+Fdt82sqpWuMg20Sej/a1+s6pOG3DwUnwtyBzwq7K1tZnGQnV43hExKrOutaG68XyiAnYsV72NkFl0u6sZPpzuMSY6i5kk41TnZBYkkzvn2rt/Wuze6VHpWBnG4lz0b7eBRmaHrX7HuoMfmJmUaZmWyjX6ROxrZW19k/iRcjwAO7jHeoHPLUfLjGmuoA1DPHL1O57c75+yvXn4S517iMAnMsxkS2xuGYdibnU7FfTw64OdtvrcnWbQi0NNeAR4WAHs3REyD5qcN15coBLj1VfjxvEbxhUP+DzzOQxuMSY6jGweiu3XF27p2Z7W+3CIrX7zkvXxGSV93QD0XXeLpQr3U/JzPJN0/UHiy2O7mDXrphUyDzi0norv7QkmTq0OEv7/txUendFFBYjmdQC6/OIJrUHTNISHcgCiy/63KKqsj40MTUVzMlJKWr2IzDgY3XNKTqiJxrn+XGB4cVwHs/qFeFQJ7PkTyccf6ystVdtOu548mgvmx+1Z3O8D72C+lJ8hVNgyTClYJg8ZQXsyw7vfElld2qmroDpVbWXxGI2dg2UOhcS4MIL68Fue2+Z6Y3SFDrsK8HbWQmqu9lFm086XqystVe9W+d4pK6fjbhrOUbAavvYPEBcLGBTeEWi83ZetTs1VQXMrbJsjJbAPLG6Zi2p/txKLc4NFeY1Zk1k3tN18zJ818PO//NJ5+uVtY4dW8+41p0ZjFywf0wrhlkp63Ib8JMKGMCUjYG5eTlFdX+SsXugQ4GXoi8iMRYwRZbOdbm6YxsqzPcbqMg9r3ZWgq+7mMWbjjveq6x1VO1ocq9qtvGacJ9nTBDfpTJ+AAAQKVWPNZdCJr7KLyTP5dTemAoYgUfNAgMA+OfZpndECchPGt3PnxvmUyLVLqtXhAPt3mVnh7hlc1Lo3cum6d4IZ6EHPBw343sBU/lGedwLGI7D5YiGwJxT7ZqVxIMuHQtMVhVrunuOadOGCvOa4iQq4m/O9LhE2Hveu6Ky1lH1/DdDf6y3cmERzTFPJiPIqmcg9RQ2fGlaYNiUtcAwTL37S09BC8zLS6YQ2huzIH4o5/bwkuoY0/J8/cENFQlrrsrS1kSjne0OQf9Jo3t9Za296ssO7/xQj0eO802g+ltXlIAGRFyhI3HV/SnF8apKgSBw9V82kgwxM7VFWVZ9bjLEgp03TNMdStbityTr8Ne+7WbXDngj+33NSwBfdjBLB71SlYOVHl5ZpN6lHHPTUnSE6ilWh8JgIiLymGhctXvACrJ5qrU3lEVkGEHWx+q6Qzl3KH08wrx0Tff/XZp8x4MV5ruuzdEeStJGXsvrrVz+H487qt6vd96n9hhjLLBUfQgCxkoaJBnxhTkUARNl3eV0r7xTVMDMYRCwEW4vMX44K5nee2KAXfVVB3N/vZVbbGcjt5pRu0PQbz7pfFuUQROo3LQiAQvlVQA3LyHFiDcB02C9IQiYeSq2GccA1CTvMoIUMwHzCrIxFn08HnNSaeucVPqdOSn07to+9pZvuph76q38ImeElmXr94jwwWnn60WJ5KFrcnR1IbmQAOpLIYvypSkCkgzEVL12E40PhiBgU7LdehKPuojE2IUcjMQ1ladpuu+Za964oSJhzT1zTb9elKmp00cod6zHJRKbjju2Kv6yGu/DSCa4TVEBm7LMSqZtavdlhanZcJNGXSA/tjEw9dZfKH0cDBXpmvZ/KTe/sqEi4ZZfzjE9szAjMkJ2vJ8r+dMJxxMhC1iKnlA9cxVPxc7CJ2AyAZch7BQ1qdXGhAQJqFhd8xAjpcT7fV2YoWndUJHwwoYK8+pICdln5zxPhixg08yU6pI4vW5x5iVogZFT+foTVL4hIUzRkGaWkVRdFvrsEBcTK6zbJU6PZt+GwqJMbXOkhOzcMJ+y/aw76HL2eAClVV25scnGL4VLDFGe2vlt5Wm0qsUYZACIZmmUcBHCqliFXU51QhIqTk5dMurcVPpQrO5zpITsUKc36LSKcQXsqmzNZrUnPzPILYNLDEmWp7QFdm2OTvUq6Q1TsD9DGb/dLiHqAhaK1bckR/tOrO+3v5DdOcv4Qpo+tIhL3UDwBTjHFbDiJNqTZyY9Kgf8DZegCzmlY2B3zDJuUTkxBw2D/JTrz1DGbywEzGf1FSrdT0NgcNds0+Z4ue+LMrXN/7ow8Zl75pruzzGRqt8OGPCIEGzlioDD+upsraobo7b6JxKwyFKYSHVfTha12vHb7RSj7jKrFc1CC9Uej/f+F6Wmd9bPM98xPYFUPRnY6RSCWlWKDKymmm1/OeN6SOmJRRlgf5t38bJpupitJ1jTwxSN9+1wKQlYZa39af/fs4zkqVUzDDsDbb84S/vB2SH+CaXn6XAKMX89TE1/qh2/jUNcebTbd2aQW6hmv8VZmrhcLRsAYNUMw84+t/jc/ztmf1nN/vYg6xIGFLCbpusPJmptMMwon4o6NcCuiJWAbT3jWvePVs8TAOCv4HWLMrWqB2a8xcD2t3kXV9Y6nr/ogc3Q1E0kYAsyNNv+55RTsYB5BRk+b/MuuWGa7lC89Gemkdi2KFM74cpZasdvlyv6QfxjveqWvVucpX0/2G13NLpX9biFOf6f3TBN/1pxEhWxiiMPzDO/sue854nGIV7xl6CdlTJCEjAAgCsytbv2tHpWKj35tz3sXQDwu1gM+LoBduWRXna0+VkWyjHjzQI7NcCtULrP9Xm6moJEytYyzCue7fqyw/tArARsvP6cl0YH1Z8LMzS79533KrpXMgC+q9l9xcoiw3fRaF/LMI/3uJW7kDOTqO7FWdqg00U+Out65eQAVzTqy8n0eFLiU5Fs323FxqderLa9q3S/YOcyJwzt3jLD8LSJVh79bRzii2K1Vlxdv/KHe8oJmFVdG28tNjyjZr/DXcy6WLV1vP4UZAgqwPvTQv3/VVHmvLC2j70uatZXH3udJMMMpfv9fIbhOSXbe3g5cfRnn5/3PhLp9t0127jZSCtPrUjVE00hC9iSHG3dVdnaXUpPzooyHOr03h/twf5lh3d+l0swhfu4Ypy5kGeHOFULdfxyjmnj3FRacSyw1y3CtgbXnfHSn6IU3JsRN0zTH5qXTitOyq7tV7+SuQqBvkrpPtMTSOe6UtMmZQI2Ns+swylEJWk300AqfjMiy0jUhyxgAAB3lBgfs6ioDXSoU/XqyCG4G9zKSGSPx5MF9mmze6WNUd/IX5SaHtaTyr8R9533PBYv/SlIEHTZpluLDf+u1AhrdwgzTg5E55W4o73Krb2b8/WvKN3HxY8v+n9tdq+MdBszjYTiNyPK0jRBid6kyrQoU9O8JEenODO/cYgvGm/2KMLfZhHpjHh6mVtN/MufFQX6PYuztHuU7ndygFt0LMpL7gXqT1GWg34z4icFhj1zUmlFDxAnyrMPdXp/Gun2HepkCjucgiL3MdNAiCsK9C8oPZc3wDf731uUvXuohhwTqahEToYheHshKNPqjlnGR1N1yowQVpThgzOuN6M12JttvKZBpWs1uYDFj4KdsgafpRzQCptjfDBFYX+6eRm2nXG9Gg/9qcQC81lhz6gQl5sjL2Den4DCBNbr83SbChIpxdU2AnkmtX1sxN1lpSWvleTwBSVgZal03y3FhueUBkS/7mSWb21wRSUAXDfArhxmIvP2cbxYYPVWLqVlmA/Zql2YoW29VUV/ftXJrN7b6lka6/4UJWUu/W3Fxu2LFS5a0TjEl0fajTzUyfxEyfZzUujWW1ROxEz0xXSo01sWyXYOeERFVuaPpumCrswadHDrkQUJv7tpujJXkhFk2HrG9WokV+aNtPsYTwJ2aoBb4ebDczFq+tPJSfA/p5xvxzocIMiy4tLlGyrMa4osVND18llRnru31XN7pNr39xbP/HZH8O5jtpFgN1SY10Si9ld1FxtRI6NlOPjV4acnkM6lubqgv2wURefvLTPffX2ebr9CVyDl/XrXH2MtYK12XnUgPm4EzBreFBE1/Vk3wBX9uc7xSCz7U1RhaFeka9o3VJjXJCooP7OvzbsmUlbYB6ed/6rEfbx7junBa3N1qspcTVaj72CHd32k+rFxiNeftwtBZdVjF6xlRXlpigSsyEKxGyrMa67O1irKsj/Q7l3730fsz0fqJlV3MSXtTmHCgnCipL6mV7zEwE4NcDeF83hq+3NHk/uFTyM4ezVZfwoq++Om6fqD95WZHg52+06ncNOWeufj4W7fu3WO2473c9cEu/3qYsPmO0N4adsjjM0B86fNIZiO9DIReQd0d4vnN8EWxlyQoam7Z66yhT0U50fMSqZtGyrMqxdmaIKeWXByEmxrcD39X4dtEQnq1w1wK7lJbpKSmaux+8ZevGp62KKOSURaDWr687xdMG067tj6lzORiW9O1p9iCKHOX841b7y12BD0O4SHOrw/2d3iWRiutp0Z5IyfNLnvC9b6WpihqfvdkqRfhXLOYBa+PdrLro1EX+4773k0mO1SdATcV25WPJ5UFVkpT9N0b6gwr15bYtwUbBzYyUnwSaP7oae/HNraMMiFNdn0RD+7arJtlM5cxZsLeWqAW8FFSEnV9Ge7Q9C/W+d4950TjrDnh03Wn0KIHfL7JUl331tmeiGY/EYXL8/fcsr5+PE+NixfHm8dd/zuvF0IKni/PF+3a0OFeXWo53Tz8qTXXtMTfgF7qdr2eptj8sRyI4XBmhLDM9dka+uUnkN1PdpFmdrmZ662PPgv5eZnSpKCK9XCiDL87Zx7bWWtY8f+Nu/icN2o04OTZ04Hm70dry7kKSu7IpLHV9OfPW6ReP+089X/+Grog3Dm/E3Wn+HQ8X9bmPjMhoqEu8vTJs8RO2Xl7qysdfznmUEupFWL/vMb2xMH2r2Tut4WLQ7/NMu4cUNFwppQqqh8L8KclDy5ZcjPPzXAhs3Cr6y1P/1Zi2fSWCmFA6yaYXjjoYqEF9ScJ+SC2g/NT3hhQ0XC6mCnqSUZ4It277LKWvv2ylr706FaY582u1cOeif3KURZuQV2dogzHe9js+LEAlsejfMo7c9BrwQ7m9x3VtY6tu9scq8K9fzB9KcQpg75p1nGLRsqEtZcE0QM8HA382BlreP3p63qROy/jwzft6vZ/QtRhpKJtpthofo2VCTc/ZurLA8XJlJsONrp4idfMMTJSXC0L3Qr7JsupvTpLwe3/uWM6/nJ3hjREBisKNB/+ORiy6NqzxeWd/x+NE1XnajF11i0+OsNg9x1rXbBMrk48FndLvH5hkF+2ZIc7dvZJrLu6mxtvdJzTzb7aNHiMC9Ns3+iBXt3NrlXeQXZ7OalFBsjZXl5yeIR5ESvIJu8vLxcbcilyyWUjq7bpYYBj5jfG8VCkWr680gvW9btErYf6WW3LcjQbM0yEvVXqLAeJuvPDAMBi0JYs2E0V2dr640UdotZg286beWWTeTyHGj3Pi7LQNwwXffR3BT6u0ILxU92/L3nPeX727y3HepkfuwV5IAlnVL1BMxOpg6ummF45sbp+rBW/ihL1ey6tdiwqLaPveW8PXD7vmjzPmSmib5kHd6aYSAbgi21c7yfzepyCuUnB7gV9VbuphP9XMlk+xQmUtarc7Rbfn1FYkiTJJgcZvfo7y2eZV91etc3DPJLm2zB1QFK0RGQbSIapidQtYWJ1KF0A9FspDCrgcatRgq3FidRnpZhnmBF2cwIsmmIkfLa7HzF2SH+hjOD3LLxOiXHREJxErVncZb2/Xlp9I6SZDpgdcj7Pus/0TzMl3l4ecouJbYoQ1P3zk/Swl6MT01/ZhoJyDKS9dPMZE1+IlWTpg+9P/PMJJQkU7uuydZtvrXYsD0S9/Czc57lBzu8D00mZJlGAuam0P+1NE/3qYnGbSYatydqcSsOIDo5KcHByUkOVrJ828PcdHKAu7LZxq+aTLiW5uk2zk6m985Oidwaj7tbPMu/6vDeV2/lbhrvS4nCAZJ1BCTrCMgwEHvyzGStkcatNIF5aBw8NIF5cAwTvYJk8gqyxcXJyVavWNDvEYu6nMKidocw6TWYaBwWZGj2ryzUP7c8X38w1DaFXcBG2Hfes+SrTuaBM4PcDQ2DfFaw++lIDNINBBgpHAw0BkYK32Ok8UFGkE2sKK9kBBmGGBE6nQJ4RiV1pukJyDOTddPM5LH5GZrtxUnUwZlJ9KRlbe/7rP9EzdgaYkjAwtCfegqDNH3o/bkwU7OtJJneHy63Klgha3cIpkBPSI6JBBONgYnGIVFLAO5zxRycBA5WgrYJHuh0PQElURKu8b6UDncz97TZhfltDr50IpedxAFoAgMax4AmMMCxC0UuvYIMwU4q4RjA9AQSppmp/XNT6V3X5Gg3hyshN2IC9r1Z2u5dfLSHXd3nEUv6PcLKPrcI/R4xLGsOkjhAlpGEND1RN81MHpuTSu/OM5PHlAY+K2vtT3e7xNKpLGBZRqJ+g8pAaLz0J01gkGkgIDXE/gynkJ0e5G5qs/OLOpzC0g6HAHwI7ZxmJiHPTB7KNpF1JUnU/pJken80hWs033YzJW0OoeJEP3tLm12Y3+USioKJJweDgcIgw0BCppE4VJBIVc9NpXdPM5M1E3lCcSlgI7QM80S/R5zR5xZn9nvEGZ1OoazPLc5w89JiRrjguo3+iQEAhWNAEr6fOAYUDpBjIo9lGsmzWUaiPs9MHkvTE02xGuSXK4H608VLi1nhQh8yI33p+z+JX9yPFI6BnsIgy0hWZxiIhmwTWZdlJOtT9XhLPPXnaStn6XAKFR0OofzcMH9Nj0ss8QpSqVeQwcvL4BHk76s96EgcdCQGWhIDne9fqp7YnWcmj82w0F/mXRBma7z159edTFmXSyjtdgqlg4xUYPWK+YNecbGdkYCXAHhJBl6UL/yUIGBf5pjIQxkG4uy0BKomw0A0ZBrJhrmpdF+krjtqAjYeJ/rZLDcvW3zuhNn3U+/7acIARAoHliQwjsIxD4kDS+EYm2Mi6xZkaFqRjMQXJ/rZLBcvp7CCrGcE2cyIkokRZBMryCZGlM0kjrF+/chROHj0FG7LMhL1wdZ/ige+7WZKvIJs8gqyxctLJt+Ej8UXArHpSMypJTGnjsRtOhJzpuqJ5iJL5F3fcFI3wKYPeqV8OyOl85Ks5yVZw4tw4ack6wP1ZY6JrIumQMdUwBAIBCIUcHQLEAgEEjAEAoFAAoZAIBBIwBAIBBIwBAKBQAKGQCAQSMAQCAQCCRgCgUAChkAgEEjAEAgEAgkYAoG4HCDRLZjalP25Q+kuNwJAi+9fMOz1bfsUANgutftXd28uGkRIwBAxEq8CACgAgAU+YVoLACOVNkf+5v//Bb6fRwEg2KXC9gHAk77jr/f9roQFCoXP4rs+BAIJ2CUoWk8CwAN+wgQ+C+moT2Se9IkG+FlZR30i8lIA6+t2374TidiNvvPeHmCbQBbaA37XGwwtMPGaibf7ibTNd23BCqRl1PV/dClalZcTqJzO1BSxB/we9r2+B75llKiBT8xafMI1wjbfQ7t+lMi86HugR1tPBeN8Pp5IFQZwSy1+ghMMtgCiUuC79oJRbbUBwE1BuMQjbbT5ti3wXdfauntz96FRhQQMERsX8two8fAXqCd9/wp9n93oE7ynRonaA37b+QvGEZ+F89QEArHAt10hBB9XU8MRv3a1+InjXt//F07ixu71tdm/3S/62r6w7t7cFjSiph5oFnKKCpdPvCx+D/LI7/t8blIBALzlJ1AjFtm+UQ+xv+Xjbylt8v0+8vCfG/XviE8QRywiSwSbbPGzBFtGXfNHfpZiIJ70c6H9eWnU/UFMMVAMbGq6j5vGsU7AJ1jr/Syq9X4iNhIbu2mcw77lt12B7/gjAtgyyqV70ico/gH9jyLcbJufFTne3yZjAYw/+TASQ7sRjSwkYIgoUHdv7ltlf+7Y5ycmD8APMSCbnyC1+B7Mp3yf7fUJzUQzfCNxoqO+Y26DH2Y3bb6/WXy/TxQ3ut23bai85Wcl2SY4174J3NeRGdijE4ijBY2sqQmKgU1dS8zic+Usvod3ve8hHRGOEfduLVycUjHCU+NYViOB/LV+D/+LfhZKi+9vk8WLCiaxap70c3cnEsKj4wjPglH/RsfFxruWc6Os0dGivQkAClEc7BKxwFrt0VvG/nIlP4EQQzzEk37Ww0c+a2m9TzhGAu8j6RMPjHqgF/hZZiO85Nt+36ht/VMWCnzHmsySawkgFv7C+pHvepWmMdw4qj1RzxlDz4cyJEkiJUkiBEHQyLIMsiyPuX8Yhok4jgsEQYgETrAFFjKo52OMgH3Vxc9vHBKXAsCr6NZHjMevzJS3zEkhVS0/5QvgP+ATnRd9YlHgE7WRh/qjUeLkb3EUBBCOfT7BGhGJETFc6BOlkZyuJ/3OMZKDFqz18qKfxagmB8t/JnGB71r2+q5RzfEsEDh1YwwnrUL6dz3CXej5CA4ZZJAkCUC+8H+fXAWSOsBABhyXHu9yiwevzdEcUyxgBAYshYMHAB5Etz9u2eYTgY/8XEb/WFeBn5UyIkoL/Kyq8ayaEZfsRj/3zj9QX+Dn8t3oiz096WehtcDk+Vgv+o7jLzYLfC7cU6A8y/+ob79zfoI+GhtMHOcqAABb3b25QYsfej6CES4gJFF8UwYZcAwAMHgUx3ARw/ERCfvewpJlmZBkibgQzpJfBxBflUV5QTDnQTGwqRf7Ggms3+R7MEfngZ0bJ9Y1Ih5H4YeUhEI/C+QI/PAKz4ilFUycayT2tGAcS280t/uEarwJAP82HQ2w78iEhC1AjOulcdziEUZyyG4K8LeWuntz16LRFUY328YSAs9rZFkGDMOAIEm2IEk7oVt4zurRiOIP7nlxusmjKgaGiGteAoB9dffmHvW5koG2GR2D+sjPhXxylIVyk5+lMmK5TWRNFfgJ5WSB+BELbyIr6ymf5bhtgvM+4BO3t8a5lsliYR/52lww6tgjludLaFiFl3yLRgTQeJTsU5iiV7x6ORKwKUbdvblHYfLAtQUCJ3aO50pFcvZtxPJ6yydeBaNcWvATwgd8IrZwHAEacZctfiI4Eqv7yE+gRyxK/xSMl+DitxCO+q7rAQD4qO7e3I/QyJqaIAG7NHkRJs7DCkawbofAge1g86Ys8ENG/5N+lp9/0Nz/5fK3fOfdBj+kcoywFn7Ie/M/zltBWlBr/e7LiCX2Vt29ucj6QgKGiDELRonSUxA4O/72UQ9xIMLxeo0NfohL2fwsx4lm/SYKuI/MQPqndoy3f2GAz9f7uZ0o5wsJGCLGjH4QR9wr2wQP6Mjs4mQP8EQxsBE3LRjeUtimp4IUxlBA4nWJgGYhpzgqKrKqEcZLFlSRFQkYAoFAxARUTgeBQCABQyAQCCRgCAQCgQQMgUBc6vz/AwDpBIYvk94MpgAAAABJRU5ErkJggg==;" parent="_gx7Ysj8cRRFJQ8xo1C6-4" vertex="1">
          <mxGeometry x="21.591666666666665" y="10.89108910891089" width="56.80833333333334" height="41.66666666666667" as="geometry" />
        </mxCell>
        <mxCell id="_gx7Ysj8cRRFJQ8xo1C6-7" value="CRD-Prometheus&lt;br&gt;CRD-ServiceMonitor" style="shape=card;whiteSpace=wrap;html=1;" parent="1" vertex="1">
          <mxGeometry x="150" y="300" width="123" height="58" as="geometry" />
        </mxCell>
        <mxCell id="_gx7Ysj8cRRFJQ8xo1C6-8" value="watch" style="endArrow=classic;html=1;exitX=0;exitY=0.5;exitDx=0;exitDy=0;entryX=0.989;entryY=0.339;entryDx=0;entryDy=0;entryPerimeter=0;" parent="1" source="DOYagENMo1T1TxlhpTYe-41" target="_gx7Ysj8cRRFJQ8xo1C6-7" edge="1">
          <mxGeometry width="50" height="50" relative="1" as="geometry">
            <mxPoint x="300" y="490" as="sourcePoint" />
            <mxPoint x="350" y="440" as="targetPoint" />
            <Array as="points" />
          </mxGeometry>
        </mxCell>
        <mxCell id="_gx7Ysj8cRRFJQ8xo1C6-9" value="" style="endArrow=classic;html=1;exitX=0.5;exitY=1;exitDx=0;exitDy=0;entryX=0.575;entryY=-0.006;entryDx=0;entryDy=0;entryPerimeter=0;" parent="1" source="_gx7Ysj8cRRFJQ8xo1C6-1" target="_gx7Ysj8cRRFJQ8xo1C6-7" edge="1">
          <mxGeometry width="50" height="50" relative="1" as="geometry">
            <mxPoint x="230" y="470" as="sourcePoint" />
            <mxPoint x="280" y="420" as="targetPoint" />
          </mxGeometry>
        </mxCell>
        <mxCell id="_gx7Ysj8cRRFJQ8xo1C6-11" value="operate" style="edgeLabel;html=1;align=center;verticalAlign=middle;resizable=0;points=[];" parent="_gx7Ysj8cRRFJQ8xo1C6-9" vertex="1" connectable="0">
          <mxGeometry x="-0.1403" y="1" relative="1" as="geometry">
            <mxPoint as="offset" />
          </mxGeometry>
        </mxCell>
        <mxCell id="_gx7Ysj8cRRFJQ8xo1C6-13" value="2.x容器云" style="text;html=1;strokeColor=none;fillColor=none;align=center;verticalAlign=middle;whiteSpace=wrap;rounded=0;" parent="1" vertex="1">
          <mxGeometry x="203.63" y="388" width="90" height="20" as="geometry" />
        </mxCell>
        <mxCell id="_gx7Ysj8cRRFJQ8xo1C6-14" value="" style="aspect=fixed;html=1;points=[];align=center;image;fontSize=12;image=img/lib/mscae/Kubernetes.svg;strokeWidth=1;" parent="1" vertex="1">
          <mxGeometry x="172.38" y="383" width="31.25" height="30" as="geometry" />
        </mxCell>
      </root>
    </mxGraphModel>
  </diagram>
</mxfile>
